<svg xmlns="http://www.w3.org/2000/svg">
<defs>
<font id="DBOzoneX-LightItalic" horiz-adv-x="0" >
  <font-face 
    font-family="DB Ozone X"
    font-weight="300"
    font-style="italic"
    font-stretch="normal"
    units-per-em="1000"
    panose-1="2 0 5 6 9 0 0 2 0 4"
    ascent="800"
    descent="-200"
    x-height="380"
    cap-height="505"
    bbox="-396 -269 865 791"
    underline-thickness="20"
    underline-position="-113"
    unicode-range="U+0020-U+F882"
  />
<missing-glyph horiz-adv-x="347" 
d="M352 335l0.000976562 -12h5c4 0 6 2.33301 6 7c0 0.666992 -0.333008 1.66699 -1 3s-2.33398 2 -5.00098 2h-5zM355.001 322h-3v-11h-4v28h9c6.66699 0 10 -3 10 -9c0 -3.33301 -0.833008 -5.5 -2.5 -6.5s-3.5 -1.5 -5.5 -1.5l8 -11h-4zM357.001 306
c7.33301 0 12.167 2 14.5 6s3.5 7.66699 3.5 11c0 6 -1.5 10.833 -4.5 14.5s-7.5 5.5 -13.5 5.5s-10.667 -1.83301 -14 -5.5s-5 -8.5 -5 -14.5c0 -4.66699 1.66699 -8.66699 5 -12s8 -5 14 -5zM357.002 346c7.33301 0 12.666 -2.33301 15.999 -7s5 -10 5 -16
c0 -4.66699 -1.66699 -9 -5 -13s-8.66602 -6 -15.999 -6c-6 0 -11 2 -15 6s-6 8.33301 -6 13c0 6 2 11.333 6 16s9 7 15 7zM167.002 265c8.66699 -0.666992 19.166 -1.83203 31.499 -3.49902s24.5 -3.66699 36.5 -6s22.833 -5 32.5 -8s17.5 -6.5 23.5 -10.5
c-12 22 -29.667 39 -53 51s-47.333 18 -72 18c-18.667 0 -36.667 -3.66699 -54 -11s-31.666 -18.333 -42.999 -33c10.667 1.33301 21 2.16602 31 2.49902s20 0.5 30 0.5h18.5h18.5zM313.001 330.002l0.00195312 -118.001c-26.667 8 -57.334 15 -92.001 21s-71 9 -109 9
c-26.667 0 -53 -1.66699 -79 -5c4 12.667 9.5 24.667 16.5 36s16.167 21.333 27.5 30s24.333 15.334 39 20.001s31 7 49 7c16.667 0 32.167 -1.83301 46.5 -5.5s26.666 -8.16699 36.999 -13.5s19 -11.5 26 -18.5s12.5 -13.167 16.5 -18.5l-0.5 6
c-0.333008 4 -0.5 9.16699 -0.5 15.5v19.5v15h23zM127.003 107.001c0 4 -1.5 7.16699 -4.5 9.5s-6.16699 3.5 -9.5 3.5c-4 0 -7.5 -1.16699 -10.5 -3.5s-4.5 -5.5 -4.5 -9.5c0 -5.33301 1.5 -8.83301 4.5 -10.5s6.5 -2.5 10.5 -2.5c3.33301 0 6.5 0.833008 9.5 2.5

<glyph glyph-name="plusminus" unicode="&#x2b;&#x2d;" horiz-adv-x="413" 
d="M266 212l-27 -142h-38l27 142h-143l7 37h143l26 143h38l-26 -143h141l-7 -37h-141zM52 36h322l-6 -36h-322z" />
    <glyph glyph-name="ellipsis" unicode="&#x2e;&#x2e;&#x2e;" horiz-adv-x="570" 
d="M257 29c1.33301 9.33301 5.83105 17.166 13.498 23.499s16.167 9.5 25.5 9.5s16.5 -3.16699 21.5 -9.5s6.83301 -14.166 5.5 -23.499c-2 -9.33301 -6.66699 -17.166 -14 -23.499s-15.666 -9.5 -24.999 -9.5s-16.666 3.16699 -21.999 9.5s-7 14.166 -5 23.499zM436.998 29
c1.33301 9.33301 5.83105 17.166 13.498 23.499s16.167 9.5 25.5 9.5s16.5 -3.16699 21.5 -9.5s6.83301 -14.166 5.5 -23.499c-2 -9.33301 -6.66699 -17.166 -14 -23.499s-15.666 -9.5 -24.999 -9.5s-16.666 3.16699 -21.999 9.5s-7 14.166 -5 23.499zM74.9961 29
c1.33301 9.33301 5.83105 17.166 13.498 23.499s16.167 9.5 25.5 9.5s16.5 -3.16699 21.5 -9.5s6.83301 -14.166 5.5 -23.499c-2 -9.33301 -6.66699 -17.166 -14 -23.499s-15.666 -9.5 -24.999 -9.5s-16.666 3.16699 -21.999 9.5s-7 14.166 -5 23.499z" />
    <glyph glyph-name="lessequal" unicode="&#x3c;&#x3d;" horiz-adv-x="414" 
d="M384 88l-299 124l7 37l345 125l-8 -41l-293 -102l255 -102zM371 17l7 38h-322l-7 -38h322z" />
    <glyph glyph-name="greaterequal" unicode="&#x3e;&#x3d;" horiz-adv-x="413" 
d="M69 129l293 102l-255 102l8 41l299 -125l-7 -37l-345 -124zM49 17l7 38h322l-7 -38h-322z" />
    <glyph glyph-name="fongmanfunnuthai" unicode="&#xe4f;&#x22;" horiz-adv-x="511" 
d="M89 200c5.33301 28 15.499 54.5 30.499 79.5s33.333 46.667 55 65s45.667 32.833 72 43.5s53.5 16 81.5 16s53.5 -5.33301 76.5 -16s42 -25.167 57 -43.5s25.667 -40 32 -65s6.83301 -51.5 1.5 -79.5s-15.666 -54.167 -30.999 -78.5s-33.833 -45.666 -55.5 -63.999
s-46 -32.833 -73 -43.5s-54.5 -16 -82.5 -16s-53.167 5.33301 -75.5 16s-41 25.167 -56 43.5s-25.5 39.666 -31.5 63.999s-6.33301 50.5 -1 78.5zM128.999 200c-4 -22 -3.66699 -42.833 1 -62.5s13 -36.834 25 -51.501s27.167 -26.334 45.5 -35.001s38.5 -13 60.5 -13
c22.667 0 44.667 4.33301 66 13s40.833 20.334 58.5 35.001s32.667 31.834 45 51.501s20.5 40.5 24.5 62.5c4 22.667 3.5 44 -1.5 64s-13.5 37.333 -25.5 52s-27.167 26.334 -45.5 35.001s-38.833 13 -61.5 13c-22 0 -43.667 -4.33301 -65 -13
s-40.833 -20.334 -58.5 -35.001s-32.5 -32 -44.5 -52s-20 -41.333 -24 -64zM182.999 200c2.66699 14.667 8.16895 28.667 16.502 42s18.166 25 29.499 35s24.166 17.833 38.499 23.5s28.833 8.5 43.5 8.5s28.167 -2.83301 40.5 -8.5s22.5 -13.5 30.5 -23.5
s13.667 -21.667 17 -35s3.66602 -27.333 0.999023 -42s-8.16699 -28.5 -16.5 -41.5s-18.333 -24.5 -30 -34.5s-24.667 -17.833 -39 -23.5s-28.833 -8.5 -43.5 -8.5s-28 2.83301 -40 8.5s-22 13.5 -30 23.5s-13.667 21.5 -17 34.5s-3.66602 26.833 -0.999023 41.5z
M223.001 200c-3.33301 -18.667 0.333008 -34.667 11 -48s25.334 -20 44.001 -20c19.333 0 37 6.66699 53 20s25.667 29.333 29 48c3.33301 19.333 -0.5 35.666 -11.5 48.999s-26.167 20 -45.5 20c-18.667 0 -35.834 -6.66699 -51.501 -20s-25.167 -29.666 -28.5 -48.999z
M265 456l18 130h53l-30 -130h-41zM369 456l18 130h53l-30 -130h-41z" />
    <glyph glyph-name="dochadaphinthuthai" unicode="&#xe0e;&#xe3a;" horiz-adv-x="452" 
d="M74 -51l118.995 56c8 3.33301 14.167 5 18.5 5s9.5 -1.66699 15.5 -5l92 -45c4.66699 -2.66699 9.5 -2.66699 14.5 0s8.16699 7.33398 9.5 14.001l50 272c8.66699 45.333 3.83398 77.5 -14.499 96.5s-47.5 28.5 -87.5 28.5c-23.333 0 -47.166 -4.5 -71.499 -13.5
s-47.166 -27.5 -68.499 -55.5l23 -46l-30 -164c-4 -20.667 -10.333 -37.167 -19 -49.5s-18 -21.666 -28 -27.999s-20.167 -10.333 -30.5 -12s-19.166 -2.5 -26.499 -2.5v38c12.667 -0.666992 22.834 1 30.501 5s13.5 9.33301 17.5 16s6.83301 13.834 8.5 21.501l4.5 21.5
l28 148l-27 53c27.333 35.333 57 61.666 89 78.999s68 26 108 26c56.667 0 96.167 -13.333 118.5 -40s28.833 -65 19.5 -115l-52 -280c-1.33301 -8.66699 -4.83301 -17 -10.5 -25s-12.667 -14.333 -21 -19s-17.333 -7.33398 -27 -8.00098s-19.5 1.66602 -29.5 6.99902
l-84 44c-5.33301 2.66699 -11.333 2.66699 -18 0l-105 -50zM297.995 -155c1.33301 9.33301 5.83105 17.166 13.498 23.499s16.167 9.5 25.5 9.5s16.5 -3.16699 21.5 -9.5s6.83301 -14.166 5.5 -23.499c-2 -9.33301 -6.66699 -17.166 -14 -23.499s-15.666 -9.5 -24.999 -9.5
s-16.666 3.16699 -21.999 9.5s-7 14.166 -5 23.499z" />
    <glyph glyph-name="topatakphintuthai" unicode="&#xe0f;&#xe3a;" horiz-adv-x="452" 
d="M394 246c8.66699 45.333 3.8291 77.5 -14.5039 96.5s-47.5 28.5 -87.5 28.5c-23.333 0 -47.166 -4.5 -71.499 -13.5s-47.166 -27.5 -68.499 -55.5l23 -46l-30 -164c-4 -20.667 -10.333 -37.167 -19 -49.5s-18 -21.666 -28 -27.999s-20.167 -10.333 -30.5 -12
s-19.166 -2.5 -26.499 -2.5l-1 37c12.667 -0.666992 22.834 1 30.501 5s13.667 9.33301 18 16s7.33301 13.834 9 21.501l4.5 21.5l28 149l-27 53c27.333 35.333 57 61.666 89 78.999s68 26 108 26c56.667 0 96.167 -13.333 118.5 -40s28.833 -65 19.5 -115l-51 -277
c-2 -12 -6.66699 -22.167 -14 -30.5s-15.5 -14.666 -24.5 -18.999s-18.167 -6.5 -27.5 -6.5s-17 3 -23 9l-44 42c-4 4 -8.33301 4 -13 0l-56 -42c-8 -4.66699 -14.5 -6.83398 -19.5 -6.50098s-9.83301 2.5 -14.5 6.5l-51 44l38 20l33 -28
c2.66699 -2.66699 6.33398 -2.66699 11.001 0l56 42c7.33301 3.33301 13.166 5 17.499 5s9.5 -1.66699 15.5 -5l48 -43c4 -4 8.83301 -4.83301 14.5 -2.5s9.16699 7.16602 10.5 14.499zM297.995 -155c1.33301 9.33301 5.83105 17.166 13.498 23.499s16.167 9.5 25.5 9.5
s16.5 -3.16699 21.5 -9.5s6.83301 -14.166 5.5 -23.499c-2 -9.33301 -6.66699 -17.166 -14 -23.499s-15.666 -9.5 -24.999 -9.5s-16.666 3.16699 -21.999 9.5s-7 14.166 -5 23.499z" />
    <glyph glyph-name="dochadasarauthai" unicode="&#xe0e;&#xe38;" horiz-adv-x="452" 
d="M314 -188c2.66699 15.333 2.33203 25 -1.00098 29s-10.666 6 -21.999 6h-13l7 37h18c25.333 0 42 -4.33301 50 -13s9.33301 -28 4 -58l-10 -55h-43zM73.998 -51l118.997 55.9971c8 3.33301 14.167 5 18.5 5s9.5 -1.66699 15.5 -5l92 -45
c5.33301 -1.33301 10.5 0.333984 15.5 5.00098s8.16699 10.334 9.5 17.001l49 264c8.66699 45.333 3.83398 77.5 -14.499 96.5s-47.5 28.5 -87.5 28.5c-23.333 0 -47.166 -4.5 -71.499 -13.5s-47.166 -27.5 -68.499 -55.5l23 -46l-30 -164
c-4 -20.667 -10.333 -37.167 -19 -49.5s-18 -21.666 -28 -27.999s-20.167 -10.333 -30.5 -12s-19.166 -2.5 -26.499 -2.5v38c12.667 -0.666992 22.834 1 30.501 5s13.5 9.33301 17.5 16s6.83301 13.834 8.5 21.501l4.5 21.5l28 148l-27 53
c27.333 35.333 57 61.666 89 78.999s68 26 108 26c56.667 0 96.167 -13.333 118.5 -40s28.833 -65 19.5 -115l-48 -261c-2 -10 -5.16699 -18.833 -9.5 -26.5s-9 -14 -14 -19s-10 -9.16699 -15 -12.5s-8.5 -5.33301 -10.5 -6c-6.66699 -3.33301 -13.834 -5 -21.501 -5
s-14.834 1.66699 -21.501 5l-84 44c-5.33301 2.66699 -11.333 2.66699 -18 0l-105 -50z" />
    <glyph glyph-name="topataksarauthai" unicode="&#xe0f;&#xe38;" horiz-adv-x="452" 
d="M314 -188c2.66699 15.333 2.33203 25 -1.00098 29s-10.666 6 -21.999 6h-13l7 37h18c25.333 0 42 -4.33301 50 -13s9.33301 -28 4 -58l-10 -55h-43zM393.998 246c8.66699 45.333 3.83105 77.5 -14.502 96.5s-47.5 28.5 -87.5 28.5c-23.333 0 -47.166 -4.5 -71.499 -13.5
s-47.166 -27.5 -68.499 -55.5l23 -46l-30 -164c-4 -20.667 -10.333 -37.167 -19 -49.5s-18 -21.666 -28 -27.999s-20.167 -10.333 -30.5 -12s-19.166 -2.5 -26.499 -2.5l-1 37c12.667 -0.666992 22.834 1 30.501 5s13.667 9.33301 18 16s7.33301 13.834 9 21.501l4.5 21.5
l28 149l-27 53c27.333 35.333 57 61.666 89 78.999s68 26 108 26c56.667 0 96.167 -13.333 118.5 -40s28.833 -65 19.5 -115l-47 -258c-2.66699 -11.333 -8.33398 -23 -17.001 -35s-21.667 -22.333 -39 -31c-8 -4 -14.667 -6 -20 -6s-11 2 -17 6l-44 42
c-4 4 -8.33301 4 -13 0l-56 -42c-8 -4.66699 -14.5 -6.83398 -19.5 -6.50098s-9.83301 2.5 -14.5 6.5l-51 44l38 20l33 -28c2.66699 -2.66699 6.33398 -2.66699 11.001 0l56 42c7.33301 3.33301 13.166 5 17.499 5s9.5 -1.66699 15.5 -5l48 -43
c6.66699 0 12.667 2.83301 18 8.5s8.66602 11.5 9.99902 17.5z" />
    <glyph glyph-name="dochadasarauuthai" unicode="&#xe0e;&#xe39;" horiz-adv-x="452" 
d="M207 -171c1.33301 8 1 13.332 -1 15.999s-6.66699 4 -14 4h-13l5 36h25c19.333 0 31.666 -3.83301 36.999 -11.5s6.33301 -20.834 3 -39.501c-1.33301 -3.33301 -1.66602 -4.16602 -0.999023 -2.49902s0.666992 0.833984 0 -2.49902
c-1.33301 -7.33301 -0.333008 -15 3 -23s11.666 -12 24.999 -12c14 0 24 4 30 12s9.66699 15.667 11 23l10 56h42l-10 -56c-4 -21.333 -14.333 -38.333 -31 -51s-36 -19 -58 -19c-23.333 0 -40.666 6.33301 -51.999 19s-15 29.667 -11 51zM74 -51.001l118.997 55.9971
c8 3.33301 14.167 5 18.5 5s9.5 -1.66699 15.5 -5l92 -45c5.33301 -1.33301 10.5 0.333984 15.5 5.00098s8.16699 10.334 9.5 17.001l49 264c8.66699 45.333 3.83398 77.5 -14.499 96.5s-47.5 28.5 -87.5 28.5c-23.333 0 -47.166 -4.5 -71.499 -13.5
s-47.166 -27.5 -68.499 -55.5l23 -46l-30 -164c-4 -20.667 -10.333 -37.167 -19 -49.5s-18 -21.666 -28 -27.999s-20.167 -10.333 -30.5 -12s-19.166 -2.5 -26.499 -2.5v38c12.667 -0.666992 22.834 1 30.501 5s13.5 9.33301 17.5 16s6.83301 13.834 8.5 21.501l4.5 21.5
l28 148l-27 53c27.333 35.333 57 61.666 89 78.999s68 26 108 26c56.667 0 96.167 -13.333 118.5 -40s28.833 -65 19.5 -115l-48 -261c-2 -10 -5.16699 -18.833 -9.5 -26.5s-9 -14 -14 -19s-10 -9.16699 -15 -12.5s-8.5 -5.33301 -10.5 -6
c-6.66699 -3.33301 -13.834 -5 -21.501 -5s-14.834 1.66699 -21.501 5l-84 44c-5.33301 2.66699 -11.333 2.66699 -18 0l-105 -50z" />
    <glyph glyph-name="topataksarauuthai" unicode="&#xe0f;&#xe39;" horiz-adv-x="452" 
d="M207 -171c1.33301 8 1 13.332 -1 15.999s-6.66699 4 -14 4h-13l5 36h25c19.333 0 31.666 -3.83301 36.999 -11.5s6.33301 -20.834 3 -39.501c-1.33301 -3.33301 -1.66602 -4.16602 -0.999023 -2.49902s0.666992 0.833984 0 -2.49902
c-1.33301 -7.33301 -0.333008 -15 3 -23s11.666 -12 24.999 -12c14 0 24 4 30 12s9.66699 15.667 11 23l10 56h42l-10 -56c-4 -21.333 -14.333 -38.333 -31 -51s-36 -19 -58 -19c-23.333 0 -40.666 6.33301 -51.999 19s-15 29.667 -11 51zM394 245.999
c8.66699 45.333 3.83105 77.5 -14.502 96.5s-47.5 28.5 -87.5 28.5c-23.333 0 -47.166 -4.5 -71.499 -13.5s-47.166 -27.5 -68.499 -55.5l23 -46l-30 -164c-4 -20.667 -10.333 -37.167 -19 -49.5s-18 -21.666 -28 -27.999s-20.167 -10.333 -30.5 -12
s-19.166 -2.5 -26.499 -2.5l-1 37c12.667 -0.666992 22.834 1 30.501 5s13.667 9.33301 18 16s7.33301 13.834 9 21.501l4.5 21.5l28 149l-27 53c27.333 35.333 57 61.666 89 78.999s68 26 108 26c56.667 0 96.167 -13.333 118.5 -40s28.833 -65 19.5 -115l-47 -258
c-2.66699 -11.333 -8.33398 -23 -17.001 -35s-21.667 -22.333 -39 -31c-8 -4 -14.667 -6 -20 -6s-11 2 -17 6l-44 42c-4 4 -8.33301 4 -13 0l-56 -42c-8 -4.66699 -14.5 -6.83398 -19.5 -6.50098s-9.83301 2.5 -14.5 6.5l-51 44l38 20l33 -28
c2.66699 -2.66699 6.33398 -2.66699 11.001 0l56 42c7.33301 3.33301 13.166 5 17.499 5s9.5 -1.66699 15.5 -5l48 -43c6.66699 0 12.667 2.83301 18 8.5s8.66602 11.5 9.99902 17.5z" />
    <glyph glyph-name=".notdef" horiz-adv-x="347" 
d="M352 335l0.000976562 -12h5c4 0 6 2.33301 6 7c0 0.666992 -0.333008 1.66699 -1 3s-2.33398 2 -5.00098 2h-5zM355.001 322h-3v-11h-4v28h9c6.66699 0 10 -3 10 -9c0 -3.33301 -0.833008 -5.5 -2.5 -6.5s-3.5 -1.5 -5.5 -1.5l8 -11h-4zM357.001 306
c7.33301 0 12.167 2 14.5 6s3.5 7.66699 3.5 11c0 6 -1.5 10.833 -4.5 14.5s-7.5 5.5 -13.5 5.5s-10.667 -1.83301 -14 -5.5s-5 -8.5 -5 -14.5c0 -4.66699 1.66699 -8.66699 5 -12s8 -5 14 -5zM357.002 346c7.33301 0 12.666 -2.33301 15.999 -7s5 -10 5 -16
c0 -4.66699 -1.66699 -9 -5 -13s-8.66602 -6 -15.999 -6c-6 0 -11 2 -15 6s-6 8.33301 -6 13c0 6 2 11.333 6 16s9 7 15 7zM167.002 265c8.66699 -0.666992 19.166 -1.83203 31.499 -3.49902s24.5 -3.66699 36.5 -6s22.833 -5 32.5 -8s17.5 -6.5 23.5 -10.5
c-12 22 -29.667 39 -53 51s-47.333 18 -72 18c-18.667 0 -36.667 -3.66699 -54 -11s-31.666 -18.333 -42.999 -33c10.667 1.33301 21 2.16602 31 2.49902s20 0.5 30 0.5h18.5h18.5zM313.001 330.002l0.00195312 -118.001c-26.667 8 -57.334 15 -92.001 21s-71 9 -109 9
c-26.667 0 -53 -1.66699 -79 -5c4 12.667 9.5 24.667 16.5 36s16.167 21.333 27.5 30s24.333 15.334 39 20.001s31 7 49 7c16.667 0 32.167 -1.83301 46.5 -5.5s26.666 -8.16699 36.999 -13.5s19 -11.5 26 -18.5s12.5 -13.167 16.5 -18.5l-0.5 6
c-0.333008 4 -0.5 9.16699 -0.5 15.5v19.5v15h23zM127.003 107.001c0 4 -1.5 7.16699 -4.5 9.5s-6.16699 3.5 -9.5 3.5c-4 0 -7.5 -1.16699 -10.5 -3.5s-4.5 -5.5 -4.5 -9.5c0 -5.33301 1.5 -8.83301 4.5 -10.5s6.5 -2.5 10.5 -2.5c3.33301 0 6.5 0.833008 9.5 2.5
s4.5 5.16699 4.5 10.5zM26.0029 116.001c0 12.667 2.33398 24.1631 7.00098 34.4961s11.334 18.833 20.001 25.5s18.167 11.667 28.5 15s21.5 5 33.5 5c10.667 0 21.167 -1.5 31.5 -4.5s19.666 -7.66699 27.999 -14s14.666 -14.166 18.999 -23.499s6.5 -20.666 6.5 -33.999
v-97h90v168h23v-190h-159v22h25v99c0 16.667 -6 29.167 -18 37.5s-27.333 12.5 -46 12.5c-16.667 0 -31.5 -4.66699 -44.5 -14s-19.5 -22 -19.5 -38v-90l47 49c-2 0.666992 -5.33301 3.33398 -10 8.00098s-7 11.334 -7 20.001c0 9.33301 3 17 9 23s14.333 9 25 9
c9.33301 0 16.833 -3.16699 22.5 -9.5s8.5 -13.833 8.5 -22.5c0 -8 -1.5 -14.167 -4.5 -18.5s-5.5 -7.5 -7.5 -9.5l-14.5 -14.5c-8.33301 -8.33301 -17.5 -16.833 -27.5 -25.5l-40 -38h-26v115z" />
    <glyph glyph-name="space" unicode=" " horiz-adv-x="209" 
 />
    <glyph glyph-name="exclam" unicode="!" horiz-adv-x="240" 
d="M177 151h-38l63 354h44zM105 28c1.33301 9.33301 5.33203 16.833 11.999 22.5s14.667 8.5 24 8.5s16.333 -2.83301 21 -8.5s6.33398 -13.167 5.00098 -22.5c-2 -9.33301 -6.33301 -16.833 -13 -22.5s-14.667 -8.5 -24 -8.5s-16.333 2.83301 -21 8.5s-6 13.167 -4 22.5z
" />
    <glyph glyph-name="quotedbl" unicode="&#x22;" horiz-adv-x="321" 
d="M267 387l23 122h50l-23 -122h-50zM145 387l23 122h50l-23 -122h-50z" />
    <glyph glyph-name="numbersign" unicode="#" horiz-adv-x="487" 
d="M425 311l-19.5 -53.5l-18.5 -53.5h71l-6 -33h-77l-60 -172h-41l62 172h-129l-59 -172h-40l60 172h-72l6 33h77l37 107h-72l7 35h77l58 163h40l-57 -163h129l56 163h39l-56 -163h69l-7 -35h-74zM255 313l-38 -111h131l40 111h-133z" />
    <glyph glyph-name="dollar" unicode="$" horiz-adv-x="412" 
d="M407 138c-7.33301 -41.333 -28.3291 -74.335 -62.9961 -99.002s-76.667 -39.334 -126 -44.001l-15 -77h-35l15 77c-34 1.33301 -62.5 7.83301 -85.5 19.5s-44.167 28.167 -63.5 49.5l37 29c17.333 -20 35.166 -34.667 53.499 -44s40.166 -14.666 65.499 -15.999l38 209
c-1.33301 0 -2.83301 0.166992 -4.5 0.5s-3.16699 0.5 -4.5 0.5c-20 3.33301 -37.833 8.5 -53.5 15.5s-28.167 14.167 -37.5 21.5c-22 24 -29.667 55.333 -23 94c4 20 11 38.167 21 54.5s22.667 30.5 38 42.5s32.666 21.667 51.999 29s40.333 12 63 14l11 63h35l-11 -63
c28 -1.33301 51.833 -6.5 71.5 -15.5s38.167 -22.167 55.5 -39.5l-33 -27c-13.333 12.667 -27.333 23.5 -42 32.5s-34.334 14.167 -59.001 15.5l-38 -206l21 -3c24 -4.66699 42.5 -9.16699 55.5 -13.5s24.167 -11.166 33.5 -20.499c12.667 -12 21.5 -26.167 26.5 -42.5
s5.5 -35.166 1.5 -56.499zM272.004 479.998c-34 -3.33301 -62.167 -14.1689 -84.5 -32.502s-36.166 -42.166 -41.499 -71.499c-2.66699 -14 -2.83398 -26.667 -0.500977 -38s7.5 -20.666 15.5 -27.999c10 -10 21.5 -17.167 34.5 -21.5s26.167 -7.5 39.5 -9.5z
M365.004 135.995c2.66699 14 2.66699 27.167 0 39.5s-8.33398 22.5 -17.001 30.5c-9.33301 10.667 -20 17.5 -32 20.5s-24.667 5.5 -38 7.5c-3.33301 0 -6 0.333008 -8 1s-4.66699 1 -8 1l-37 -203c36.667 2.66699 67.834 13 93.501 31s41.167 42 46.5 72z" />
    <glyph glyph-name="percent" unicode="%" horiz-adv-x="592" 
d="M572 92c-5.33301 -29.333 -18.999 -53 -40.999 -71s-48 -27 -78 -27s-52.167 9 -66.5 27s-18.833 41.667 -13.5 71l14 76c5.33301 29.333 18.666 52.833 39.999 70.5s47 26.5 77 26.5s52.5 -8.83301 67.5 -26.5s19.833 -41.167 14.5 -70.5zM192.001 0h-35l339 505h36z
M298.001 338c-5.33301 -28 -18.667 -50.833 -40 -68.5s-46.666 -26.5 -75.999 -26.5c-30 0 -52.333 8.83301 -67 26.5s-19.334 40.5 -14.001 68.5l14 77c5.33301 29.333 18.5 52.833 39.5 70.5s46.5 26.5 76.5 26.5c29.333 0 51.5 -8.83301 66.5 -26.5
s19.833 -41.167 14.5 -70.5zM550 166c4 21.333 2.16699 38.334 -5.5 51.001s-23.167 19 -46.5 19c-22.667 0 -40.167 -6.33301 -52.5 -19s-20.5 -29.667 -24.5 -51l-13 -73c-4 -20.667 -2.16699 -37.334 5.5 -50.001s22.834 -19 45.501 -19c23.333 0 41.166 6.5 53.499 19.5
s20.5 29.5 24.5 49.5zM277 415.001c4 20 2.16699 36.167 -5.5 48.5s-22.834 18.5 -45.501 18.5s-40.167 -6.16699 -52.5 -18.5s-20.5 -28.5 -24.5 -48.5l-13 -75c-4 -21.333 -2.16699 -38 5.5 -50s22.834 -18 45.501 -18c22 0 39.333 6.16699 52 18.5s21 28.833 25 49.5z
" />
    <glyph glyph-name="ampersand" unicode="&#x26;" horiz-adv-x="534" 
d="M429 0l-40.9951 58.0029l-26.5 -18c-11 -7.33301 -24 -14.333 -39 -21s-31.667 -12.334 -50 -17.001s-37.833 -7 -58.5 -7c-50 0 -87.667 13.333 -113 40s-34 62 -26 106c4 20 10.833 37.667 20.5 53s21.167 29.166 34.5 41.499s28.166 23.666 44.499 33.999l50.5 30.5
c-10.667 15.333 -20.5 32.5 -29.5 51.5s-11.5 39.5 -7.5 61.5c2.66699 14.667 8 28.167 16 40.5s17.667 23 29 32s24.166 16.167 38.499 21.5s29.166 8 44.499 8c30.667 0 54.667 -9.83301 72 -29.5s23.333 -44.167 18 -73.5c-4 -21.333 -13.333 -39.5 -28 -54.5
s-31.334 -27.5 -50.001 -37.5c-6 -4 -11.667 -7.33301 -17 -10l-15 -8.5l-13 -7.5l120 -174c6.66699 8.66699 12.667 17 18 25s10 16.667 14 26s7.66699 20 11 32s6.66602 26 9.99902 42h41c-6 -32 -14.833 -61 -26.5 -87s-27.5 -48.667 -47.5 -68l30 -45l30 -45h-54z
M365.005 412.003c3.33301 18.667 -0.499023 34.502 -11.499 47.502s-25.833 19.5 -44.5 19.5c-19.333 0 -36.5 -6.16699 -51.5 -18.5s-24.167 -27.5 -27.5 -45.5c-2 -12.667 -0.333008 -25.5 5 -38.5s15.333 -31.167 30 -54.5c2.66699 1.33301 6 3.16602 10 5.49902l11 6.5
c4 2.66699 8 4.66699 12 6c14.667 9.33301 28.667 19.666 42 30.999s21.666 25 24.999 41zM245.006 272.005l-41.4971 -24.5c-13.667 -8.33301 -26.334 -17.5 -38.001 -27.5s-21.834 -21.333 -30.501 -34s-14.334 -27 -17.001 -43c-6 -34 0.333008 -61 19 -81s46 -30 82 -30
c21.333 0 44 3.66699 68 11s51.667 22 83 44z" />
    <glyph glyph-name="quotesingle" unicode="'" horiz-adv-x="199" 
d="M145 387l23 122h50l-23 -122h-50z" />
    <glyph glyph-name="parenleft" unicode="(" horiz-adv-x="223" 
d="M130 -74c-11.333 12.667 -20.168 23.1689 -26.501 31.502s-11.166 18.833 -14.499 31.5c-4 12 -5.83301 24.167 -5.5 36.5s1.5 24.5 3.5 36.5l81 436c2.66699 13.333 6 25.666 10 36.999s10.667 23.666 20 36.999c7.33301 12 15.833 22.333 25.5 31s22.167 19 37.5 31
l21 -27l-28.5 -25.5c-9 -7.66699 -16.5 -16.167 -22.5 -25.5c-6 -8.66699 -10.667 -18.167 -14 -28.5s-6.33301 -21.833 -9 -34.5l-79 -426c-4.66699 -24 -5 -44.667 -1 -62c3.33301 -10 7.83301 -18.833 13.5 -26.5l19.5 -25.5z" />
    <glyph glyph-name="parenright" unicode=")" horiz-adv-x="223" 
d="M158 62c-2 -12 -4.83203 -24.1699 -8.49902 -36.5029s-10.167 -24.5 -19.5 -36.5c-9.33301 -12.667 -18.833 -23.167 -28.5 -31.5s-21.167 -18.833 -34.5 -31.5l-25 29l29 25.5c8.66699 7.66699 16.334 16.167 23.001 25.5c6 8.66699 10.5 18 13.5 28s5.83301 21 8.5 33
l79 426c2 12 3.33301 23.167 4 33.5s-0.666016 19.833 -3.99902 28.5c-2.66699 9.33301 -6.83398 17.833 -12.501 25.5s-12.167 15.834 -19.5 24.501l35 29l23.5 -31c6.33301 -8.66699 12.166 -19 17.499 -31c4 -13.333 5.66699 -25.666 5 -36.999
s-2.33398 -23.666 -5.00098 -36.999l-81 -436v0z" />
    <glyph glyph-name="asterisk" unicode="*" horiz-adv-x="368" 
d="M348 298l-84 57l-18 -111h-35l22 111l-104 -57l-12 29l106 54l-86 53l22 30l84 -57l19 111h35l-23 -111l104 57l12 -30l-106 -53l86 -54z" />
    <glyph glyph-name="plus" unicode="+" horiz-adv-x="414" 
d="M262 189l-27 -142h-38l27 142h-143l6 37h143l27 142h38l-27 -142h141l-6 -37h-141z" />
    <glyph glyph-name="comma" unicode="," horiz-adv-x="203" 
d="M54 -107l30 161h54l-21 -108z" />
    <glyph glyph-name="hyphen" unicode="-" horiz-adv-x="336" 
d="M100 189l6 37h206l-6 -37h-206z" />
    <glyph glyph-name="period" unicode="." horiz-adv-x="208" 
d="M75 29c1.33301 9.33301 5.83105 17.166 13.498 23.499s16.167 9.5 25.5 9.5s16.5 -3.16699 21.5 -9.5s6.83301 -14.166 5.5 -23.499c-2 -9.33301 -6.66699 -17.166 -14 -23.499s-15.666 -9.5 -24.999 -9.5s-16.666 3.16699 -21.999 9.5s-7 14.166 -5 23.499z" />
    <glyph glyph-name="slash" unicode="/" horiz-adv-x="266" 
d="M30 -58h-40l348 677h42z" />
    <glyph glyph-name="zero" unicode="0" horiz-adv-x="365" 
d="M348 132c-4 -20 -11.001 -38.333 -21.001 -55s-22.333 -31 -37 -43s-31.5 -21.333 -50.5 -28s-38.833 -10 -59.5 -10c-42 0 -73.5 12.667 -94.5 38s-27.833 58 -20.5 98l45 244c4 20 10.833 38.167 20.5 54.5s21.834 30.333 36.501 42s31.167 20.667 49.5 27
s37.833 9.5 58.5 9.5c42 0 74 -12.333 96 -37s29.333 -56.667 22 -96zM350.999 372c5.33301 30 1.5 55 -11.5 75s-36.5 30 -70.5 30c-32.667 0 -59.5 -10 -80.5 -30s-34.167 -45 -39.5 -75l-44 -238c-5.33301 -28 -1.33301 -52.5 12 -73.5s36.333 -31.5 69 -31.5
c34 0 61.333 10.5 82 31.5s33.667 45.5 39 73.5z" />
    <glyph glyph-name="one" unicode="1" horiz-adv-x="365" 
d="M187 0l85 462l-112 -82l8 46l112 79h41l-93 -505h-41z" />
    <glyph glyph-name="two" unicode="2" horiz-adv-x="365" 
d="M43 0l6 34.0029l264 264c12 13.333 21.5 26.166 28.5 38.499s11.833 25.5 14.5 39.5c5.33301 30 0.833008 54.167 -13.5 72.5s-37.5 27.5 -69.5 27.5c-27.333 0 -52.666 -8 -75.999 -24s-38.333 -41.667 -45 -77h-40c3.33301 19.333 9.83301 37.166 19.5 53.499
s21.667 30.5 36 42.5s31 21.333 50 28s39.5 10 61.5 10c44 0 76.5 -11.833 97.5 -35.5s27.833 -56.167 20.5 -97.5c-3.33301 -19.333 -9.33301 -36.333 -18 -51s-21.334 -30.334 -38.001 -47.001l-244 -244h237l-6 -34h-285z" />
    <glyph glyph-name="three" unicode="3" horiz-adv-x="365" 
d="M349 134c-4 -22.667 -11.502 -42.6641 -22.502 -59.9971s-24.5 -32 -40.5 -44s-33.833 -21 -53.5 -27s-40.5 -9 -62.5 -9c-21.333 0 -40.5 2.66699 -57.5 8s-31.333 13.333 -43 24s-20.167 24.167 -25.5 40.5s-6.66602 35.5 -3.99902 57.5h41
c-2 -17.333 -0.5 -32 4.5 -44s12 -21.833 21 -29.5s19.667 -13.334 32 -17.001s25.166 -5.5 38.499 -5.5c32 0 60.333 9.5 85 28.5s40 44.833 46 77.5c6.66699 34 2.66699 60.5 -12 79.5s-42.667 28.5 -84 28.5h-9l7 34h9c36.667 0 65.167 8.5 85.5 25.5
s33.5 41.5 39.5 73.5c6 34 0.5 59.5 -16.5 76.5s-39.833 25.5 -68.5 25.5c-31.333 0 -57.5 -8.33301 -78.5 -25s-35.5 -39.334 -43.5 -68.001h-42c12 40 33.5 70.833 64.5 92.5s66.167 32.5 105.5 32.5c43.333 0 75.5 -11.833 96.5 -35.5s27.833 -56.5 20.5 -98.5
c-5.33301 -26 -15.166 -48.833 -29.499 -68.5s-35.5 -34.834 -63.5 -45.501c26.667 -9.33301 44.834 -24.833 54.501 -46.5s11.5 -48.5 5.5 -80.5z" />
    <glyph glyph-name="four" unicode="4" horiz-adv-x="365" 
d="M287 83l-15 -83h-41l15 83h-212l6 32l270 390h43l-269 -389h168l30 160h41l-30 -160h72l-6 -33h-72z" />
    <glyph glyph-name="five" unicode="5" horiz-adv-x="365" 
d="M360 165c-4.66699 -24 -11.165 -47.6699 -19.498 -71.0029s-24.166 -44.333 -47.499 -63c-14.667 -11.333 -31 -20.333 -49 -27s-38.667 -10 -62 -10c-22 0 -41.333 3 -58 9s-29.667 14.333 -39 25c-18 20 -24.667 48.333 -20 85h40
c-1.33301 -26.667 4.5 -47.5 17.5 -62.5s35.167 -22.5 66.5 -22.5c14 0 28.167 2.33301 42.5 7s26.5 11.334 36.5 20.001c18 15.333 30.333 32.833 37 52.5s11.667 38.834 15 57.501c2.66699 15.333 4.5 31 5.5 47s-0.833008 30.5 -5.5 43.5s-12.834 23.5 -24.501 31.5
s-28.167 12 -49.5 12c-24 0 -45.667 -4.66699 -65 -14s-33 -22.333 -41 -39h-36l48 259h258l-6 -33h-222l-32 -174c26.667 22.667 62 34 106 34c19.333 0 36.166 -2.5 50.499 -7.5s26.166 -12.167 35.499 -21.5c15.333 -18 23.333 -39.667 24 -65
s-1.33301 -49.666 -6 -72.999z" />
    <glyph glyph-name="six" unicode="6" horiz-adv-x="365" 
d="M359 149c-4 -21.333 -10.999 -41.332 -20.999 -59.999s-22.667 -35 -38 -49s-33 -25 -53 -33s-42 -12 -66 -12s-44.5 3.66699 -61.5 11s-30.667 17.666 -41 30.999s-17.166 29.166 -20.499 47.499s-3 38.5 1 60.5c3.33301 17.333 8.83301 34.666 16.5 51.999
s19.5 37 35.5 59l178 249h42l-156 -216c9.33301 2.66699 19.666 5 30.999 7s22.666 3 33.999 3c23.333 0 43.333 -3.83301 60 -11.5s30 -18.167 40 -31.5s16.667 -29.166 20 -47.499s3 -38.166 -1 -59.499zM317.001 147.001c2.66699 16 3.1709 31 1.50391 45
s-6 26.333 -13 37s-16.5 19.167 -28.5 25.5s-27 9.5 -45 9.5c-33.333 0 -61.833 -10.5 -85.5 -31.5s-38.834 -49.5 -45.501 -85.5c-6.66699 -34 -2.33398 -62.333 12.999 -85s39.666 -34 72.999 -34s61.666 11.333 84.999 34s38.333 51 45 85z" />
    <glyph glyph-name="seven" unicode="7" horiz-adv-x="365" 
d="M147 0h-42l276 472h-200l-15 -79h-40l21 112h283l-6 -32z" />
    <glyph glyph-name="eight" unicode="8" horiz-adv-x="365" 
d="M361 137c-4 -20 -11.5 -38.665 -22.5 -55.998s-24.5 -32.333 -40.5 -45s-34.167 -22.5 -54.5 -29.5s-41.5 -10.5 -63.5 -10.5c-21.333 0 -40.666 3.5 -57.999 10.5s-31.833 16.833 -43.5 29.5s-19.834 27.667 -24.501 45s-5 36 -1 56c5.33301 30 17.833 55.5 37.5 76.5
s42.834 37.5 69.501 49.5c-21.333 13.333 -36.333 29.166 -45 47.499s-10.334 40.833 -5.00098 67.5c3.33301 18.667 9.83301 36.167 19.5 52.5s21.834 30.166 36.501 41.499s31.167 20.333 49.5 27s38.166 10 59.499 10c42.667 0 75 -12.333 97 -37s29.667 -56 23 -94
c-5.33301 -25.333 -16 -47.5 -32 -66.5s-36.667 -35.167 -62 -48.5c23.333 -12 40.5 -28.5 51.5 -49.5s13.833 -46.5 8.5 -76.5zM354 378.002c5.33301 28.667 0.333984 52.334 -14.999 71.001s-38.666 28 -69.999 28c-30 0 -56 -9.33301 -78 -28
s-35.667 -42.334 -41 -71.001c-5.33301 -29.333 -0.5 -53 14.5 -71s37.5 -27 67.5 -27c31.333 0 58.166 9 80.499 27s36.166 41.667 41.499 71zM320.001 139.002c6 30.667 0.00292969 56.334 -17.9971 77.001s-43.333 31 -76 31c-16 0 -31.167 -2.83301 -45.5 -8.5
s-27.5 -13.334 -39.5 -23.001s-22.167 -21 -30.5 -34s-13.833 -27.167 -16.5 -42.5c-2.66699 -14.667 -2.33398 -28.5 0.999023 -41.5s9.16602 -24.5 17.499 -34.5s18.666 -17.833 30.999 -23.5s26.5 -8.5 42.5 -8.5s31.5 2.83301 46.5 8.5s28.5 13.5 40.5 23.5
s22.167 21.5 30.5 34.5s13.833 26.833 16.5 41.5z" />
    <glyph glyph-name="nine" unicode="9" horiz-adv-x="365" 
d="M98 355c4 21.333 10.9971 41.333 20.9971 60s22.667 35 38 49s33 25 53 33s42 12 66 12c48 0 82.333 -14 103 -42s27 -63.667 19 -107c-3.33301 -17.333 -8.83301 -34.833 -16.5 -52.5s-19.167 -37.167 -34.5 -58.5l-179 -249h-41l156 216
c-9.33301 -2.66699 -19.666 -5 -30.999 -7s-22.666 -3 -33.999 -3c-23.333 0 -43.333 3.83301 -60 11.5s-30.167 18.167 -40.5 31.5s-17.166 29 -20.499 47s-3 37.667 1 59zM139.997 358c-3.33301 -16 -4.00098 -30.998 -2.00098 -44.998s6.5 -26.333 13.5 -37
s16.5 -19.167 28.5 -25.5s27 -9.5 45 -9.5c33.333 0 61.833 10.5 85.5 31.5s38.834 49.5 45.501 85.5c6 34 1.66699 62.333 -13 85s-39 34 -73 34c-16 0 -31.333 -3 -46 -9s-27.667 -14.333 -39 -25s-21 -23.334 -29 -38.001s-13.333 -30.334 -16 -47.001z" />
    <glyph glyph-name="colon" unicode=":" horiz-adv-x="230" 
d="M147 293c1.33301 9.33301 5.83105 17.166 13.498 23.499s16.167 9.5 25.5 9.5s16.5 -3.16699 21.5 -9.5s6.83301 -14.166 5.5 -23.499c-2 -9.33301 -6.66699 -17.166 -14 -23.499s-15.666 -9.5 -24.999 -9.5s-16.666 3.16699 -21.999 9.5s-7 14.166 -5 23.499zM97.998 29
c1.33301 9.33301 5.83105 17.166 13.498 23.499s16.167 9.5 25.5 9.5s16.5 -3.16699 21.5 -9.5s6.83301 -14.166 5.5 -23.499c-2 -9.33301 -6.66699 -17.166 -14 -23.499s-15.666 -9.5 -24.999 -9.5s-16.666 3.16699 -21.999 9.5s-7 14.166 -5 23.499z" />
    <glyph glyph-name="semicolon" unicode=";" horiz-adv-x="230" 
d="M79 -107l30 161h53l-21 -109zM147 293c1.33301 9.33301 5.83105 17.166 13.498 23.499s16.167 9.5 25.5 9.5s16.5 -3.16699 21.5 -9.5s6.83301 -14.166 5.5 -23.499c-2 -9.33301 -6.66699 -17.166 -14 -23.499s-15.666 -9.5 -24.999 -9.5s-16.666 3.16699 -21.999 9.5
s-7 14.166 -5 23.499z" />
    <glyph glyph-name="less" unicode="&#x3c;" horiz-adv-x="413" 
d="M384 88l-299 124l7 37l345 125l-8 -41l-293 -102l255 -102z" />
    <glyph glyph-name="equal" unicode="=" horiz-adv-x="414" 
d="M92 249l7 37h322l-7 -37h-322zM69 128l7 37h322l-7 -37h-322z" />
    <glyph glyph-name="greater" unicode="&#x3e;" horiz-adv-x="413" 
d="M69 129l293 102l-255 102l8 41l299 -125l-7 -37l-345 -124z" />
    <glyph glyph-name="question" unicode="?" horiz-adv-x="354" 
d="M387 388c-3.33301 -16.667 -9.33203 -31.668 -17.999 -45.001s-18.667 -26.666 -30 -39.999l-40.5 -45l-39.5 -46c-6 -6 -10.667 -12.833 -14 -20.5s-5.66602 -14.167 -6.99902 -19.5l-6 -35h-41l6 33c2.66699 13.333 6.66699 24.666 12 33.999
s12.666 19.666 21.999 30.999l78 88c9.33301 10.667 17.5 21 24.5 31s11.5 21.333 13.5 34c2.66699 12.667 2.5 24.667 -0.5 36s-8 21.166 -15 29.499s-15.833 14.833 -26.5 19.5s-22.667 7 -36 7c-14 0 -27.167 -2.5 -39.5 -7.5s-23.5 -11.833 -33.5 -20.5
s-18.333 -18.5 -25 -29.5s-11 -22.833 -13 -35.5h-40c3.33301 17.333 9.66602 33.833 18.999 49.5s21 29.334 35 41.001s29.833 20.834 47.5 27.501s36.5 10 56.5 10c19.333 0 36.666 -3.16699 51.999 -9.5s28 -15.166 38 -26.499s16.833 -24.833 20.5 -40.5
s3.83398 -32.5 0.500977 -50.5zM160.001 27.999c1.33301 9.33301 5.33203 16.833 11.999 22.5s14.667 8.5 24 8.5s16.333 -2.83301 21 -8.5s6.33398 -13.167 5.00098 -22.5c-2 -9.33301 -6.33301 -16.833 -13 -22.5s-14.667 -8.5 -24 -8.5s-16.333 2.83301 -21 8.5
s-6 13.167 -4 22.5z" />
    <glyph glyph-name="at" unicode="@" horiz-adv-x="629" 
d="M435 256l9.00488 26c2.66699 8 4.66699 16.333 6 25c4 21.333 2.66699 39.333 -4 54s-23.334 22 -50.001 22c-17.333 0 -32.833 -3.83301 -46.5 -11.5s-25.834 -17.667 -36.501 -30s-19.834 -26 -27.501 -41s-14.167 -29.833 -19.5 -44.5
c-6 -16.667 -10.667 -32.667 -14 -48c-4 -21.333 -2.66699 -39.5 4 -54.5s23 -22.5 49 -22.5c18 0 34 3.66699 48 11s26.167 17 36.5 29s19.166 25.333 26.499 40s13.666 29.667 18.999 45zM492.005 42c-27.333 -17.333 -56.835 -30.999 -88.502 -40.999
s-63.5 -15 -95.5 -15c-37.333 0 -71.166 6.66699 -101.499 20s-55.166 31.833 -74.499 55.5s-32.666 52 -39.999 85s-6.33301 69.5 3 109.5c8.66699 37.333 23.5 72.5 44.5 105.5s46.167 61.667 75.5 86s61.666 43.5 96.999 57.5s71.666 21 108.999 21
c38.667 0 72.834 -6.5 102.501 -19.5s54 -31 73 -54s31.833 -50.333 38.5 -82s6 -66.5 -2 -104.5c-5.33301 -22.667 -13 -44 -23 -64s-22.333 -37.333 -37 -52s-31.5 -26.334 -50.5 -35.001s-39.5 -13 -61.5 -13c-19.333 0 -33.666 4.5 -42.999 13.5
s-14.333 20.167 -15 33.5c-21.333 -20 -40.833 -32.833 -58.5 -38.5s-35.167 -8.5 -52.5 -8.5c-18 0 -32.667 3 -44 9s-20 14.167 -26 24.5s-9.5 22.5 -10.5 36.5s0.166992 28.667 3.5 44c1.33301 6.66699 3 13.334 5 20.001l6 20c8 22 17.5 42.333 28.5 61
s23.833 35 38.5 49s31 25 49 33s38 12 60 12c16.667 0 31.167 -2.66699 43.5 -8s22.166 -16 29.499 -32l13 33h36l-74 -205c-8.66699 -24 -11 -41.333 -7 -52s13.333 -16 28 -16c15.333 0 29.833 4 43.5 12s26 18.5 37 31.5s20.333 27.5 28 43.5s13.167 32 16.5 48
c6.66699 31.333 7.16699 60.833 1.5 88.5s-16.5 51.667 -32.5 72s-36.833 36.333 -62.5 48s-54.834 17.5 -87.501 17.5c-30.667 0 -61 -5.66699 -91 -17s-57.833 -27.333 -83.5 -48s-47.834 -45.5 -66.501 -74.5s-32.334 -61.167 -41.001 -96.5
c-7.33301 -32.667 -8.16602 -63.334 -2.49902 -92.001s16.667 -53.5 33 -74.5s37.333 -37.667 63 -50s54.834 -18.5 87.501 -18.5c26.667 0 54.334 4.5 83.001 13.5s54.667 21.5 78 37.5z" />
    <glyph glyph-name="A" unicode="A" horiz-adv-x="431" 
d="M385 0l-24 122h-246l-68 -122h-45l288 505h37l102 -505h-44zM299 448l-164 -290h220z" />
    <glyph glyph-name="B" unicode="B" horiz-adv-x="468" 
d="M444 138c-8.66699 -46 -29.1699 -80.499 -61.5029 -103.499s-72.166 -34.5 -119.499 -34.5h-193l93 505h188c44 0 78.5 -11.5 103.5 -34.5s33.833 -55.5 26.5 -97.5c-5.33301 -26 -16.666 -49.333 -33.999 -70s-40 -35.334 -68 -44.001
c25.333 -9.33301 43.833 -24.5 55.5 -45.5s14.834 -46.167 9.50098 -75.5zM437.997 373.001c2.66699 17.333 2.16504 32.166 -1.50195 44.499s-10.167 22.333 -19.5 30s-20.666 13.334 -33.999 17.001s-28 5.5 -44 5.5h-139l-36 -194h139c32 0 60.833 7.66699 86.5 23
s41.834 40 48.501 74zM402.995 138.001c6 32 -0.166992 57 -18.5 75s-45.833 27 -82.5 27h-145l-38 -204h145c36.667 0 67.5 9 92.5 27s40.5 43 46.5 75z" />
    <glyph glyph-name="C" unicode="C" horiz-adv-x="439" 
d="M422 144c-16.667 -46 -42.832 -82.3369 -78.499 -109.004s-75.834 -40 -120.501 -40c-24 0 -46.333 4.5 -67 13.5s-37.667 21.833 -51 38.5c-9.33301 11.333 -16 23.166 -20 35.499s-6 26.333 -6 42s1.5 33.834 4.5 54.501s7.16699 45.334 12.5 74.001
s10.333 53.334 15 74.001s9.83398 38.834 15.501 54.501s12.834 29.5 21.501 41.5s19.667 23.667 33 35c20 17.333 41.833 30.333 65.5 39s47.5 13 71.5 13c45.333 0 81 -13.167 107 -39.5s38.333 -62.833 37 -109.5h-41c-0.666992 35.333 -10.667 63 -30 83s-46 30 -80 30
c-36.667 0 -70.334 -12.667 -101.001 -38c-11.333 -9.33301 -20.5 -19 -27.5 -29s-13.167 -22 -18.5 -36s-10.166 -30.5 -14.499 -49.5s-8.83301 -41.833 -13.5 -68.5s-8.33398 -49.5 -11.001 -68.5s-4 -35.5 -4 -49.5s1.66699 -26 5 -36s8.66602 -19.667 15.999 -29
c22 -26 51 -39 87 -39c34 0 64.833 10.333 92.5 31s48.167 48.334 61.5 83.001h38z" />
    <glyph glyph-name="D" unicode="D" horiz-adv-x="483" 
d="M482 259c-6 -33.333 -13.833 -65.498 -23.5 -96.498s-23 -58.5 -40 -82.5s-39 -43.333 -66 -58s-61.167 -22 -102.5 -22h-180l93 505h180c40 0 70.833 -6.66699 92.5 -20s37 -31.333 46 -54s12.833 -48.834 11.5 -78.501s-5 -60.834 -11 -93.501zM440 259.002
c4.66699 28 7.66895 54.667 9.00195 80s-1.5 47.666 -8.5 66.999s-19.333 34.833 -37 46.5s-42.834 17.5 -75.501 17.5h-128l-81 -434h128c34.667 0 63.167 6.33301 85.5 19s40.666 29.334 54.999 50.001s25.333 44.5 33 71.5s14.167 54.5 19.5 82.5z" />
    <glyph glyph-name="E" unicode="E" horiz-adv-x="421" 
d="M70 0l93 505h324l-6 -35h-281l-37 -196h239l-6 -36h-239l-38 -202h281l-6 -36h-324z" />
    <glyph glyph-name="F" unicode="F" horiz-adv-x="396" 
d="M200 470l-38 -205h230l-7 -38h-230l-42 -227h-43l93 505h314l-6 -35h-271z" />
    <glyph glyph-name="G" unicode="G" horiz-adv-x="444" 
d="M429 176c-10 -50.667 -31.3311 -91.3359 -63.998 -122.003c-20 -17.333 -42.5 -31.5 -67.5 -42.5s-50.5 -16.5 -76.5 -16.5c-24 0 -46.333 4.5 -67 13.5s-37.667 21.833 -51 38.5c-9.33301 11.333 -16 23.166 -20 35.499s-6 26.333 -6 42s1.5 33.834 4.5 54.501
s7.16699 45.334 12.5 74.001s10.333 53.334 15 74.001s9.83398 38.834 15.501 54.501s12.834 29.5 21.501 41.5s19.667 23.667 33 35c20 17.333 41.833 30.333 65.5 39s47.5 13 71.5 13c44.667 0 80.167 -13.5 106.5 -40.5s39.166 -63.167 38.499 -108.5h-40
c-1.33301 35.333 -11.833 63 -31.5 83s-46.5 30 -80.5 30c-16.667 0 -34.334 -3.66699 -53.001 -11s-36.667 -18 -54 -32c-9.33301 -8.66699 -17.166 -18.167 -23.499 -28.5s-12 -22.5 -17 -36.5s-9.66699 -30.167 -14 -48.5s-8.83301 -39.833 -13.5 -64.5
c-4.66699 -26.667 -8.33398 -49.5 -11.001 -68.5s-4 -35.5 -4 -49.5s1.66699 -26 5 -36s8.66602 -19.667 15.999 -29c22 -26 51 -39 87 -39c18.667 0 38.167 4.5 58.5 13.5s38.166 20.833 53.499 35.5c14 14 25 28.833 33 44.5s14 34.167 18 55.5l8 44h-136l7 35h176
l-16 -83v0z" />
    <glyph glyph-name="H" unicode="H" horiz-adv-x="499" 
d="M387 0l44 238h-274l-44 -238h-43l93 505h43l-43 -231h274l43 231h42l-93 -505h-42z" />
    <glyph glyph-name="I" unicode="I" horiz-adv-x="193" 
d="M75 0l93 505h42l-93 -505h-42z" />
    <glyph glyph-name="J" unicode="J" horiz-adv-x="344" 
d="M309 156c-9.33301 -49.333 -30.6689 -88.5 -64.002 -117.5s-74.666 -43.5 -123.999 -43.5c-47.333 0 -83.666 15.667 -108.999 47l34 28c9.33301 -10.667 19.5 -19.5 30.5 -26.5s28.167 -10.5 51.5 -10.5c38 0 69 11.333 93 34s40 55 48 97l63 341h42l-65 -349v0z" />
    <glyph glyph-name="K" unicode="K" horiz-adv-x="457" 
d="M408 0l-117 282l-153 -145l-25 -137h-43l93 505h43l-58 -312l325 312h51l-200 -194l135 -311h-51z" />
    <glyph glyph-name="L" unicode="L" horiz-adv-x="392" 
d="M70 0l93 505h43l-86 -467h271l-7 -38h-314z" />
    <glyph glyph-name="M" unicode="M" horiz-adv-x="567" 
d="M454 0l69 376l14 56l-22 -46l-197 -312h-41l-83 316l-4 43l-9 -57l-69 -376h-42l93 505h39l104 -392l245 392h38l-93 -505h-42z" />
    <glyph glyph-name="N" unicode="N" horiz-adv-x="511" 
d="M402 0l-210 436l-80 -436h-42l93 505h39l209 -436l81 436h42l-93 -505h-39z" />
    <glyph glyph-name="O" unicode="O" horiz-adv-x="446" 
d="M443 253c-5.33301 -28.667 -10.1699 -53.334 -14.5029 -74.001s-9.5 -38.834 -15.5 -54.501s-13.167 -29.667 -21.5 -42s-19.5 -24.166 -33.5 -35.499c-19.333 -16.667 -40.666 -29.5 -63.999 -38.5s-47.333 -13.5 -72 -13.5c-24 0 -46.333 4.5 -67 13.5
s-37.667 21.833 -51 38.5c-9.33301 11.333 -16 23.166 -20 35.499s-6 26.333 -6 42s1.5 33.834 4.5 54.501s7.16699 45.334 12.5 74.001s10.333 53.334 15 74.001s9.83398 38.834 15.501 54.501s12.834 29.5 21.501 41.5s19.667 23.667 33 35
c20 17.333 41.833 30.333 65.5 39s47.5 13 71.5 13c24.667 0 47 -4.33301 67 -13s36.667 -21.667 50 -39c9.33301 -11.333 16.166 -23 20.499 -35s6.5 -25.833 6.5 -41.5s-1.66699 -33.834 -5 -54.501s-7.66602 -45.334 -12.999 -74.001zM402.996 253
c4.66699 26.667 8.5 49.5 11.5 68.5s4.5 35.5 4.5 49.5s-1.66699 26 -5 36s-8.66602 19.667 -15.999 29c-10.667 12.667 -23.667 22.167 -39 28.5s-31.666 9.5 -48.999 9.5c-36.667 0 -70.334 -12.667 -101.001 -38c-11.333 -9.33301 -20.5 -19 -27.5 -29
s-13.167 -22 -18.5 -36s-10.166 -30.5 -14.499 -49.5s-8.83301 -41.833 -13.5 -68.5s-8.33398 -49.5 -11.001 -68.5s-4 -35.5 -4 -49.5s1.66699 -26 5 -36s8.66602 -19.667 15.999 -29c22 -26 51 -39 87 -39c36.667 0 70.667 13 102 39c10.667 9.33301 19.667 19 27 29
s13.5 22 18.5 36s9.66699 30.5 14 49.5s8.83301 41.833 13.5 68.5z" />
    <glyph glyph-name="P" unicode="P" horiz-adv-x="437" 
d="M483 359c-8.66699 -46 -30.3311 -81.667 -64.998 -107s-75.334 -38 -122.001 -38h-144l-39 -214h-43l93 505h187c46.667 0 82.667 -12.5 108 -37.5s33.666 -61.167 24.999 -108.5zM441.003 359c6.66699 37.333 0.166992 65.167 -19.5 83.5s-47.167 27.5 -82.5 27.5h-139
l-41 -221h139c36 0 67.167 9.16699 93.5 27.5s42.833 45.833 49.5 82.5z" />
    <glyph glyph-name="Q" unicode="Q" horiz-adv-x="446" 
d="M443 253c-4 -24 -8.00195 -45.167 -12.002 -63.5s-8.33301 -34.833 -13 -49.5s-10 -27.834 -16 -39.501s-13.333 -22.167 -22 -31.5l60 -68l-34 -27l-57 65c-18.667 -14 -39 -24.833 -61 -32.5s-44 -11.5 -66 -11.5c-24 0 -46.333 4.5 -67 13.5s-37.667 21.833 -51 38.5
c-9.33301 11.333 -16 23.166 -20 35.499s-6 26.333 -6 42s1.5 33.834 4.5 54.501s7.16699 45.334 12.5 74.001s10.333 53.334 15 74.001s9.83398 38.834 15.501 54.501s12.834 29.5 21.501 41.5s19.667 23.667 33 35c20 17.333 41.833 30.333 65.5 39s47.5 13 71.5 13
c24.667 0 47 -4.33301 67 -13s36.667 -21.667 50 -39c9.33301 -11.333 16.166 -23 20.499 -35s6.5 -25.833 6.5 -41.5s-1.66699 -33.834 -5 -54.501s-7.66602 -45.334 -12.999 -74.001zM402.998 253c4.66699 26.667 8.49805 49.5 11.498 68.5s4.5 35.5 4.5 49.5
s-1.66699 26 -5 36s-8.66602 19.667 -15.999 29c-10.667 12.667 -23.667 22.167 -39 28.5s-31.666 9.5 -48.999 9.5c-36.667 0 -70.334 -12.667 -101.001 -38c-11.333 -9.33301 -20.5 -19 -27.5 -29s-13.167 -22 -18.5 -36s-10.166 -30.5 -14.499 -49.5
s-8.83301 -41.833 -13.5 -68.5s-8.33398 -49.5 -11.001 -68.5s-4 -35.5 -4 -49.5s1.66699 -26 5 -36s8.66602 -19.667 15.999 -29c22 -26 51 -39 87 -39c16.667 0 33.334 3 50.001 9s32.334 14.667 47.001 26l-56 66l34 27l52 -62c11.333 15.333 20.333 34.833 27 58.5
s13.667 56.167 21 97.5z" />
    <glyph glyph-name="R" unicode="R" horiz-adv-x="467" 
d="M383 0l-82.998 231.002h-145l-42 -231h-43l93 505h204c22 0 41.667 -2.83301 59 -8.5s31.666 -14.334 42.999 -26.001s19.333 -25.834 24 -42.501s5 -36 1 -58c-6.66699 -36.667 -23.5 -67 -50.5 -91s-59.5 -39.667 -97.5 -47l44 -116
c15.333 -39.333 29.666 -78 42.999 -116h-50zM451.002 369.002c6 34 0 59.333 -18 76s-44 25 -78 25h-155l-38 -202h155c34 0 63.167 8.33301 87.5 25s39.833 42 46.5 76z" />
    <glyph glyph-name="S" unicode="S" horiz-adv-x="394" 
d="M389 136c-8 -42.667 -29.5029 -76.832 -64.5029 -102.499s-78.833 -38.5 -131.5 -38.5c-38.667 0 -70 5.5 -94 16.5s-45.667 28.167 -65 51.5l36 30c18.667 -24 37.667 -40 57 -48s44 -12 74 -12c40 0 72.833 8.83301 98.5 26.5s41.5 42.5 47.5 74.5
c2.66699 16 2.66699 29.5 0 40.5s-7.5 20.333 -14.5 28s-16.167 13.667 -27.5 18s-24 7.83301 -38 10.5l-57 9c-38 6.66699 -67.167 20.167 -87.5 40.5s-26.833 50.5 -19.5 90.5c8 42.667 28.333 76.334 61 101.001s73.667 37 123 37c32 0 58 -4.33301 78 -13
s39.333 -22.667 58 -42l-31 -26c-13.333 14 -28.166 25.333 -44.499 34s-39.5 13 -69.5 13c-36 0 -66 -9.16699 -90 -27.5s-39 -43.5 -45 -75.5c-2.66699 -14.667 -2.16699 -27.334 1.5 -38.001s9.33398 -19.667 17.001 -27s17 -13.5 28 -18.5s23.167 -8.83301 36.5 -11.5
l51 -8c18.667 -3.33301 35.834 -8.33301 51.501 -15s28.5 -15.334 38.5 -26.001s17.167 -23.5 21.5 -38.5s4.5 -32.833 0.5 -53.5z" />
    <glyph glyph-name="T" unicode="T" horiz-adv-x="373" 
d="M293 469l-86 -469h-43l86 469h-157l7 36h359l-7 -36h-159z" />
    <glyph glyph-name="U" unicode="U" horiz-adv-x="474" 
d="M443 175c-4.66699 -26 -13.001 -50 -25.001 -72s-27 -41 -45 -57s-38.667 -28.5 -62 -37.5s-48.333 -13.5 -75 -13.5c-27.333 0 -50.833 4.5 -70.5 13.5s-35.5 21.5 -47.5 37.5s-20 35 -24 57s-3.66699 46 1 72l61 330h42l-60 -324c-8 -44 -3.16699 -79.667 14.5 -107
s47.834 -41 90.501 -41c42 0 76.833 13.667 104.5 41s45.5 63 53.5 107l60 324h43l-61 -330v0z" />
    <glyph glyph-name="V" unicode="V" horiz-adv-x="430" 
d="M233 0h-37l-80 505h43l68 -436l230 436h44z" />
    <glyph glyph-name="W" unicode="W" horiz-adv-x="642" 
d="M488 0h-43l-43 438l-206 -438h-42l-39 505h42l31 -438l205 438h41l43 -438l192 438h44z" />
    <glyph glyph-name="X" unicode="X" horiz-adv-x="388" 
d="M331 0l-97 222l-180 -222h-47l209 258l-105 247h48l88 -210l167 210h47l-196 -247l58 -128.5l58 -129.5h-50z" />
    <glyph glyph-name="Y" unicode="Y" horiz-adv-x="399" 
d="M259 210l-38 -210h-42l38 210l-102 295h45l88 -254l179 254h44z" />
    <glyph glyph-name="Z" unicode="Z" horiz-adv-x="411" 
d="M43 0l7 43l359 427h-268l6 35h314l-6 -35l-363 -434h282l-6 -36h-325z" />
    <glyph glyph-name="bracketleft" unicode="[" horiz-adv-x="228" 
d="M65 -58l125 677h117l-6 -36h-76l-113 -606h76l-6 -35h-117z" />
    <glyph glyph-name="backslash" unicode="\" horiz-adv-x="266" 
d="M213 -58l-99 677h41l100 -677h-42z" />
    <glyph glyph-name="bracketright" unicode="]" horiz-adv-x="228" 
d="M25 -58l6 33h78l113 611h-78l6 33h116l-125 -677h-116z" />
    <glyph glyph-name="asciicircum" unicode="^" horiz-adv-x="405" 
d="M356 276l-68 191l-136 -191h-42l168 233h37l81 -233h-40z" />
    <glyph glyph-name="underscore" unicode="_" horiz-adv-x="405" 
d="M-23 -126l6 30h404l-6 -30h-404z" />
    <glyph glyph-name="grave" unicode="`" horiz-adv-x="394" 
d="M263 408l-62 116h53l54 -116h-45z" />
    <glyph glyph-name="a" unicode="a" horiz-adv-x="381" 
d="M316 180h-118.999c-64.667 0 -101.334 -25.333 -110.001 -76c-4.66699 -24.667 -0.166992 -43.167 13.5 -55.5s37.5 -18.5 71.5 -18.5c17.333 0 34.333 1.66699 51 5s32.667 11.333 48 24c16.667 13.333 28.667 38 36 74zM323.001 0l-40 0.00292969l7 38
c-19.333 -16 -38.166 -27.167 -56.499 -33.5s-40.833 -9.5 -67.5 -9.5c-40.667 0 -72.5 8 -95.5 24s-30.833 44 -23.5 84c6.66699 35.333 23.334 62.666 50.001 81.999s61 29 103 29h122l9 45c5.33301 29.333 1.16602 51.666 -12.501 66.999s-39.834 23 -78.501 23
c-26 0 -47.667 -3.83301 -65 -11.5s-35.333 -19.834 -54 -36.501l-24 26c21.333 18 43 32 65 42s50.333 15 85 15c50 0 85 -10.833 105 -32.5s26.333 -52.5 19 -92.5z" />
    <glyph glyph-name="b" unicode="b" horiz-adv-x="403" 
d="M400 189c-4.66699 -24 -11.501 -47.6689 -20.501 -71.002s-20.833 -44.166 -35.5 -62.499s-32.667 -33 -54 -44s-46.333 -16.5 -75 -16.5c-21.333 0 -41.166 3.5 -59.499 10.5s-33.5 21.5 -45.5 43.5l-9 -49h-41l102 551h41l-41 -221c20.667 22 41.334 36.5 62.001 43.5
s41.667 10.5 63 10.5c29.333 0 52.5 -5.5 69.5 -16.5s29.5 -25.667 37.5 -44s12.167 -39.166 12.5 -62.499s-1.83398 -47.333 -6.50098 -72zM356.999 188.998c3.33301 20 5.5 39.5 6.5 58.5s-1.16699 36 -6.5 51s-14.5 27.167 -27.5 36.5s-31.5 14 -55.5 14
s-44 -4.66699 -60 -14s-29.167 -21.5 -39.5 -36.5s-18.5 -32 -24.5 -51s-10.667 -38.5 -14 -58.5c-4 -19.333 -6.5 -38.5 -7.5 -57.5s1 -36 6 -51s13.667 -27.167 26 -36.5s30.5 -14 54.5 -14s44.167 4.66699 60.5 14s30 21.5 41 36.5s19.5 32 25.5 51s11 38.167 15 57.5z
" />
    <glyph glyph-name="c" unicode="c" horiz-adv-x="352" 
d="M337 54c-12.667 -11.333 -24.3311 -20.832 -34.998 -28.499s-21.167 -13.834 -31.5 -18.501s-21 -7.83398 -32 -9.50098s-22.833 -2.5 -35.5 -2.5c-52 0 -89.5 17.333 -112.5 52s-28.833 82 -17.5 142c11.333 60.667 34.833 108.334 70.5 143.001s79.5 52 131.5 52
c25.333 0 46.166 -4 62.499 -12s32.833 -23.333 49.5 -46l-32 -25c-12.667 18 -25.5 30.5 -38.5 37.5s-29.167 10.5 -48.5 10.5c-22.667 0 -42.834 -4.16699 -60.501 -12.5s-32.834 -19.833 -45.501 -34.5s-23.167 -31.667 -31.5 -51s-14.5 -40 -18.5 -62
s-5.5 -42.5 -4.5 -61.5s5.16699 -35.833 12.5 -50.5s18.333 -26.167 33 -34.5s33.334 -12.5 56.001 -12.5c19.333 0 36.833 3.5 52.5 10.5s33.167 19.833 52.5 38.5l23 -25v0z" />
    <glyph glyph-name="d" unicode="d" horiz-adv-x="403" 
d="M74 189c4.66699 24.667 11.3311 48.6689 19.998 72.002s20.334 44.166 35.001 62.499s32.5 33 53.5 44s46.167 16.5 75.5 16.5c21.333 0 41 -3.5 59 -10.5s33.667 -21.5 47 -43.5l41 221h40l-102 -551h-40l9 49c-21.333 -22 -42.333 -36.5 -63 -43.5
s-41.667 -10.5 -63 -10.5c-29.333 0 -52.333 5.5 -69 16.5s-29 25.667 -37 44s-12.167 39.166 -12.5 62.499s1.83398 47 6.50098 71zM115.997 189.002c-4 -19.333 -6.33301 -38.5 -7 -57.5s1.5 -36 6.5 -51s14.167 -27.167 27.5 -36.5s32 -14 56 -14s44 4.66699 60 14
s29.167 21.5 39.5 36.5s18.5 32 24.5 51s11 38.167 15 57.5c3.33301 20 5.5 39.5 6.5 58.5s-1 36 -6 51s-13.667 27.167 -26 36.5s-30.5 14 -54.5 14s-44.333 -4.66699 -61 -14s-30.334 -21.5 -41.001 -36.5s-19.167 -32 -25.5 -51s-11.166 -38.5 -14.499 -58.5z" />
    <glyph glyph-name="e" unicode="e" horiz-adv-x="384" 
d="M112 180c-9.33301 -48 -5.83301 -84.832 10.5 -110.499s45.166 -38.5 86.499 -38.5c23.333 0 43.333 3.66699 60 11s34.667 19 54 35l27 -23c-23.333 -19.333 -46.166 -34 -68.499 -44s-49.5 -15 -81.5 -15c-52.667 0 -89.667 16.5 -111 49.5s-26 81.167 -14 144.5
c11.333 61.333 33.5 109.166 66.5 143.499s73.5 51.5 121.5 51.5s82.667 -16.167 104 -48.5s26.333 -77.833 15 -136.5l-3 -19h-267zM345 213.001c4 18 5.00195 35.168 3.00195 51.501s-6.66699 30.666 -14 42.999s-17.5 22.333 -30.5 30s-28.833 11.5 -47.5 11.5
s-35.834 -3.83301 -51.501 -11.5s-29.5 -17.834 -41.5 -30.501s-21.833 -27.167 -29.5 -43.5s-12.834 -33.166 -15.501 -50.499h227z" />
    <glyph glyph-name="f" unicode="f" horiz-adv-x="208" 
d="M176 350l-64 -350h-40l64 350h-51l6 30h51l13 71c5.33301 29.333 17.5 53.333 36.5 72s43.5 28 73.5 28h35l-7 -36h-27c-39.333 0 -63 -21 -71 -63l-13 -72h86l-6 -30h-86z" />
    <glyph glyph-name="g" unicode="g" horiz-adv-x="403" 
d="M338 -22c-4 -24 -11.334 -46 -22.001 -66s-24.167 -37.167 -40.5 -51.5s-35.166 -25.666 -56.499 -33.999s-45 -12.5 -71 -12.5c-14.667 0 -27.5 1 -38.5 3s-21 5.16699 -30 9.5s-17.667 9.66602 -26 15.999s-16.833 13.833 -25.5 22.5l32 26
c6.66699 -6.66699 13 -12.5 19 -17.5s12.5 -9.33301 19.5 -13s15 -6.33398 24 -8.00098s19.833 -2.5 32.5 -2.5c42 0 74.667 12.5 98 37.5s38.666 56.167 45.999 93.5l13 68c-21.333 -22 -42.333 -36.5 -63 -43.5s-42 -10.5 -64 -10.5c-29.333 0 -52.333 5.5 -69 16.5
s-29 25.5 -37 43.5s-12 38.667 -12 62s2.33301 47.333 7 72s11.334 48.834 20.001 72.501s20.167 44.5 34.5 62.5s32 32.5 53 43.5s46.167 16.5 75.5 16.5c22 0 42 -3.5 60 -10.5s33.667 -21.5 47 -43.5l9 50h40zM337.999 189c3.33301 20 5.49902 39.5 6.49902 58.5
s-1 36 -6 51s-14 27.167 -27 36.5s-31.5 14 -55.5 14s-44.333 -4.66699 -61 -14s-30.5 -21.5 -41.5 -36.5s-19.667 -32 -26 -51s-11.166 -38.5 -14.499 -58.5c-4 -19.333 -6.33301 -38.5 -7 -57.5s1.83301 -36 7.5 -51s15 -27.167 28 -36.5s31.5 -14 55.5 -14
s44.167 4.66699 60.5 14s29.833 21.5 40.5 36.5s19 32 25 51s11 38.167 15 57.5z" />
    <glyph glyph-name="h" unicode="h" horiz-adv-x="408" 
d="M312 0l43.001 234.999c7.33301 36.667 3.66602 64.834 -11.001 84.501s-39 29.5 -73 29.5c-30.667 0 -58 -10.667 -82 -32s-39 -49.333 -45 -84l-43 -233h-41l102 551h41l-41 -219c17.333 16.667 36 29.5 56 38.5s41.667 13.5 65 13.5c44 0 76 -12.5 96 -37.5
s26 -59.5 18 -103.5l-45 -243h-40z" />
    <glyph glyph-name="i" unicode="i" horiz-adv-x="186" 
d="M72 0l70 380h41l-70 -380h-41zM159 525c1.33301 8.66699 5.5 16 12.5 22s14.833 9 23.5 9s15.167 -3 19.5 -9s5.83301 -13.333 4.5 -22c-1.33301 -8 -5.5 -15 -12.5 -21s-14.833 -9 -23.5 -9s-15.167 3 -19.5 9s-5.83301 13 -4.5 21z" />
    <glyph glyph-name="j" unicode="j" horiz-adv-x="186" 
d="M98 -83c-5.33301 -30 -17.166 -53.667 -35.499 -71s-42.5 -26 -72.5 -26h-35l6 34h27c22 0 38.167 5.33301 48.5 16s17.166 26.667 20.499 48l86 462h41zM161 525c1.33301 8.66699 5.5 16 12.5 22s14.833 9 23.5 9s15.167 -3 19.5 -9s5.83301 -13.333 4.5 -22
c-1.33301 -8 -5.5 -15 -12.5 -21s-14.833 -9 -23.5 -9s-15.167 3 -19.5 9s-5.83301 13 -4.5 21z" />
    <glyph glyph-name="k" unicode="k" horiz-adv-x="383" 
d="M318 0l-93 209l-104 -100l-20 -109h-41l102 551h41l-72 -386l228 215h50l-150 -142l109 -238h-50z" />
    <glyph glyph-name="l" unicode="l" horiz-adv-x="194" 
d="M152 0c-31.333 0 -52.832 9 -64.499 27s-14.834 42 -9.50098 72l84 452h41l-84 -451c-4 -21.333 -3 -37.333 3 -48s20.333 -16 43 -16h27l-6 -36h-34z" />
    <glyph glyph-name="m" unicode="m" horiz-adv-x="659" 
d="M564 0l42.999 234.997c7.33301 36.667 3.83301 64.834 -10.5 84.501s-38.5 29.5 -72.5 29.5c-15.333 0 -30.166 -2.66699 -44.499 -8s-27.166 -12.666 -38.499 -21.999s-20.833 -20.5 -28.5 -33.5s-12.834 -27.167 -15.501 -42.5l-45 -243h-40l43 235
c7.33301 36.667 3.66602 64.834 -11.001 84.501s-39 29.5 -73 29.5c-32 0 -59.5 -10.333 -82.5 -31s-37.833 -48.334 -44.5 -83.001l-43 -235h-41l70 380h41l-8 -45c34.667 32.667 75 49 121 49c56.667 0 93.334 -23 110.001 -69c36.667 46 83.667 69 141 69
c44 0 75.667 -12.667 95 -38s25.333 -59.666 18 -102.999l-45 -243h-39z" />
    <glyph glyph-name="n" unicode="n" horiz-adv-x="408" 
d="M312 0l43.001 235c7.33301 36.667 3.66602 64.834 -11.001 84.501s-39 29.5 -73 29.5c-32 0 -59.5 -10.333 -82.5 -31s-37.833 -48.334 -44.5 -83.001l-43 -235h-41l70 380h41l-8 -45c33.333 32.667 73.333 49 120 49c44 0 76 -12.5 96 -37.5s26 -59.5 18 -103.5
l-45 -243h-40z" />
    <glyph glyph-name="o" unicode="o" horiz-adv-x="396" 
d="M391 189c-4.66699 -24 -11.8359 -47.668 -21.5029 -71.001s-22.5 -44 -38.5 -62s-35.167 -32.667 -57.5 -44s-48.166 -17 -77.499 -17s-53.166 5.66699 -71.499 17s-32 26 -41 44s-14 38.667 -15 62s0.833008 47 5.5 71c4.66699 24.667 11.834 48.667 21.501 72
s22.334 44.166 38.001 62.499s34.5 33 56.5 44s48 16.5 78 16.5s54 -5.66699 72 -17s31.5 -26.166 40.5 -44.499s14.167 -39.166 15.5 -62.499s-0.333984 -47 -5.00098 -71zM349.998 188.999c3.33301 18.667 5.00098 37.668 5.00098 57.001s-3 36.5 -9 51.5
s-15.667 27.333 -29 37s-32 14.5 -56 14.5c-23.333 0 -43.5 -4.83301 -60.5 -14.5s-31.333 -22 -43 -37s-21.167 -32.167 -28.5 -51.5s-12.666 -38.333 -15.999 -57s-5 -37.5 -5 -56.5s3.16699 -36 9.5 -51s16.166 -27.333 29.499 -37s31.666 -14.5 54.999 -14.5
s43.5 4.66699 60.5 14s31.333 21.666 43 36.999s21 32.333 28 51s12.5 37.667 16.5 57z" />
    <glyph glyph-name="p" unicode="p" horiz-adv-x="403" 
d="M400 191c-4.66699 -24.667 -11.333 -48.668 -20 -72.001s-20.334 -44.166 -35.001 -62.499s-32.667 -33 -54 -44s-46.666 -16.5 -75.999 -16.5c-21.333 0 -41 3.5 -59 10.5s-33.333 21.5 -46 43.5l-41 -221h-41l102 551h41l-9 -49c20.667 22 41.334 36.333 62.001 43
s41.667 10 63 10c28.667 0 51.667 -5.5 69 -16.5s30 -25.5 38 -43.5s12.167 -38.667 12.5 -62s-1.83398 -47 -6.50098 -71zM357.001 190.999c3.33301 19.333 5.5 38.5 6.5 57.5s-1.16699 36 -6.5 51s-14.5 27.167 -27.5 36.5s-31.5 14 -55.5 14s-44 -4.66699 -60 -14
s-29.167 -21.5 -39.5 -36.5s-18.5 -32 -24.5 -51s-10.667 -38.167 -14 -57.5c-4 -20 -6.5 -39.5 -7.5 -58.5s1 -36 6 -51s13.667 -27.167 26 -36.5s30.5 -14 54.5 -14s44.167 4.66699 60.5 14s30 21.5 41 36.5s19.5 32 25.5 51s11 38.5 15 58.5z" />
    <glyph glyph-name="q" unicode="q" horiz-adv-x="403" 
d="M74 191c4.66699 24 11.3311 47.668 19.998 71.001s20.334 44 35.001 62s32.5 32.5 53.5 43.5s46.167 16.5 75.5 16.5c21.333 0 41 -3.33301 59 -10s33.667 -21 47 -43l9 49h40l-102 -551h-40l41 221c-21.333 -22 -42.333 -36.5 -63 -43.5s-41.667 -10.5 -63 -10.5
c-29.333 0 -52.5 5.5 -69.5 16.5s-29.333 25.667 -37 44s-11.667 39.166 -12 62.499s1.83398 47.333 6.50098 72zM115.997 191.001c-4 -20 -6.33301 -39.5 -7 -58.5s1.5 -36 6.5 -51s14.167 -27.167 27.5 -36.5s32 -14 56 -14s44 4.66699 60 14s29.167 21.5 39.5 36.5
s18.5 32 24.5 51s11 38.5 15 58.5c3.33301 19.333 5.5 38.5 6.5 57.5s-1 36 -6 51s-13.667 27.167 -26 36.5s-30.5 14 -54.5 14s-44.333 -4.66699 -61 -14s-30.334 -21.5 -41.001 -36.5s-19.167 -32 -25.5 -51s-11.166 -38.167 -14.499 -57.5z" />
    <glyph glyph-name="r" unicode="r" horiz-adv-x="261" 
d="M312 337c-6.66699 4 -13.5 7 -20.5 9s-15.5 3 -25.5 3c-16 0 -31 -3.16699 -45 -9.5s-26.167 -14.833 -36.5 -25.5s-19 -23 -26 -37s-11.833 -28.667 -14.5 -44l-43 -233h-41l70 380h41l-10 -51c14 17.333 32 30.833 54 40.5s44.333 14.5 67 14.5
c25.333 0 45.333 -5 60 -15z" />
    <glyph glyph-name="s" unicode="s" horiz-adv-x="337" 
d="M330 108c-6.66699 -35.333 -24.833 -63.168 -54.5 -83.501s-66.5 -30.5 -110.5 -30.5c-60 0 -104.333 18.333 -133 55l32 30c22 -32 57.333 -48 106 -48c34 0 61.333 6.5 82 19.5s33.667 32.167 39 57.5c6.66699 37.333 -12 58 -56 62l-57 7
c-34 3.33301 -58.833 13.333 -74.5 30s-20.834 39.334 -15.501 68.001c6.66699 34 23.334 60.667 50.001 80s59.667 29 99 29c24 0 46.333 -3.33301 67 -10s37.667 -16.667 51 -30l-32 -28c-25.333 22 -56.333 33 -93 33c-28 0 -51 -6.5 -69 -19.5
s-29.333 -31.167 -34 -54.5c-6 -36.667 13.667 -57.334 59 -62.001l57 -5c14.667 -1.33301 28 -4 40 -8s22 -9.66699 30 -17s13.667 -17.166 17 -29.499s3.33301 -27.5 0 -45.5z" />
    <glyph glyph-name="t" unicode="t" horiz-adv-x="224" 
d="M162 0c-30.667 0 -52 9.16699 -64 27.5s-15.333 42.5 -10 72.5l46 250h-52l6 30h52l22 121h40l-22 -121h85l-6 -30h-85l-46 -251c-4 -20 -2.16699 -35.5 5.5 -46.5s21.167 -16.5 40.5 -16.5h27l-6 -36h-33z" />
    <glyph glyph-name="u" unicode="u" horiz-adv-x="409" 
d="M166 380l-44.001 -235.002c-6.66699 -37.333 -2.83398 -65.666 11.499 -84.999s38.5 -29 72.5 -29c32 0 59.667 10.333 83 31s38 48.334 44 83.001l44 235h41l-70 -380h-41l8 45c-33.333 -32.667 -73.666 -49 -120.999 -49c-43.333 0 -75.166 12.5 -95.499 37.5
s-26.5 59.5 -18.5 103.5l45 243h41z" />
    <glyph glyph-name="v" unicode="v" horiz-adv-x="364" 
d="M201 0h-39l-70 380h45l53 -332l177 332h45z" />
    <glyph glyph-name="w" unicode="w" horiz-adv-x="587" 
d="M443 0h-41l-51 317l-166 -317h-40l-53 380h45l36 -332l171 332h39l47 -332l160 332h45z" />
    <glyph glyph-name="x" unicode="x" horiz-adv-x="330" 
d="M266 0l-72 160l-129 -160h-50l164 194l-87 186h48l67 -153l122 153h50l-158 -186l93 -194h-48z" />
    <glyph glyph-name="y" unicode="y" horiz-adv-x="364" 
d="M145 -102c-11.333 -22 -26.668 -39 -46.001 -51s-41.333 -18 -66 -18h-19l6 36h14c10.667 0 19.834 0.833008 27.501 2.5s14.5 4.5 20.5 8.5s11.5 9.33301 16.5 16s10.167 14.667 15.5 24l48 84l-70 380h45l53 -332l177 332h45z" />
    <glyph glyph-name="z" unicode="z" horiz-adv-x="346" 
d="M37 0l7 38l286 306h-217l7 36h259l-7 -39l-288 -305h231l-6 -36h-272z" />
    <glyph glyph-name="braceleft" unicode="{" horiz-adv-x="249" 
d="M187 -58c-19.333 0 -34.668 1.50195 -46.001 4.50195s-20.333 8.16699 -27 15.5c-6 8 -9.33301 17.333 -10 28s1 26.667 5 48l30 162c4 23.333 1.66699 39.333 -7 48c-2.66699 4 -6.5 7.5 -11.5 10.5s-11.167 4.5 -18.5 4.5h-15l7 34h15c7.33301 0 14 1.66699 20 5
s11 6.66602 15 9.99902c12 8.66699 20 24.667 24 48l30 163c4 21.333 8.33301 37.166 13 47.499s11.667 19.5 21 27.5c16.667 14 43.334 21 80.001 21h12l-6 -36h-11c-14.667 0 -25.167 -0.666992 -31.5 -2s-11.833 -4.33301 -16.5 -9
c-5.33301 -4 -9.33301 -9.66699 -12 -17s-5.66699 -18.333 -9 -33l-30 -163c-3.33301 -20 -10 -36 -20 -48s-24.667 -22.333 -44 -31c15.333 -8 26 -17.833 32 -29.5s7 -28.167 3 -49.5l-30 -162c-3.33301 -15.333 -4.83301 -26.833 -4.5 -34.5s2.16602 -13.5 5.49902 -17.5
s7.83301 -6.66699 13.5 -8s15.834 -2 30.501 -2h11l-6 -35h-12z" />
    <glyph glyph-name="bar" unicode="|" horiz-adv-x="249" 
d="M93 -58l125 677h41l-125 -677h-41z" />
    <glyph glyph-name="braceright" unicode="}" horiz-adv-x="249" 
d="M244 263c-8 0 -15.001 -1.50293 -21.001 -4.50293s-11.333 -6.5 -16 -10.5c-11.333 -9.33301 -19 -25.333 -23 -48l-30 -162c-4 -21.333 -8.5 -37.333 -13.5 -48s-12.167 -20 -21.5 -28c-9.33301 -7.33301 -20.166 -12.5 -32.499 -15.5s-28.166 -4.5 -47.499 -4.5h-11
l6 35h10c14.667 0 25.334 0.666992 32.001 2s12.334 4 17.001 8s8.5 9.83301 11.5 17.5s6.16699 19.167 9.5 34.5l30 162c4 21.333 10.833 37.833 20.5 49.5s23.5 21.5 41.5 29.5c-14.667 8.66699 -24.667 19 -30 31s-6.33301 28 -3 48l30 163
c3.33301 14.667 4.66602 25.667 3.99902 33s-2.33398 13 -5.00098 17c-3.33301 4.66699 -8 7.66699 -14 9s-16.333 2 -31 2h-10l6 36h11c19.333 0 34.666 -1.66699 45.999 -5s20.333 -8.66602 27 -15.999c6 -8 9.5 -17.167 10.5 -27.5s-0.5 -26.166 -4.5 -47.499l-30 -163
c-4 -23.333 -2 -39.333 6 -48c3.33301 -3.33301 7.5 -6.66602 12.5 -9.99902s11.5 -5 19.5 -5h14l-7 -34h-14z" />
    <glyph glyph-name="asciitilde" unicode="~" horiz-adv-x="405" 
d="M403 218c-12.667 -10.667 -23.6699 -19.168 -33.0029 -25.501s-17.666 -11.333 -24.999 -15s-14.333 -6 -21 -7s-13.667 -1.5 -21 -1.5c-13.333 0 -26.166 2.5 -38.499 7.5s-25.166 10.833 -38.499 17.5c-10 4.66699 -19.167 8.66699 -27.5 12s-17.5 5 -27.5 5
c-11.333 0 -21.666 -1.83301 -30.999 -5.5s-23.333 -13.167 -42 -28.5l-20 23c12.667 10.667 23.667 19.167 33 25.5s17.666 11.333 24.999 15s14.333 6 21 7s14 1.5 22 1.5c13.333 0 25.833 -2.5 37.5 -7.5l37.5 -16.5c10 -5.33301 19.5 -9.66602 28.5 -12.999
s18.833 -5 29.5 -5s20.5 2 29.5 6s22.833 14 41.5 30l20 -25v0z" />
    <glyph glyph-name="uni00A0" unicode="&#xa0;" horiz-adv-x="209" 
 />
    <glyph glyph-name="cent" unicode="&#xa2;" horiz-adv-x="392" 
d="M353 138c-21.333 -19.333 -41.1689 -32.8311 -59.502 -40.498s-38.166 -12.167 -59.499 -13.5l-13 -68h-34l13 70c-40.667 5.33301 -70 23.333 -88 54s-22.333 71 -13 121s28.833 90.667 58.5 122s65.834 49.666 108.501 54.999l10 55h34l-10 -55
c19.333 -0.666992 37.333 -4.83398 54 -12.501s32 -21.167 46 -40.5l-32 -25c-11.333 15.333 -22.666 26.333 -33.999 33s-24.666 10.667 -39.999 12l-54 -287c15.333 1.33301 30.166 5.33301 44.499 12s30.166 17.667 47.499 33l21 -23v-2zM258.997 402.002
c-35.333 -6 -62.833 -22.5 -82.5 -49.5s-32.5 -57.5 -38.5 -91.5c-3.33301 -16 -4.66602 -31.667 -3.99902 -47s3.5 -29.5 8.5 -42.5s12.667 -24 23 -33s24.166 -15.167 41.499 -18.5z" />
    <glyph glyph-name="sterling" unicode="&#xa3;" horiz-adv-x="377" 
d="M73 0l43.999 242h-49l6 29h49l15 84c9.33301 47.333 30.666 84.833 63.999 112.5s74.333 41.5 123 41.5c24.667 0 46 -3.66699 64 -11s33.667 -18 47 -32l-35 -29c-9.33301 10 -19.5 18.833 -30.5 26.5s-28.167 11.5 -51.5 11.5c-37.333 0 -68.166 -11 -92.499 -33
s-40.166 -53 -47.499 -93l-14 -78h117l-6 -29h-117l-38 -206h234l-6 -36h-276z" />
    <glyph glyph-name="yen" unicode="&#xa5;" horiz-adv-x="399" 
d="M315 289h80l-5 -29h-95l-36 -50l-5 -30h121l-5 -28h-121l-28 -152h-42l28 152h-123l5 28h123l5 30l-18 50h-95l5 29h80l-74 216h45l88 -254l179 254h44z" />
    <glyph glyph-name="copyright" unicode="&#xa9;" horiz-adv-x="642" 
d="M640 265c-7.33301 -37.333 -20.999 -72.5 -40.999 -105.5s-44.5 -61.667 -73.5 -86s-61.167 -43.666 -96.5 -57.999s-72 -21.5 -110 -21.5c-37.333 0 -71 7.16699 -101 21.5s-55 33.666 -75 57.999s-34 53 -42 86s-8.33301 68.167 -1 105.5
c6.66699 37.333 20.167 72.5 40.5 105.5s45 61.667 74 86s61.167 43.666 96.5 57.999s71.666 21.5 108.999 21.5c38 0 72 -7.16699 102 -21.5s54.833 -33.666 74.5 -57.999s33.5 -53 41.5 -86s8.66699 -68.167 2 -105.5zM605.001 265c6 32 5.16699 62.167 -2.5 90.5
s-20.167 53.333 -37.5 75s-39 38.834 -65 51.501s-55 19 -87 19c-31.333 0 -62.333 -6.33301 -93 -19s-58.5 -29.834 -83.5 -51.501s-46.333 -46.667 -64 -75s-29.5 -58.5 -35.5 -90.5s-5.5 -62.167 1.5 -90.5s19.167 -53.333 36.5 -75s39 -38.834 65 -51.501
s54.667 -19 86 -19c32 0 63.333 6.33301 94 19s58.667 29.834 84 51.501s47 46.667 65 75s30 58.5 36 90.5zM451.001 149c-18 -13.333 -35 -23.167 -51 -29.5s-34.667 -9.5 -56 -9.5c-23.333 0 -42.5 4.16699 -57.5 12.5s-26.5 19.5 -34.5 33.5s-12.833 30.333 -14.5 49
s-0.5 38.667 3.5 60s10.167 41.333 18.5 60s19.166 35 32.499 49s29 25.167 47 33.5s38.667 12.5 62 12.5c21.333 0 38.833 -3.16699 52.5 -9.5s27.5 -16.5 41.5 -30.5l-31 -25c-11.333 13.333 -22 22 -32 26s-22.333 6 -37 6c-18.667 0 -34.834 -3.33301 -48.501 -10
s-25.167 -15.5 -34.5 -26.5s-17 -24 -23 -39s-10.333 -30.5 -13 -46.5c-3.33301 -16 -4.66602 -31.5 -3.99902 -46.5s3.66699 -28 9 -39s13.5 -19.833 24.5 -26.5s25.833 -10 44.5 -10c14.667 0 27.834 2 39.501 6s25.5 12.667 41.5 26l20 -24v-2z" />
    <glyph glyph-name="guillemotleft" unicode="&#xab;" horiz-adv-x="415" 
d="M234 209l184 154l-10 -53l-122 -101l84 -103l-9 -51zM71 209l184 154l-10 -53l-122 -101l84 -103l-9 -51z" />
    <glyph glyph-name="registered" unicode="&#xae;" horiz-adv-x="642" 
d="M640 265c-7.33301 -37.333 -20.999 -72.5 -40.999 -105.5s-44.5 -61.667 -73.5 -86s-61.167 -43.666 -96.5 -57.999s-72 -21.5 -110 -21.5c-37.333 0 -71 7.16699 -101 21.5s-55 33.666 -75 57.999s-34 53 -42 86s-8.33301 68.167 -1 105.5
c6.66699 37.333 20.167 72.5 40.5 105.5s45 61.667 74 86s61.167 43.666 96.5 57.999s71.666 21.5 108.999 21.5c38 0 72 -7.16699 102 -21.5s54.833 -33.666 74.5 -57.999s33.5 -53 41.5 -86s8.66699 -68.167 2 -105.5zM605.001 265c6 32 5.33105 62.333 -2.00195 91
s-19.833 53.667 -37.5 75s-39.5 38.333 -65.5 51s-55 19 -87 19s-63.333 -6.33301 -94 -19s-58.5 -29.667 -83.5 -51s-46.333 -46.333 -64 -75s-29.5 -59 -35.5 -91s-5.5 -62.333 1.5 -91s19.167 -53.834 36.5 -75.501s39 -38.834 65 -51.501s55 -19 87 -19
s63.333 6.33301 94 19s58.834 29.834 84.501 51.501s47.334 46.834 65.001 75.501s29.5 59 35.5 91zM411.999 116l-49.001 123.001h-48l-23 -123h-35l55 299h96c12.667 0 24.334 -2.16699 35.001 -6.5s19.5 -10.5 26.5 -18.5s12 -17.5 15 -28.5s3.16699 -22.833 0.5 -35.5
c-4 -21.333 -13.5 -38.833 -28.5 -52.5s-32.5 -23.834 -52.5 -30.501l50 -127h-42zM449.998 326.001c3.33301 16.667 0 30.5 -10 41.5s-23.667 16.5 -41 16.5h-57l-21 -112h57c17.333 0 32.833 5 46.5 15s22.167 23 25.5 39z" />
    <glyph glyph-name="guillemotright" unicode="&#xbb;" horiz-adv-x="415" 
d="M237 55l9 51l122 103l-84 101l10 53l126 -154zM75 55l9 51l121 103l-83 101l10 53l125 -154z" />
    <glyph glyph-name="onequarter" unicode="&#xbc;" horiz-adv-x="570" 
d="M506 47l-8 -47h-35l8 47h-127l5 28l159 230h36l-156 -229h89l16 86h35l-16 -86h39l-6 -29h-39zM167 0h-41l341 505h40zM131 201l49 267l-68 -51l7 39l68 49h35l-56 -304h-35z" />
    <glyph glyph-name="onehalf" unicode="&#xbd;" horiz-adv-x="570" 
d="M357 0l5.00195 29.9971l154 151c13.333 15.333 21.333 29.333 24 42c3.33301 16.667 1.16602 29.834 -6.50098 39.501s-19.834 14.5 -36.501 14.5c-14 0 -27.5 -4.16699 -40.5 -12.5s-21.167 -22.5 -24.5 -42.5h-34c4.66699 25.333 16.167 45.833 34.5 61.5
s41.5 23.5 69.5 23.5c26.667 0 46.834 -7.66699 60.501 -23s18.167 -35.666 13.5 -60.999c-2.66699 -12 -6.83398 -22.667 -12.501 -32s-14.167 -19.666 -25.5 -30.999l-133 -130h135l-5 -30h-178zM155.002 -0.00292969h-40l340 505h40zM131.002 200.997l49 267l-68 -51
l7 39l68 49h35l-56 -304h-35z" />
    <glyph glyph-name="threequarters" unicode="&#xbe;" horiz-adv-x="570" 
d="M524 47l-8 -47h-34l8 47h-127l5 28l156 230h38l-156 -229h90l16 86h34l-16 -86h38l-6 -29h-38zM219 0h-39l341 505h40zM277 287c-5.33301 -30 -18.332 -52.168 -38.999 -66.501s-44.667 -21.5 -72 -21.5c-25.333 0 -46 6.5 -62 19.5s-21.667 33.833 -17 62.5h35
c-2 -19.333 2.16699 -33.166 12.5 -41.499s22.833 -12.5 37.5 -12.5c17.333 0 32.666 5.16699 45.999 15.5s21.666 25.166 24.999 44.499c3.33301 17.333 0.833008 30.833 -7.5 40.5s-23.166 14.5 -44.499 14.5h-7l5 30h7c19.333 0 34.333 4.66699 45 14s17.667 22 21 38
c3.33301 18 0.5 31.5 -8.5 40.5s-21.167 13.5 -36.5 13.5c-33.333 0 -54.666 -16.333 -63.999 -49h-35c7.33301 24.667 20.666 44.167 39.999 58.5s41 21.5 65 21.5c27.333 0 48 -7.5 62 -22.5s18.333 -35.5 13 -61.5c-5.33301 -31.333 -23.333 -53.666 -54 -66.999
c15.333 -5.33301 25.5 -14 30.5 -26s5.83301 -27 2.5 -45z" />
    <glyph glyph-name="multiply" unicode="&#xd7;" horiz-adv-x="405" 
d="M335 61l-100 122l-143 -122l-21 25l146 122l-100 122l29 23l98 -121l145 121l21 -23l-145 -122l99 -122z" />
    <glyph glyph-name="divide" unicode="&#xf7;" horiz-adv-x="405" 
d="M76 189l6 37h322l-6 -37h-322zM231 338c2 9.33301 6.66895 17.166 14.002 23.499s15.666 9.5 24.999 9.5s16.666 -3.16699 21.999 -9.5s7 -14.166 5 -23.499c-1.33301 -9.33301 -5.83301 -17.166 -13.5 -23.499s-16.167 -9.5 -25.5 -9.5s-16.5 3.16699 -21.5 9.5
s-6.83301 14.166 -5.5 23.499zM183.002 76c1.33301 9.33301 5.83301 17.166 13.5 23.499s16.167 9.5 25.5 9.5s16.5 -3.16699 21.5 -9.5s6.83301 -14.166 5.5 -23.499c-2 -9.33301 -6.83301 -17.166 -14.5 -23.499s-16.167 -9.5 -25.5 -9.5s-16.5 3.16699 -21.5 9.5
s-6.5 14.166 -4.5 23.499z" />
    <glyph glyph-name="kokaithai" unicode="&#xe01;" horiz-adv-x="434" 
d="M156 256l-47.001 -255.998h-42l46 250l-27 53c52.667 70 118.334 105 197.001 105c56.667 0 96 -13.667 118 -41s28.333 -66 19 -116l-46 -251h-42l46 251c8 43.333 2.33301 74.166 -17 92.499s-48 27.5 -86 27.5c-22.667 0 -46.5 -4.83301 -71.5 -14.5
s-48.5 -26.834 -70.5 -51.501z" />
    <glyph glyph-name="khokhaithai" unicode="&#xe02;" horiz-adv-x="373" 
d="M104 370c10 11.333 22.165 20.165 36.498 26.498s28.5 9.5 42.5 9.5c25.333 0 43.666 -7 54.999 -21s14.666 -32.667 9.99902 -56c-2 -13.333 -7.33301 -25.5 -16 -36.5s-18.5 -21.667 -29.5 -32s-22 -20.166 -33 -29.499s-19.833 -18.666 -26.5 -27.999
c-6 -8.66699 -9.83301 -16.667 -11.5 -24s-2.83398 -12.666 -3.50098 -15.999l-7 -38c-5.33301 -28.667 -2.5 -51.5 8.5 -68.5s30.833 -25.5 59.5 -25.5s51.334 8.5 68.001 25.5s27.667 39.833 33 68.5l51 279h44l-52 -281c-7.33301 -38 -24.833 -69 -52.5 -93
s-60.5 -36 -98.5 -36c-39.333 0 -68.166 12 -86.499 36s-24.5 55 -18.5 93l9 47c2 11.333 5.5 21.666 10.5 30.999s9.83301 16.333 14.5 21c6.66699 8 15 16.167 25 24.5l30 26c10 9 18.833 18.167 26.5 27.5s12.5 19 14.5 29c2.66699 12 0.833984 21.5 -5.49902 28.5
s-15.5 10.5 -27.5 10.5c-7.33301 0 -14.666 -1.83301 -21.999 -5.5s-13.666 -8.16699 -18.999 -13.5z" />
    <glyph glyph-name="khokhuatthai" unicode="&#xe03;" horiz-adv-x="373" 
d="M79 382l30.001 26.002l35 -31l11 8c24.667 17.333 46.667 25.166 66 23.499s33.333 -9 42 -22s10.334 -30 5.00098 -51s-20 -42.167 -44 -63.5l-76 -67c-7.33301 -6.66699 -12.333 -14 -15 -22s-4.66699 -15.667 -6 -23l-6 -35c-5.33301 -28 -2.83301 -50.667 7.5 -68
s30.5 -26 60.5 -26c29.333 0 52.166 8.5 68.499 25.5s27.166 39.833 32.499 68.5l51 279h44l-52 -281c-7.33301 -40 -24.833 -71.5 -52.5 -94.5s-60.5 -34.5 -98.5 -34.5c-21.333 0 -39.5 3.33301 -54.5 10s-26.667 15.834 -35 27.501s-13.833 25.334 -16.5 41.001
s-2.33398 32.5 0.999023 50.5l8 44c2.66699 11.333 6.16699 21.666 10.5 30.999s10.166 17.333 17.499 24l97 83c12 10 19.5 20.5 22.5 31.5s2.33301 19.667 -2 26s-11.666 9.66602 -21.999 9.99902s-22.833 -4.83398 -37.5 -15.501l-27 -19c-2 -2 -4.66699 -3 -8 -3
s-5.66602 1 -6.99902 3z" />
    <glyph glyph-name="khokhwaithai" unicode="&#xe04;" horiz-adv-x="440" 
d="M102 0h-42.002l47 258c4.66699 25.333 12.834 47.5 24.501 66.5s25.834 34.667 42.501 47s35.334 21.5 56.001 27.5s42.667 9 66 9c49.333 0 86.166 -12.667 110.499 -38s31.833 -62.666 22.5 -111.999l-47 -258h-42l47 258c7.33301 40 2.33301 68.833 -15 86.5
s-45 26.5 -83 26.5s-69 -8.83301 -93 -26.5s-39.667 -46.5 -47 -86.5l-7 -40c6 5.33301 13.333 9.66602 22 12.999s20.334 5 35.001 5h71l-6 -34h-63c-24 0 -41.333 -5.66699 -52 -17s-18.334 -28.333 -23.001 -51z" />
    <glyph glyph-name="khokhonthai" unicode="&#xe05;" horiz-adv-x="449" 
d="M108 263c6.66699 34 21.0049 64 43.0049 90s51.333 44 88 54l49 -61l72 61c31.333 -7.33301 53.666 -24.5 66.999 -51.5s16.666 -57.833 9.99902 -92.5l-48 -263h-42l48 263c5.33301 25.333 5.16602 45.833 -0.500977 61.5s-15.834 28.167 -30.501 37.5l-66 -52
c-12.667 -9.33301 -23.334 -9.33301 -32.001 0l-46 52c-18.667 -9.33301 -33.667 -22 -45 -38s-19.333 -36.333 -24 -61l-8 -44c6 5.33301 13.333 9.5 22 12.5s20.334 4.5 35.001 4.5h71l-6 -34h-63c-24 0 -41.333 -5.66699 -52 -17s-18.334 -28.333 -23.001 -51l-24 -134
h-43z" />
    <glyph glyph-name="khorakhangthai" unicode="&#xe06;" horiz-adv-x="427" 
d="M130 154c-3.33301 -17.333 -3.33301 -33.499 0 -48.499s9.16602 -28 17.499 -39s19.166 -19.5 32.499 -25.5s28 -9 44 -9c36 0 64.333 10.167 85 30.5s34 47.833 40 82.5l49 260h44l-49 -260c-8 -45.333 -27.5 -81.666 -58.5 -108.999s-69.833 -41 -116.5 -41
c-23.333 0 -44.666 4.66699 -63.999 14s-33.666 22.333 -42.999 39l-8 -48h-43l29 159c0 0.666992 0.166992 2 0.5 4s0.5 3.33301 0.5 4c2.66699 11.333 6.16699 21.666 10.5 30.999s10.5 17.333 18.5 24l96 83c12 10 19.5 20.5 22.5 31.5s2.5 19.667 -1.5 26
s-11.333 9.66602 -22 9.99902s-23.334 -4.83398 -38.001 -15.501l-26 -19c-7.33301 -4.66699 -12.666 -4.66699 -15.999 0l-50 44l29 26l37 -31l11 8c24 17.333 45.833 25 65.5 23s33.834 -9.5 42.501 -22.5s10.334 -30 5.00098 -51s-20.333 -41.833 -45 -62.5l-76 -67
c-8.66699 -8 -14.334 -17.167 -17.001 -27.5s-4.33398 -17.166 -5.00098 -20.499z" />
    <glyph glyph-name="ngonguthai" unicode="&#xe07;" horiz-adv-x="305" 
d="M52 92c1.33301 -18.667 8.00098 -33.501 20.001 -44.501s29 -16.5 51 -16.5c29.333 0 52.166 8.33301 68.499 25s27.166 39 32.499 67l46 246h-58l6 35h101l-52 -281c-7.33301 -41.333 -24.166 -73.166 -50.499 -95.499s-59.833 -33.5 -100.5 -33.5
c-32.667 0 -57.167 7.16699 -73.5 21.5s-26.833 33.833 -31.5 58.5z" />
    <glyph glyph-name="chochanthai" unicode="&#xe08;" horiz-adv-x="364" 
d="M285 134c4.66699 22.667 3.83203 39.666 -2.50098 50.999s-21.5 17 -45.5 17h-69l6 35h77c14.667 0 25.667 -1.66699 33 -5s13 -7.66602 17 -12.999l7 39c6.66699 35.333 1.83398 63 -14.499 83s-42.166 30 -77.499 30c-24 0 -47 -5.5 -69 -16.5s-39 -27.167 -51 -48.5
l-33 19c16.667 27.333 38.667 48 66 62s58.666 21 93.999 21c46 0 81.167 -12.5 105.5 -37.5s31.833 -62.5 22.5 -112.5l-47 -258h-43z" />
    <glyph glyph-name="chochingthai" unicode="&#xe09;" horiz-adv-x="427" 
d="M117 325c16.667 27.333 39.333 48.001 68 62.001s60.667 21 96 21c22.667 0 43.167 -3 61.5 -9s33.5 -15 45.5 -27s20.5 -27.333 25.5 -46s5.16699 -40.334 0.5 -65.001l-48 -261h-43l9 49c-38 -36 -81.333 -54 -130 -54c-43.333 0 -76.333 13 -99 39s-29.667 62 -21 108
l18 98h43l-18 -98c-6.66699 -34 -2.66699 -60.833 12 -80.5s38.334 -29.5 71.001 -29.5c18 0 35 3.16699 51 9.5s30.333 15 43 26s23.167 23.833 31.5 38.5s14.166 30.667 17.499 48l20 107c6.66699 36.667 1.16699 64.167 -16.5 82.5s-44.5 27.5 -80.5 27.5
c-24 0 -47.5 -5.5 -70.5 -16.5s-40.167 -27.5 -51.5 -49.5z" />
    <glyph glyph-name="chochangthai" unicode="&#xe0a;" horiz-adv-x="375" 
d="M189 287c8 8 14.1738 15.166 18.5068 21.499s7.16602 13.166 8.49902 20.499c3.33301 15.333 1.16602 26.333 -6.50098 33s-17.834 10 -30.501 10c-7.33301 0 -15.333 -2.16699 -24 -6.5s-16.334 -9.16602 -23.001 -14.499l-27 23c24 21.333 51.333 32 82 32
c25.333 0 44 -7 56 -21s15.667 -32.667 11 -56c-2 -13.333 -6.33301 -25 -13 -35s-16 -20.333 -28 -31l-64 -57c-8 -7.33301 -13.5 -16 -16.5 -26s-4.83301 -16.667 -5.5 -20l-7 -38c-5.33301 -27.333 -3.16602 -49.333 6.50098 -66s29.834 -25 60.501 -25
c28 0 50.667 7.66699 68 23s28.666 37.333 33.999 66l29 157c2.66699 13.333 0.666992 24.333 -6 33s-13.334 15.667 -20.001 21c-4.66699 2.66699 -7.83398 5.33398 -9.50098 8.00098s2.16602 8 11.499 16l130 110l23 -28l-111 -93c6 -5.33301 11 -11.333 15 -18
c3.33301 -6 6.33301 -13 9 -21s3 -17.333 1 -28l-30 -159c-7.33301 -38 -24.333 -68.167 -51 -90.5s-60 -33.5 -100 -33.5c-42 0 -71.167 11.5 -87.5 34.5s-21.5 53.5 -15.5 91.5l8 47c2.66699 11.333 6.16699 22 10.5 32s10.166 18 17.499 24z" />
    <glyph glyph-name="sosothai" unicode="&#xe0b;" horiz-adv-x="388" 
d="M345 118c-7.33301 -38 -24.3311 -68.1689 -50.998 -90.502s-60 -33.5 -100 -33.5c-42 0 -71.167 11.5 -87.5 34.5s-21.5 53.5 -15.5 91.5l8 47c2.66699 11.333 6.16699 21.833 10.5 31.5s10.5 17.834 18.5 24.501l83 72c14 11.333 22.5 22.833 25.5 34.5
s2.16699 21.167 -2.5 28.5s-12.334 11.5 -23.001 12.5s-22.667 -3.5 -36 -13.5l-27 -19c-2.66699 -2 -5.66699 -3 -9 -3s-5.66602 1 -6.99902 3l-49 44l28 26l37 -31l11 8c25.333 18 48 25.5 68 22.5s34.167 -12 42.5 -27s9.66602 -33.833 3.99902 -56.5
s-21.834 -44 -48.501 -64l-62 -54c-8.66699 -7.33301 -14.5 -16 -17.5 -26s-4.83301 -16.667 -5.5 -20l-7 -38c-5.33301 -27.333 -3 -49.333 7 -66s30.333 -25 61 -25c28 0 50.667 7.66699 68 23s28.666 37.333 33.999 66l29 157c2.66699 13.333 0.5 24.333 -6.5 33
s-14.167 15.667 -21.5 21c-4 2.66699 -6.66699 5.33398 -8 8.00098s2.33398 8 11.001 16l127 110l22 -28l-106 -93c6 -5.33301 11 -11.333 15 -18c3.33301 -6 6.33301 -13 9 -21s3 -17.333 1 -28z" />
    <glyph glyph-name="chochoethai" unicode="&#xe0c;" horiz-adv-x="673" 
d="M126 93c-3.33301 -16.667 -3.33398 -29.999 -0.000976562 -39.999s14.666 -15 33.999 -15h29l-7 -38h-37c-28 0 -46.5 8.16699 -55.5 24.5s-10.833 38.833 -5.5 67.5l29 158l-27 53c52.667 70 118.334 105 197.001 105c56.667 0 96 -13.333 118 -40s28.333 -65 19 -115
l-19 -103c-6 -34.667 -1 -63 15 -85s39.667 -33 71 -33c28 0 51.667 9.5 71 28.5s32.333 46.833 39 83.5l48 260h42l-48 -259c-9.33301 -50 -28.166 -87.5 -56.499 -112.5s-62.166 -37.5 -101.499 -37.5c-22.667 0 -42.834 5 -60.501 15s-30.167 23 -37.5 39l-9 -49h-42
l46 253c8 42 2.83301 72.167 -15.5 90.5s-47.5 27.5 -87.5 27.5c-22.667 0 -46.5 -4.83301 -71.5 -14.5s-48.5 -26.834 -70.5 -51.501l23 -49z" />
    <glyph glyph-name="yoyingthai" unicode="&#xe0d;" horiz-adv-x="666" 
d="M367 0c-5.33301 -23.333 2.66699 -35 24 -35h208l-6 -34h-216c-7.33301 0 -14.333 1 -21 3s-12.5 5.5 -17.5 10.5s-8.5 12 -10.5 21s-1.66699 20.5 1 34.5h38zM113 250l-27.001 53.001c52.667 70 118.334 105 197.001 105c56.667 0 96 -13.333 118 -40
s28.333 -65 19 -115l-13 -72c-7.33301 -38.667 -5 -68.667 7 -90s33.667 -32 65 -32s57 10.667 77 32s33.667 51.333 41 90l41 223h42l-43 -232c-4 -20 -10 -39.167 -18 -57.5s-18.667 -34.333 -32 -48s-29.333 -24.5 -48 -32.5s-40 -12 -64 -12
c-46.667 0 -79.167 13 -97.5 39s-23.166 63 -14.499 111l15 81c8 42 2.83301 72.167 -15.5 90.5s-47.5 27.5 -87.5 27.5c-22.667 0 -46.5 -4.83301 -71.5 -14.5s-48.5 -26.834 -70.5 -51.501l23 -49l-30 -163c-3.33301 -16.667 -3.33301 -30 0 -40s14.666 -15 33.999 -15h29
l-7 -38h-37c-28 0 -46.5 8.16699 -55.5 24.5s-10.833 38.833 -5.5 67.5z" />
    <glyph glyph-name="dochadathai" unicode="&#xe0e;" horiz-adv-x="451" 
d="M144 92c-4 -20.667 -10.167 -37.1699 -18.5 -49.5029s-17.5 -21.666 -27.5 -27.999s-20.167 -10.333 -30.5 -12s-19.166 -2.5 -26.499 -2.5v38c12.667 -0.666992 22.834 1 30.501 5s13.5 9.33301 17.5 16s6.83301 13.834 8.5 21.501l4.5 21.5l28 148l-27 53
c52.667 70 118.334 105 197.001 105c56.667 0 96.167 -13.333 118.5 -40s28.833 -65 19.5 -115l-64 -350c-2 -9.33301 -5.83301 -18.166 -11.5 -26.499s-12.834 -15 -21.501 -20s-17.834 -8 -27.501 -9s-19.5 1.16699 -29.5 6.5l-83 44c-6 2.66699 -12 2.66699 -18 0
l-106 -50l-16 27l120 56c7.33301 3.33301 13.166 5 17.499 5s9.83301 -1.66699 16.5 -5l91 -45c4.66699 -2.66699 9.66699 -2.16699 15 1.5s8.66602 8.83398 9.99902 15.501l64 350c8 42.667 2.33301 73 -17 91s-48 27 -86 27c-22.667 0 -46.167 -4.83301 -70.5 -14.5
s-48.166 -26.834 -71.499 -51.501l24 -49z" />
    <glyph glyph-name="topatakthai" unicode="&#xe0f;" horiz-adv-x="452" 
d="M395 253c8 42.667 2.3291 72.9951 -17.0039 90.9951s-48 27 -86 27c-22.667 0 -46.167 -4.66699 -70.5 -14s-48.166 -26.666 -71.499 -51.999l24 -49l-30 -164c-4 -20.667 -10.167 -37.167 -18.5 -49.5s-17.5 -21.666 -27.5 -27.999s-20.167 -10.333 -30.5 -12
s-19.166 -2.5 -26.499 -2.5v38c12.667 -0.666992 22.834 1 30.501 5s13.5 9.33301 17.5 16s6.83301 13.834 8.5 21.501l4.5 21.5l28 148l-27 53c52.667 70 118.334 105 197.001 105c56.667 0 96.167 -13.333 118.5 -40s28.833 -65 19.5 -115l-64 -348
c-2 -10 -6 -19.333 -12 -28s-13.167 -15.667 -21.5 -21s-17.5 -8.33301 -27.5 -9s-19.333 2 -28 8l-64 42c-2.66699 2.66699 -7 2.66699 -13 0l-73 -42c-8.66699 -4.66699 -15.5 -6.83398 -20.5 -6.50098s-9.5 2.5 -13.5 6.5l-71 61l35 19l55 -46
c2.66699 -2.66699 6.33398 -2.66699 11.001 0l74 42c6.66699 4 12.334 5.83301 17.001 5.5s10 -2.16602 16 -5.49902l64 -42c5.33301 -3.33301 11.166 -3.66602 17.499 -0.999023s10.166 8.33398 11.499 17.001z" />
    <glyph glyph-name="thothanthai" unicode="&#xe10;" horiz-adv-x="364" 
d="M253 -39l43.0029 -0.00195312l-10 -56c-2 -9.33301 -6.16699 -17.833 -12.5 -25.5s-13.666 -13.667 -21.999 -18s-17.333 -6.16602 -27 -5.49902s-18.5 5 -26.5 13l-36 37c-2 3.33301 -5.33301 3.33301 -10 0l-45 -36c-13.333 -10.667 -26.333 -10.667 -39 0l-55 52
l30 19l47 -44c2 -1.33301 4 -1.33301 6 0l44 35c8 6 16.167 8.83301 24.5 8.5s15.166 -3.16602 20.499 -8.49902l34 -35c0.666992 -1.33301 2.16699 -2.5 4.5 -3.5s4.66602 -1.5 6.99902 -1.5s4.66602 1 6.99902 3s4.16602 6 5.49902 12zM285.003 133.998
c4.66699 22.667 3.83203 39.666 -2.50098 50.999s-21.5 17 -45.5 17h-69l6 35h77c14.667 0 25.667 -1.66699 33 -5s13 -7.66602 17 -12.999l7 39c6.66699 35.333 1.83398 63 -14.499 83s-42.166 30 -77.499 30c-24 0 -47 -5.5 -69 -16.5s-39 -27.167 -51 -48.5l-33 19
c16.667 27.333 38.667 48 66 62s58.666 21 93.999 21c36 0 65.333 -7.66699 88 -23l95 81l24 -28l-94 -78c18 -25.333 23 -59.333 15 -102l-47 -258h-43z" />
    <glyph glyph-name="thonangmonthothai" unicode="&#xe11;" horiz-adv-x="439" 
d="M158 207c-8.66699 -7.33301 -14.3301 -16.167 -16.9971 -26.5s-4.33398 -17.166 -5.00098 -20.499l-29 -160h-44l30 167c5.33301 24.667 15 43 29 55l97 83c12 10 19.333 20.5 22 31.5s2 19.667 -2 26s-11.167 9.66602 -21.5 9.99902s-22.833 -4.83398 -37.5 -15.501
l-27 -19c-6 -4.66699 -11.333 -4.66699 -16 0l-50 44l30 26l36 -31l11 8c16 11.333 31.167 18.5 45.5 21.5s26.666 2.83301 36.999 -0.5s18.666 -9.16602 24.999 -17.499s9.5 -18.5 9.5 -30.5l62 51c34 -0.666992 59.167 -11 75.5 -31s20.833 -49.667 13.5 -89l-53 -289h-42
l53 286c4 23.333 3.16699 42.5 -2.5 57.5s-18.5 24.167 -38.5 27.5z" />
    <glyph glyph-name="thophuthaothai" unicode="&#xe12;" horiz-adv-x="669" 
d="M397 150c-6 -34.667 -1 -63.001 15 -85.001s39.667 -33 71 -33c28 0 51.5 8.83301 70.5 26.5s31.833 44.834 38.5 81.501l49 264h42l-48 -263c-9.33301 -50 -28.166 -86.833 -56.499 -110.5s-62.166 -35.5 -101.499 -35.5c-22.667 0 -42.834 5 -60.501 15
s-30.167 23 -37.5 39l-9 -49h-42l48 263c4.66699 24.667 4.16699 45 -1.5 61s-15.834 28.667 -30.501 38l-61 -52c-5.33301 -5.33301 -11.166 -8 -17.499 -8s-11.166 2.66699 -14.499 8l-41 52c-18.667 -9.33301 -33.667 -21.833 -45 -37.5s-19.666 -36.167 -24.999 -61.5
l-29 -157c-4 -22.667 -2.66699 -39.667 4 -51s21.667 -17 45 -17h30l-7 -38h-37c-32.667 0 -55.334 9.5 -68.001 28.5s-16 44.5 -10 76.5l29 158c6.66699 34 21 64 43 90s51.333 44 88 54l45 -61l68 61c31.333 -7.33301 53.666 -24.5 66.999 -51.5
s16.666 -57.833 9.99902 -92.5z" />
    <glyph glyph-name="nonenthai" unicode="&#xe13;" horiz-adv-x="673" 
d="M113 250l-26.998 53.002c52.667 70 118.334 105 197.001 105c56.667 0 96 -13.333 118 -40s28.333 -65 19 -115l-21 -113c-6.66699 -36.667 -3.83398 -63.834 8.49902 -81.501s32.5 -26.5 60.5 -26.5c15.333 0 30.166 2.83301 44.499 8.5s27.333 13.834 39 24.501
s21.5 23.167 29.5 37.5s13.667 30.166 17 47.499l47 253h42l-74 -403h-42l9 49c-13.333 -16 -30.666 -29 -51.999 -39s-43.333 -15 -66 -15c-39.333 0 -68.833 11.833 -88.5 35.5s-24.834 60.5 -15.501 110.5l20 112c8 42 2.83301 72.167 -15.5 90.5s-47.5 27.5 -87.5 27.5
c-22.667 0 -46.5 -4.83301 -71.5 -14.5s-48.5 -26.834 -70.5 -51.501l23 -49l-30 -163c-3.33301 -16.667 -3.33301 -30 0 -40s14.666 -15 33.999 -15h29l-7 -38h-37c-28 0 -46.5 8.16699 -55.5 24.5s-10.833 38.833 -5.5 67.5z" />
    <glyph glyph-name="dodekthai" unicode="&#xe14;" horiz-adv-x="441" 
d="M107 258c11.333 52 33.6699 89.999 67.0029 113.999s74 36 122 36c49.333 0 86.166 -12.667 110.499 -38s31.833 -62.666 22.5 -111.999l-47 -258h-42l47 258c7.33301 40 1.66602 68.833 -17.001 86.5s-45.667 26.5 -81 26.5c-36 0 -66.5 -8.83301 -91.5 -26.5
s-41.167 -46.5 -48.5 -86.5l-28 -152c-4 -21.333 -2.66699 -38 4 -50s19.667 -18 39 -18h37l-7 -38h-37c-32.667 0 -55.334 9.5 -68.001 28.5s-16 44.5 -10 76.5z" />
    <glyph glyph-name="totaothai" unicode="&#xe15;" horiz-adv-x="441" 
d="M121 106c-4 -21.333 -2.66406 -38 4.00293 -50s19.667 -18 39 -18h37l-7 -38h-37c-32.667 0 -55.334 9.5 -68.001 28.5s-16 44.5 -10 76.5l29 158c6.66699 34 21 64 43 90s51.333 44 88 54l45 -61l68 61c31.333 -7.33301 53.666 -24.5 66.999 -51.5
s16.666 -57.833 9.99902 -92.5l-48 -263h-42l48 263c4.66699 24.667 4.16699 45 -1.5 61s-15.834 28.667 -30.501 38l-61 -52c-5.33301 -5.33301 -11.166 -8 -17.499 -8s-11.166 2.66699 -14.499 8l-41 52c-18.667 -9.33301 -33.834 -21.833 -45.501 -37.5
s-20.167 -36.167 -25.5 -61.5z" />
    <glyph glyph-name="thothungthai" unicode="&#xe16;" horiz-adv-x="434" 
d="M113 250l-27 53.001c52.667 70 118.334 105 197.001 105c56.667 0 96 -13.333 118 -40s28.333 -65 19 -115l-46 -253h-42l46 253c8 42 2.83301 72.167 -15.5 90.5s-47.5 27.5 -87.5 27.5c-22.667 0 -46.5 -4.83301 -71.5 -14.5s-48.5 -26.834 -70.5 -51.501l23 -49
l-30 -163c-3.33301 -16.667 -3.33301 -30 0 -40s14.666 -15 33.999 -15h29l-7 -38h-37c-28 0 -46.5 8.16699 -55.5 24.5s-10.833 38.833 -5.5 67.5z" />
    <glyph glyph-name="thothahanthai" unicode="&#xe17;" horiz-adv-x="430" 
d="M328 0l47 258.001c7.33301 36 3.16602 63.833 -12.501 83.5s-39.834 29.5 -72.501 29.5c-34 0 -64.167 -10.667 -90.5 -32s-43.166 -50.333 -50.499 -87l-46 -252h-43l74 404h43l-9 -48c36.667 34.667 79.667 52 129 52c46 0 79.833 -13.333 101.5 -40
s27.834 -63.334 18.501 -110.001l-47 -258h-42z" />
    <glyph glyph-name="thothongthai" unicode="&#xe18;" horiz-adv-x="388" 
d="M86 174l41.999 -0.00195312l-15 -82c-2 -8.66699 -1.16699 -16.667 2.5 -24s9.16699 -13.666 16.5 -18.999s16 -9.5 26 -12.5s20.667 -4.5 32 -4.5c40 0 71.833 8.5 95.5 25.5s38.167 39.5 43.5 67.5c3.33301 21.333 0.166016 39 -9.50098 53s-27.167 22 -52.5 24l-67 7
c-78.667 6 -113 38.333 -103 97c2.66699 15.333 8.83398 29.333 18.501 42s21.834 23.5 36.501 32.5s31.167 15.833 49.5 20.5s37.833 7 58.5 7c28 0 53.5 -3.66699 76.5 -11s42.167 -17.666 57.5 -30.999l-33 -28c-14 11.333 -29.667 19.833 -47 25.5
s-37.666 8.5 -60.999 8.5c-31.333 0 -57.333 -5.66699 -78 -17s-33 -27.666 -37 -48.999c-6.66699 -35.333 17.333 -55.333 72 -60l65 -6c16 -1.33301 30.667 -4.5 44 -9.5s24.5 -12 33.5 -21s15.167 -20.5 18.5 -34.5s3.33301 -30.667 0 -50
c-3.33301 -18 -10.333 -35 -21 -51s-24 -29.833 -40 -41.5s-34.667 -20.834 -56 -27.501s-44.333 -10 -69 -10c-15.333 0 -30.333 1.83301 -45 5.5s-27.834 9.5 -39.501 17.5s-20.5 18 -26.5 30s-7.33301 26.333 -4 43z" />
    <glyph glyph-name="nonuthai" unicode="&#xe19;" horiz-adv-x="430" 
d="M176 404l-47 -258.001c-7.33301 -36 -3.16602 -63.833 12.501 -83.5s39.834 -29.5 72.501 -29.5c34 0 64.167 10.667 90.5 32s43.166 50.333 50.499 87l46 252h43l-74 -404h-43l8 48c-35.333 -34.667 -78 -52 -128 -52c-46 0 -79.833 13.333 -101.5 40
s-27.834 63.334 -18.501 110.001l47 258h42z" />
    <glyph glyph-name="bobaimaithai" unicode="&#xe1a;" horiz-adv-x="430" 
d="M214 -5c-46 0 -80.999 13.167 -104.999 39.5s-31.667 63.166 -23 110.499l48 259h43l-48 -260c-7.33301 -38 -2.33301 -66.167 15 -84.5s42.666 -27.5 75.999 -27.5s62 9.16699 86 27.5s39.667 46.5 47 84.5l48 260h43l-48 -259
c-9.33301 -49.333 -31 -86.666 -65 -111.999s-73 -38 -117 -38z" />
    <glyph glyph-name="poplathai" unicode="&#xe1b;" horiz-adv-x="430" 
d="M214 -5c-46 0 -80.999 13.167 -104.999 39.5s-31.667 63.166 -23 110.499l48 259h43l-48 -260c-7.33301 -38 -2.33301 -66.167 15 -84.5s42.666 -27.5 75.999 -27.5s62 9.16699 86 27.5s39.667 46.5 47 84.5l84 454h43l-84 -453
c-9.33301 -49.333 -31 -86.666 -65 -111.999s-73 -38 -117 -38z" />
    <glyph glyph-name="phophungthai" unicode="&#xe1c;" horiz-adv-x="441" 
d="M128 141c-5.33301 -25.333 -4.83203 -45.833 1.50098 -61.5s16.833 -28.167 31.5 -37.5l61 52c5.33301 5.33301 11.166 8 17.499 8s11.166 -2.66699 14.499 -8l41 -52c18.667 9.33301 33.834 22 45.501 38s19.834 36.333 24.501 61l48 263h42l-48 -263
c-6.66699 -35.333 -21.5 -66.333 -44.5 -93s-51.833 -43.667 -86.5 -51l-46 61l-67 -61c-32.667 10 -55.334 28 -68.001 54s-15.667 56 -9 90l29 158c6 32 18.667 57.5 38 76.5s45.333 28.5 78 28.5h37l-7 -38h-37c-19.333 0 -34.333 -6 -45 -18s-18 -28.667 -22 -50z" />
    <glyph glyph-name="fofathai" unicode="&#xe1d;" horiz-adv-x="441" 
d="M128 141c-5.33301 -25.333 -4.83008 -45.833 1.50293 -61.5s16.833 -28.167 31.5 -37.5l61 52c5.33301 5.33301 11.166 8 17.499 8s11.166 -2.66699 14.499 -8l41 -52c18.667 9.33301 33.667 22 45 38s19.333 36.333 24 61l84 457h43l-84 -457
c-6.66699 -35.333 -21.5 -66.333 -44.5 -93s-51.833 -43.667 -86.5 -51l-46 61l-67 -61c-32.667 10 -55.334 28 -68.001 54s-15.667 56 -9 90l29 158c6 32 18.667 57.5 38 76.5s45.333 28.5 78 28.5h37l-7 -38h-37c-19.333 0 -34.333 -6 -45 -18s-18 -28.667 -22 -50z" />
    <glyph glyph-name="phophanthai" unicode="&#xe1e;" horiz-adv-x="532" 
d="M357 404l56 -342l114 342h43l-140 -404h-43l-60 334l-182 -334h-44l9 404h44l-13 -342l182 342h34z" />
    <glyph glyph-name="fofanthai" unicode="&#xe1f;" horiz-adv-x="532" 
d="M357 404l56 -342l181 536h43l-207 -598h-43l-60 334l-182 -334h-44l9 404h44l-13 -342l182 342h34z" />
    <glyph glyph-name="phosamphaothai" unicode="&#xe20;" horiz-adv-x="452" 
d="M395 253c8 42.667 2.3291 72.998 -17.0039 90.998s-48 27 -86 27c-22.667 0 -46.167 -4.66699 -70.5 -14s-48.166 -26.333 -71.499 -51l24 -50l-30 -164c-4 -20.667 -10.167 -37.167 -18.5 -49.5s-17.5 -21.666 -27.5 -27.999s-20.167 -10.333 -30.5 -12
s-19.166 -2.5 -26.499 -2.5v38c12.667 -0.666992 22.834 1 30.501 5s13.5 9.33301 17.5 16s6.83301 13.834 8.5 21.501l4.5 21.5l28 148l-27 53c52.667 70 118.334 105 197.001 105c56.667 0 96.167 -13.333 118.5 -40s28.833 -65 19.5 -115l-46 -253h-43z" />
    <glyph glyph-name="momathai" unicode="&#xe21;" horiz-adv-x="430" 
d="M444 404l-46.998 -257.999c-9.33301 -46.667 -29.5 -83.334 -60.5 -110.001s-69.5 -40 -115.5 -40c-49.333 0 -86 17.333 -110 52l-8 -48h-43l74 404h43l-46 -252c-3.33301 -18 -3.33301 -34.333 0 -49s9.33301 -27.167 18 -37.5s19.667 -18.333 33 -24
s28.666 -8.5 45.999 -8.5c32.667 0 60.167 9.83301 82.5 29.5s37.166 47.5 44.499 83.5l47 258h42z" />
    <glyph glyph-name="yoyakthai" unicode="&#xe22;" horiz-adv-x="427" 
d="M97 301c5.33301 29.333 17.998 53.833 37.998 73.5s46 29.5 78 29.5h54l-7 -38h-46c-24 0 -41.5 -5.5 -52.5 -16.5s-18.5 -26.833 -22.5 -47.5c-3.33301 -21.333 2.5 -38.166 17.5 -50.499s41.5 -18.5 79.5 -18.5l-7 -34c-38 0 -66.833 -7.33301 -86.5 -22
s-32.167 -35 -37.5 -61c-4.66699 -23.333 2.5 -43.166 21.5 -59.499s46.5 -24.5 82.5 -24.5c23.333 0 43.333 3.33301 60 10s30.667 15.834 42 27.501s20.333 25.667 27 42s11.667 34.166 15 53.499l44 239h44l-44 -239c-9.33301 -52.667 -29.166 -94.334 -59.499 -125.001
s-75.5 -46 -135.5 -46c-35.333 0 -62.666 5 -81.999 15s-33.5 21.833 -42.5 35.5s-14 27.5 -15 41.5s-0.5 25.333 1.5 34c4 21.333 12.667 40.333 26 57s33 29.667 59 39c-22 6.66699 -36.833 17.667 -44.5 33s-10.167 32.666 -7.5 51.999z" />
    <glyph glyph-name="roruathai" unicode="&#xe23;" horiz-adv-x="343" 
d="M332 113c-2.66699 -16 -8.16895 -31.002 -16.502 -45.002s-19.5 -26.5 -33.5 -37.5s-30.667 -19.667 -50 -26s-41 -9.5 -65 -9.5c-17.333 0 -32.5 1.16699 -45.5 3.5s-24.667 5.83301 -35 10.5s-19.833 10.667 -28.5 18s-17 15.666 -25 24.999l35 30
c12.667 -16.667 25.834 -29.167 39.501 -37.5s34.834 -12.5 63.501 -12.5c38.667 0 67 8 85 24s29 35 33 57c2.66699 12.667 2.83398 23.334 0.500977 32.001s-6.5 15.834 -12.5 21.501s-13.333 10.334 -22 14.001s-18 6.5 -28 8.5l-32 7c-36 8 -62.833 19.667 -80.5 35
s-23.834 38 -18.501 68s20.5 55.667 45.5 77s58.5 32 100.5 32c28 0 50.5 -3.66699 67.5 -11s33.167 -17.666 48.5 -30.999l-34 -28c-13.333 11.333 -26 19.833 -38 25.5s-29 8.5 -51 8.5c-30 0 -52.833 -7 -68.5 -21s-25.5 -31.333 -29.5 -52
c-3.33301 -19.333 0.666992 -33.333 12 -42s30 -16.334 56 -23.001l37 -9c15.333 -3.33301 29.333 -7.66602 42 -12.999s23.167 -12.333 31.5 -21s14 -19.334 17 -32.001s2.83301 -28 -0.5 -46z" />
    <glyph glyph-name="ruthai" unicode="&#xe24;" horiz-adv-x="434" 
d="M113 250l-27 53.001c52.667 70 118.334 105 197.001 105c56.667 0 96 -13.333 118 -40s28.333 -65 19 -115l-74 -404h-42l74 404c8 42 2.83301 72.167 -15.5 90.5s-47.5 27.5 -87.5 27.5c-22.667 0 -46.5 -4.83301 -71.5 -14.5s-48.5 -26.834 -70.5 -51.501l23 -49
l-30 -163c-3.33301 -16.667 -3.33301 -30 0 -40s14.666 -15 33.999 -15h29l-7 -38h-37c-28 0 -46.5 8.16699 -55.5 24.5s-10.833 38.833 -5.5 67.5z" />
    <glyph glyph-name="lolingthai" unicode="&#xe25;" horiz-adv-x="403" 
d="M176 -5c-20 0.666992 -38.6709 2.83496 -56.0039 6.50195s-32 10 -44 19s-20.5 21 -25.5 36s-5.16699 34.167 -0.5 57.5c6.66699 37.333 24.334 67.166 53.001 89.499s65.334 33.5 110.001 33.5h130l7 35c6 32.667 1.83301 57.334 -12.5 74.001s-42.166 25 -83.499 25
c-27.333 0 -50.166 -4 -68.499 -12s-37.166 -21 -56.499 -39l-27 28c22.667 19.333 45.667 34.166 69 44.499s53.333 15.5 90 15.5c54 0 91.5 -11.333 112.5 -34s27.833 -55.334 20.5 -98.001l-51 -276h-43l37 200h-126c-34.667 0 -61.834 -7.33301 -81.501 -22
s-32.167 -35.667 -37.5 -63c-5.33301 -26.667 -0.833008 -47.167 13.5 -61.5s39.833 -21.5 76.5 -21.5z" />
    <glyph glyph-name="luthai" unicode="&#xe26;" horiz-adv-x="452" 
d="M395 253c8 42.667 2.3291 72.998 -17.0039 90.998s-48 27 -86 27c-22.667 0 -46.167 -4.66699 -70.5 -14s-48.166 -26.333 -71.499 -51l24 -50l-30 -164c-4 -20.667 -10.167 -37.167 -18.5 -49.5s-17.5 -21.666 -27.5 -27.999s-20.167 -10.333 -30.5 -12
s-19.166 -2.5 -26.499 -2.5v38c12.667 -0.666992 22.834 1 30.501 5s13.5 9.33301 17.5 16s6.83301 13.834 8.5 21.501l4.5 21.5l28 148l-27 53c52.667 70 118.334 105 197.001 105c56.667 0 96.167 -13.333 118.5 -40s28.833 -65 19.5 -115l-74 -403h-43z" />
    <glyph glyph-name="wowaenthai" unicode="&#xe27;" horiz-adv-x="340" 
d="M78 73c7.33301 -12.667 18.1689 -22.3359 32.502 -29.0029s29.833 -10 46.5 -10c36 0 64.5 12 85.5 36s34.833 53.333 41.5 88l5 27c1.33301 7.33301 2.5 14.166 3.5 20.499s2.16699 12.666 3.5 18.999s2.66602 14.166 3.99902 23.499
c3.33301 16.667 4.5 32.334 3.5 47.001s-4.66699 27.5 -11 38.5s-15.5 19.833 -27.5 26.5s-27.333 10 -46 10c-20.667 0 -40.834 -5.16699 -60.501 -15.5s-35.5 -24.833 -47.5 -43.5l-31 19c17.333 24.667 39 43.834 65 57.501s53 20.5 81 20.5
c46 0 79.167 -14.667 99.5 -44s25.833 -68 16.5 -116c-2 -13.333 -3.5 -22.666 -4.5 -27.999s-1.83301 -10.166 -2.5 -14.499s-1.66699 -9.66602 -3 -15.999s-3.33301 -17.166 -6 -32.499c-4 -22 -10.667 -42.667 -20 -62s-21.333 -36.333 -36 -51s-32 -26.334 -52 -35.001
s-42.667 -13 -68 -13c-22.667 0 -43.5 4.33301 -62.5 13s-33.5 21.334 -43.5 38.001z" />
    <glyph glyph-name="sosalathai" unicode="&#xe28;" horiz-adv-x="445" 
d="M102 0l-42.0029 0.000976562l47 258c4.66699 25.333 12.834 47.5 24.501 66.5s25.834 34.667 42.501 47s35.334 21.5 56.001 27.5s42.667 9 66 9c38.667 0 69.667 -8 93 -24l90 77l24 -28l-89 -74c18 -24 23 -57.667 15 -101l-47 -258h-42l47 258
c7.33301 40 2.33301 68.833 -15 86.5s-45 26.5 -83 26.5s-69 -8.83301 -93 -26.5s-39.667 -46.5 -47 -86.5l-7 -40c6 5.33301 13.333 9.66602 22 12.999s20.334 5 35.001 5h71l-6 -34h-63c-24 0 -41.333 -5.66699 -52 -17s-18.334 -28.333 -23.001 -51z" />
    <glyph glyph-name="sorusithai" unicode="&#xe29;" horiz-adv-x="442" 
d="M214 -5c-46 0 -80.999 13.167 -104.999 39.5s-31.667 63.166 -23 110.499l48 259h43l-48 -260c-7.33301 -38 -2.33301 -66.167 15 -84.5s42.666 -27.5 75.999 -27.5s62 9.16699 86 27.5s39.667 46.5 47 84.5l11 58h-71c-7.33301 0 -14.333 1 -21 3s-12.5 5.5 -17.5 10.5
s-8.5 12 -10.5 21s-1.66699 20.5 1 34.5h39c-4.66699 -23.333 3 -35 23 -35h63l31 168h43l-31 -168h52l-6 -34h-52l-11 -57c-9.33301 -49.333 -31 -86.666 -65 -111.999s-73 -38 -117 -38z" />
    <glyph glyph-name="sosuathai" unicode="&#xe2a;" horiz-adv-x="403" 
d="M176 -5c-20 0.666992 -38.6709 2.83398 -56.0039 6.50098s-32 10 -44 19s-20.5 21 -25.5 36s-5.16699 34.167 -0.5 57.5c6.66699 37.333 24.334 67.166 53.001 89.499s65.334 33.5 110.001 33.5h130l7 35c6 32.667 1.83301 57.334 -12.5 74.001s-42.166 25 -83.499 25
c-27.333 0 -50.166 -4 -68.499 -12s-37.166 -21 -56.499 -39l-27 28c22.667 19.333 45.667 34.166 69 44.499s53.333 15.5 90 15.5c40.667 0 72.667 -7.33301 96 -22l88 75l24 -28l-87 -72c14 -20 18 -48.333 12 -85l-51 -276h-43l37 200h-126
c-34.667 0 -61.834 -7.33301 -81.501 -22s-32.167 -35.667 -37.5 -63c-5.33301 -26.667 -0.833008 -47.167 13.5 -61.5s39.833 -21.5 76.5 -21.5z" />
    <glyph glyph-name="hohipthai" unicode="&#xe2b;" horiz-adv-x="430" 
d="M352 310c23.333 -12 38.833 -30.5 46.5 -55.5s8.83398 -51.833 3.50098 -80.5l-32 -174h-42l32 174c5.33301 28 4.16602 51.5 -3.50098 70.5s-21.167 32.5 -40.5 40.5l-185 -131l-28 -154h-43l74 404h43l-36 -198l285 203l20 -32z" />
    <glyph glyph-name="lochulathai" unicode="&#xe2c;" horiz-adv-x="537" 
d="M430 0h-43l-60 334l-182 -334h-44l9 404h44l-13 -342l182 342h34l56 -342l83 250c12 36 -3 54.333 -45 55l6 37h34c18.667 0 33.5 4.33301 44.5 13s19.5 20 25.5 34l15 33h44l-21 -46c-8.66699 -18 -19.167 -31.833 -31.5 -41.5s-26.166 -17.167 -41.499 -22.5
c17.333 -16 21.666 -36.333 12.999 -61z" />
    <glyph glyph-name="oangthai" unicode="&#xe2d;" horiz-adv-x="406" 
d="M231 202l-107.997 0.00292969c-2.66699 -13.333 -5.16699 -28 -7.5 -44s-2.83301 -29.667 -1.5 -41c1.33301 -10.667 4.16602 -21 8.49902 -31s10.5 -19 18.5 -27s17.667 -14.333 29 -19s24.666 -7 39.999 -7c24 0 44.5 4.66699 61.5 14s31.333 21.666 43 36.999
s21.167 33.333 28.5 54s13 42 17 64c4 20 6 40 6 60s-3.33301 38.167 -10 54.5s-17.667 29.5 -33 39.5s-36.333 15 -63 15c-24 0 -44.833 -3.83301 -62.5 -11.5s-36.834 -20.167 -57.501 -37.5l-28 26c24.667 20 48.667 35.167 72 45.5s51.666 15.5 84.999 15.5
c56 0 95.5 -17.333 118.5 -52s28.167 -86.334 15.5 -155.001c-12 -64.667 -35.667 -115.334 -71 -152.001s-78.333 -55 -129 -55c-38 0 -68.167 10 -90.5 30s-35.166 48 -38.499 84c-1.33301 6 -1.5 14.167 -0.5 24.5s2.16699 21.333 3.5 33s3 23.667 5 36s4 23.5 6 33.5
h149z" />
    <glyph glyph-name="honokhukthai" unicode="&#xe2e;" horiz-adv-x="402" 
d="M72 109c-1.33301 6 -1.49707 14.1689 -0.49707 24.502s2.16699 21.333 3.5 33s3 23.667 5 36s4 23.5 6 33.5h149l-6 -34h-108c-2.66699 -13.333 -5.16699 -28 -7.5 -44s-2.83301 -29.667 -1.5 -41c1.33301 -10.667 4.16602 -21 8.49902 -31s10.5 -19 18.5 -27
s17.667 -14.333 29 -19s24.666 -7 39.999 -7c24 0 44.5 4.66699 61.5 14s31.333 21.666 43 36.999s21.167 33.333 28.5 54s13 42 17 64c4 20 6 40 6 60s-3.33301 38.167 -10 54.5s-17.667 29.5 -33 39.5s-36.333 15 -63 15c-24 0 -44.833 -3.83301 -62.5 -11.5
s-36.834 -20.167 -57.501 -37.5l-28 26c24.667 20 48.667 35.167 72 45.5s51.666 15.5 84.999 15.5c34.667 0 63.667 -7.33301 87 -22l93 79l24 -28l-90 -75c26 -35.333 32.667 -89 20 -161c-12 -64.667 -35.667 -115.334 -71 -152.001s-78.333 -55 -129 -55
c-38 0 -68.167 10 -90.5 30s-35.166 48 -38.499 84z" />
    <glyph glyph-name="paiyannoithai" unicode="&#xe2f;" horiz-adv-x="409" 
d="M342 203c-6 -7.33301 -13.834 -14 -23.501 -20s-20 -11.167 -31 -15.5s-22.333 -7.66602 -34 -9.99902s-22.5 -3.5 -32.5 -3.5c-46.667 0 -81.667 12.167 -105 36.5s-31 58.5 -23 102.5c5.33301 32 18 58.5 38 79.5s46.333 31.5 79 31.5h37l-7 -38h-30
c-23.333 0 -40.666 -6.66699 -51.999 -20s-19 -31 -23 -53c-6 -32.667 -1 -57.834 15 -75.501s42 -26.5 78 -26.5c74 0 118.667 39 134 117l17 96h44l-74 -404h-44z" />
    <glyph glyph-name="saraathai" unicode="&#xe30;" horiz-adv-x="239" 
d="M138 336c-4.66699 -23.333 2.66699 -35 22 -35h87l-6 -34h-95c-7.33301 0 -14.333 1 -21 3s-12.5 5.5 -17.5 10.5s-8.5 12 -10.5 21s-1.66699 20.5 1 34.5h40zM102.001 141c-4.66699 -23.333 2.66699 -35 22 -35h87l-6 -34h-95c-7.33301 0 -14.333 1 -21 3
s-12.5 5.5 -17.5 10.5s-8.5 12 -10.5 21s-1.66699 20.5 1 34.5h40z" />
    <glyph glyph-name="maihanakatthai" unicode="&#xe31;" 
d="M-82 563c-2.66699 -12 -2.5 -20.833 0.5 -26.5s9.83301 -8.5 20.5 -8.5h174l-6 -34h-182c-7.33301 0 -14.333 1 -21 3s-12.5 5.5 -17.5 10.5s-8.5 12 -10.5 21s-1.66699 20.5 1 34.5h41z" />
    <glyph glyph-name="saraaathai" unicode="&#xe32;" horiz-adv-x="297" 
d="M67 354c13.333 17.333 30.5 30.667 51.5 40s44.833 14 71.5 14c40.667 0 69 -11.167 85 -33.5s20.333 -54.166 13 -95.499l-51 -279h-42l51 277c4.66699 28.667 2.66699 51.5 -6 68.5s-27.667 25.5 -57 25.5c-18.667 0 -35.5 -3.33301 -50.5 -10
s-27.167 -16.334 -36.5 -29.001z" />
    <glyph glyph-name="saraamthai" unicode="&#xe33;" horiz-adv-x="297" 
d="M-45 548c3.33301 18 12.5 33.333 27.5 46s31.167 19 48.5 19s31.166 -6.33301 41.499 -19s13.833 -28 10.5 -46c-3.33301 -17.333 -12.5 -32.333 -27.5 -45s-31.167 -19 -48.5 -19s-31.166 6.33301 -41.499 19s-13.833 27.667 -10.5 45zM-13 548
c-1.33301 -9.33301 0.499023 -17 5.49902 -23s11.833 -9 20.5 -9c9.33301 0 17.833 3 25.5 9s12.167 13.667 13.5 23c2 9.33301 0.333008 17.166 -5 23.499s-12.666 9.5 -21.999 9.5s-17.5 -3.16699 -24.5 -9.5s-11.5 -14.166 -13.5 -23.499zM66.999 354
c13.333 17.333 30.5 30.667 51.5 40s44.833 14 71.5 14c40.667 0 69 -11.167 85 -33.5s20.333 -54.166 13 -95.499l-51 -279h-42l51 277c4.66699 28.667 2.66699 51.5 -6 68.5s-27.667 25.5 -57 25.5c-18.667 0 -35.5 -3.33301 -50.5 -10s-27.167 -16.334 -36.5 -29.001z
" />
    <glyph glyph-name="saraithai" unicode="&#xe34;" 
d="M-272 528h309l-6 -34h-309z" />
    <glyph glyph-name="saraiithai" unicode="&#xe35;" 
d="M-272 528h267l12 70h43l-19 -104h-309z" />
    <glyph glyph-name="sarauethai" unicode="&#xe36;" 
d="M-277 494l5.99805 34.001h200c-1.33301 2.66699 -2.33301 6.5 -3 11.5s-0.666992 9.83301 0 14.5c3.33301 17.333 11.833 31.833 25.5 43.5s28.834 17.5 45.501 17.5s29.834 -5.83301 39.501 -17.5s12.834 -26.167 9.50098 -43.5
c-3.33301 -16.667 -11.833 -30.834 -25.5 -42.501s-28.834 -17.5 -45.501 -17.5h-252zM-43.002 554.001c-1.33301 -8 0.498047 -14.833 5.49805 -20.5s11.167 -8.5 18.5 -8.5c8.66699 0 16.334 2.83301 23.001 8.5s10.667 12.5 12 20.5
c1.33301 8.66699 -0.333984 15.834 -5.00098 21.501s-11 8.5 -19 8.5c-7.33301 0 -14.666 -2.83301 -21.999 -8.5s-11.666 -12.834 -12.999 -21.501z" />
    <glyph glyph-name="saraueethai" unicode="&#xe37;" 
d="M-274 528h195l13 70h38l-13 -70h41l12 70h38l-19 -104h-311z" />
    <glyph glyph-name="sarauthai" unicode="&#xe38;" 
d="M-128 -137c3.33301 15.333 3.33203 25 -0.000976562 29s-10.666 6 -21.999 6h-12l6 37h17c25.333 0 42 -4.33301 50 -13s9.33301 -28 4 -58l-10 -55h-43z" />
    <glyph glyph-name="sarauuthai" unicode="&#xe39;" 
d="M-234 -121c1.33301 8 1.00098 13.332 -0.999023 15.999s-6.66699 4 -14 4h-13l6 36h24c19.333 0 31.666 -3.83301 36.999 -11.5s6.33301 -20.834 3 -39.501c-0.666992 -3.33301 -0.833984 -4.16602 -0.500977 -2.49902s0.166016 0.833984 -0.500977 -2.49902
c-1.33301 -7.33301 -0.166016 -15 3.50098 -23s12.167 -12 25.5 -12c14 0 23.833 4 29.5 12s9.16699 15.667 10.5 23l10 56h42l-10 -56c-4 -21.333 -14.333 -38.333 -31 -51s-36 -19 -58 -19c-23.333 0 -40.666 6.33301 -51.999 19s-15 29.667 -11 51z" />
    <glyph glyph-name="phinthuthai" unicode="&#xe3a;" 
d="M-133 -98c2 9.33301 6.66895 17.166 14.002 23.499s15.666 9.5 24.999 9.5s16.666 -3.16699 21.999 -9.5s7 -14.166 5 -23.499c-1.33301 -9.33301 -5.83301 -17.166 -13.5 -23.499s-16.167 -9.5 -25.5 -9.5s-16.5 3.16699 -21.5 9.5s-6.83301 14.166 -5.5 23.499z" />
    <glyph glyph-name="PUCR2005" unicode="&#xe3e;" 
 />
    <glyph glyph-name="bahtthai" unicode="&#xe3f;" horiz-adv-x="477" 
d="M454 138c-8.66699 -46 -29.1699 -80.499 -61.5029 -103.499s-72.166 -34.5 -119.499 -34.5h-21l-10 -49h-42l10 49h-140l93 505h140l9 47h42l-9 -47h15c44 0 78.5 -11.5 103.5 -34.5s33.833 -55.5 26.5 -97.5c-5.33301 -26 -16.666 -49.333 -33.999 -70
s-40 -35.334 -68 -44.001c26 -9.33301 44.833 -24.5 56.5 -45.5s14.834 -46.167 9.50098 -75.5zM411.997 138.001c6 32 -0.166992 57 -18.5 75s-45.5 27 -81.5 27h-16l-38 -204h16c36 0 66.5 9 91.5 27s40.5 43 46.5 75zM447.997 373.001c2.66699 17.333 2 32.166 -2 44.499
s-10.5 22.333 -19.5 30s-20.333 13.334 -34 17.001s-28.5 5.5 -44.5 5.5h-9l-36 -194h9c32 0 61 7.66699 87 23s42.333 40 49 74zM118.997 36.001h97l38 204h-97zM163.997 276.001h97l36 194h-97z" />
    <glyph glyph-name="saraethai" unicode="&#xe40;" horiz-adv-x="180" 
d="M134 404h43.001l-57 -311c-3.33301 -16.667 -3.33301 -30 0 -40s14.666 -15 33.999 -15h29l-7 -38h-37c-28 0 -46.667 8.16699 -56 24.5s-11.333 38.833 -6 67.5z" />
    <glyph glyph-name="saraaethai" unicode="&#xe41;" horiz-adv-x="371" 
d="M134 404h43.001l-57 -311c-3.33301 -16.667 -3.33301 -30 0 -40s14.666 -15 33.999 -15h29l-7 -38h-37c-28 0 -46.667 8.16699 -56 24.5s-11.333 38.833 -6 67.5zM325.001 404h43.001l-57 -311c-3.33301 -16.667 -3.33301 -30 0 -40s14.666 -15 33.999 -15h29l-7 -38h-37
c-28 0 -46.667 8.16699 -56 24.5s-11.333 38.833 -6 67.5z" />
    <glyph glyph-name="saraothai" unicode="&#xe42;" horiz-adv-x="209" 
d="M170 475c4.66699 26.667 2 47.665 -8 62.998s-27 23.333 -51 24l14 34h222l-6 -33h-149c12.667 -13.333 19.834 -28.666 21.501 -45.999s1.16699 -31.666 -1.5 -42.999l-70 -378c-1.33301 -8 -2.33301 -15.667 -3 -23s0 -13.5 2 -18.5s5.83301 -9 11.5 -12
s13.5 -4.5 23.5 -4.5h29l-7 -38h-37c-29.333 0 -48.333 9 -57 27s-10.334 40.667 -5.00098 68z" />
    <glyph glyph-name="saraaimaimuanthai" unicode="&#xe43;" horiz-adv-x="209" 
d="M149 364c1.33301 6 2.49805 11.6689 3.49805 17.002s2.66699 10.833 5 16.5s5.83301 11.5 10.5 17.5s11 13 19 21l50 48c13.333 13.333 21.833 23.666 25.5 30.999s5.83398 12.666 6.50098 15.999c3.33301 19.333 -0.666992 32.5 -12 39.5s-24.666 10.5 -39.999 10.5
c-12 0 -25.167 -3.5 -39.5 -10.5s-25.833 -21.167 -34.5 -42.5l-38 7c4.66699 14 11.334 26.167 20.001 36.5s18.5 19 29.5 26s22.5 12.333 34.5 16s23.667 5.5 35 5.5c34 0 58 -7.83301 72 -23.5s18.333 -37.167 13 -64.5c-2.66699 -12 -7.83398 -23.333 -15.501 -34
s-19.167 -23.667 -34.5 -39l-46 -45c-9.33301 -8.66699 -14.666 -16.5 -15.999 -23.5l-5 -27.5l-50 -266c-1.33301 -8 -2.33301 -15.667 -3 -23s0 -13.5 2 -18.5s5.83301 -9 11.5 -12s13.5 -4.5 23.5 -4.5h29l-7 -38h-37c-29.333 0 -48.333 9 -57 27
s-10.334 40.667 -5.00098 68z" />
    <glyph glyph-name="saraaimaimalaithai" unicode="&#xe44;" horiz-adv-x="216" 
d="M149 96c-1.33301 -8 -2.33105 -15.667 -2.99805 -23s0 -13.5 2 -18.5s5.83301 -9 11.5 -12s13.5 -4.5 23.5 -4.5h29l-7 -38h-36c-29.333 0 -48.5 9 -57.5 27s-10.833 40.667 -5.5 68l70 379c1.33301 6 3.16602 12.667 5.49902 20s5.66602 15 9.99902 23
s9.66602 16 15.999 24s13.833 15.333 22.5 22h-141l6 33h214l2 -34c-25.333 -0.666992 -45.666 -8.66699 -60.999 -24s-25.333 -36.333 -30 -63z" />
    <glyph glyph-name="lakkhangyaothai" unicode="&#xe45;" horiz-adv-x="297" 
d="M67 354c13.333 17.333 30.5 30.667 51.5 40s44.833 14 71.5 14c40.667 0 69 -11.167 85 -33.5s20.333 -54.166 13 -95.499l-79 -430h-42l79 428c4.66699 28.667 2.66699 51.5 -6 68.5s-27.667 25.5 -57 25.5c-18.667 0 -35.5 -3.33301 -50.5 -10
s-27.167 -16.334 -36.5 -29.001z" />
    <glyph glyph-name="maiyamokthai" unicode="&#xe46;" horiz-adv-x="416" 
d="M190 363l-11.9961 -5.99707c-4 -2 -8 -5.16699 -12 -9.5s-7.66699 -10.333 -11 -18s-6.33301 -17.834 -9 -30.501l-4 -22.5c-1.33301 -7.66699 -1.33301 -14.667 0 -21s4.5 -11.5 9.5 -15.5s12.833 -6 23.5 -6h4l-6 -31h-11c-11.333 0 -21.333 1.5 -30 4.5
s-15.834 8.16699 -21.501 15.5s-9.16699 17.166 -10.5 29.499s-0.333008 27.833 3 46.5c5.33301 30 15.333 53.167 30 69.5s37.667 28.5 69 36.5l66 -65l88 65c9.33301 -3.33301 18.166 -7.33301 26.499 -12s15.166 -10.5 20.499 -17.5s9.16602 -15.333 11.499 -25
s2.16602 -20.5 -0.500977 -32.5l-86 -469h-43l86 468c2 9.33301 1.5 18.166 -1.5 26.499s-8.83301 14.833 -17.5 19.5l-79 -57c-4 -2.66699 -8.16699 -4.16699 -12.5 -4.5s-8.16602 1.16699 -11.499 4.5z" />
    <glyph glyph-name="maitaikhuthai" unicode="&#xe47;" 
d="M-162 620c-8 0 -15.332 -1.66992 -21.999 -5.00293s-12.5 -7.5 -17.5 -12.5s-9 -10.333 -12 -16s-4.83301 -10.5 -5.5 -14.5c-2 -9.33301 -1.5 -18.5 1.5 -27.5s9.16699 -15.833 18.5 -20.5l68 37c9.33301 6 17.333 6 24 0l58 -37c10 4 17.833 9.83301 23.5 17.5
s8.16699 18.834 7.5 33.501h37c1.33301 -23.333 -5.83398 -43.166 -21.501 -59.499s-35.167 -26.5 -58.5 -30.5l-63 45l-79 -45c-19.333 6 -34.666 15.833 -45.999 29.5s-14.333 32.834 -9 57.501c2 10 5.66699 19.667 11 29s12.166 17.666 20.499 24.999s18 13.333 29 18
s22.833 7.33398 35.5 8.00098h222l-6 -32h-216z" />
    <glyph glyph-name="maiekthai" unicode="&#xe48;" 
d="M42 774h41l-23 -124h-41z" />
    <glyph glyph-name="maithothai" unicode="&#xe49;" 
d="M150 685l-6 -35.001h-200l6 32c3.33301 0 6.66602 0.333008 9.99902 1s6.5 1 9.5 1s6.16699 0.666992 9.5 2c5.33301 1.33301 11.166 4.33301 17.499 9s10.833 13 13.5 25c1.33301 9.33301 -0.666992 16.5 -6 21.5s-14 6.83301 -26 5.5l7 36
c23.333 0 40.833 -4.5 52.5 -13.5s15.834 -23.833 12.501 -44.5c-3.33301 -15.333 -11.666 -28.666 -24.999 -39.999h125z" />
    <glyph glyph-name="maitrithai" unicode="&#xe4a;" 
d="M158 683l-6.00293 -32.9961h-121l12 63c2.66699 14 1.33398 23.833 -3.99902 29.5s-9.66602 9.16699 -12.999 10.5l-35 -33c-4.66699 -4.66699 -10 -7 -16 -7c-4.66699 0 -8.66699 2.33301 -12 7l-30 33c-4.66699 -1.33301 -10.667 -4.5 -18 -9.5
s-12.333 -14.5 -15 -28.5c-1.33301 -8.66699 0.666992 -16.334 6 -23.001s14.333 -10 27 -10l-7 -35h-6c-20 0 -35.5 6.66699 -46.5 20s-14.833 28.666 -11.5 45.999c3.33301 20 10.833 35.333 22.5 46s23.167 19 34.5 25c5.33301 2 10.833 3.5 16.5 4.5
s11.167 -1.5 16.5 -7.5l30 -31l33 31c6 5.33301 12.333 7.66602 19 6.99902s11.667 -2 15 -4c9.33301 -6.66699 17.833 -15.334 25.5 -26.001s9.83398 -25.667 6.50098 -45l-6 -30h83z" />
    <glyph glyph-name="maichattawathai" unicode="&#xe4b;" 
d="M-27 702l6 35h58l10 54h39l-10 -54h59l-6 -35h-59l-10 -52h-39l10 52h-58z" />
    <glyph glyph-name="thanthakhatthai" unicode="&#xe4c;" 
d="M9 601c2.66699 14.667 6.66699 26.5 12 35.5s11.5 16 18.5 21s14.167 8.33301 21.5 10s14.666 2.5 21.999 2.5h78l-7 -34h-73c-11.333 0 -18.666 -2.83301 -21.999 -8.5s-6 -14.5 -8 -26.5h-42z" />
    <glyph glyph-name="nikhahitthai" unicode="&#xe4d;" 
d="M-30 621c3.33301 18 12.333 33.333 27 46s31 19 49 19c17.333 0 31.166 -6.33301 41.499 -19s13.833 -28 10.5 -46c-3.33301 -17.333 -12.5 -32.333 -27.5 -45s-31.167 -19 -48.5 -19s-31.166 6.33301 -41.499 19s-13.833 27.667 -10.5 45zM1 621
c-1.33301 -9.33301 0.500977 -17 5.50098 -23s12.167 -9 21.5 -9s17.666 3 24.999 9s12 13.667 14 23c1.33301 9.33301 -0.5 17.166 -5.5 23.499s-12.167 9.5 -21.5 9.5s-17.833 -3.16699 -25.5 -9.5s-12.167 -14.166 -13.5 -23.499z" />
    <glyph glyph-name="yamakkanthai" unicode="&#xe4e;" 
d="M50 531c-6 0 -10.333 -3.49902 -13 -10.499s-5 -15.5 -7 -25.5h-41c5.33301 26 12.5 43.5 21.5 52.5s19.5 13.5 31.5 13.5c2 9.33301 5.33301 16.5 10 21.5s10 8.66699 16 11s12.333 3.66602 19 3.99902s13 0.5 19 0.5h36l-6 -34h-31c-11.333 0 -18.5 -2 -21.5 -6
s-5.83301 -13 -8.5 -27h-25z" />
    <glyph glyph-name="fongmanthai" unicode="&#xe4f;" horiz-adv-x="515" 
d="M89 200c5.33301 28 15.499 54.5 30.499 79.5s33.333 46.667 55 65s45.667 32.833 72 43.5s53.5 16 81.5 16s53.5 -5.33301 76.5 -16s42 -25.167 57 -43.5s25.667 -40 32 -65s6.83301 -51.5 1.5 -79.5s-15.666 -54.167 -30.999 -78.5s-33.833 -45.666 -55.5 -63.999
s-46 -32.833 -73 -43.5s-54.5 -16 -82.5 -16s-53.167 5.33301 -75.5 16s-41 25.167 -56 43.5s-25.5 39.666 -31.5 63.999s-6.33301 50.5 -1 78.5zM128.999 200c-4 -22 -3.66699 -42.833 1 -62.5s13 -36.834 25 -51.501s27.167 -26.334 45.5 -35.001s38.5 -13 60.5 -13
c22.667 0 44.667 4.33301 66 13s40.833 20.334 58.5 35.001s32.667 31.834 45 51.501s20.5 40.5 24.5 62.5c4 22.667 3.5 44 -1.5 64s-13.5 37.333 -25.5 52s-27.167 26.334 -45.5 35.001s-38.833 13 -61.5 13c-22 0 -43.667 -4.33301 -65 -13
s-40.833 -20.334 -58.5 -35.001s-32.5 -32 -44.5 -52s-20 -41.333 -24 -64zM182.999 200c2.66699 14.667 8.16895 28.667 16.502 42s18.166 25 29.499 35s24.166 17.833 38.499 23.5s28.833 8.5 43.5 8.5s28.167 -2.83301 40.5 -8.5s22.5 -13.5 30.5 -23.5
s13.667 -21.667 17 -35s3.66602 -27.333 0.999023 -42s-8.16699 -28.5 -16.5 -41.5s-18.333 -24.5 -30 -34.5s-24.667 -17.833 -39 -23.5s-28.833 -8.5 -43.5 -8.5s-28 2.83301 -40 8.5s-22 13.5 -30 23.5s-13.667 21.5 -17 34.5s-3.66602 26.833 -0.999023 41.5z
M223.001 200c-3.33301 -18.667 0.333008 -34.667 11 -48s25.334 -20 44.001 -20c19.333 0 37 6.66699 53 20s25.667 29.333 29 48c3.33301 19.333 -0.5 35.666 -11.5 48.999s-26.167 20 -45.5 20c-18.667 0 -35.834 -6.66699 -51.501 -20s-25.167 -29.666 -28.5 -48.999z
" />
    <glyph glyph-name="zerothai" unicode="&#xe50;" horiz-adv-x="456" 
d="M233 30c22 0 42.833 4 62.5 12s37.334 18.667 53.001 32s28.667 28.833 39 46.5s17.5 36.834 21.5 57.501c4 20 4 38.833 0 56.5s-11.333 33 -22 46s-24.5 23.333 -41.5 31s-36.5 11.5 -58.5 11.5s-42.833 -3.83301 -62.5 -11.5s-37.334 -18 -53.001 -31
s-28.667 -28.333 -39 -46s-17.5 -36.5 -21.5 -56.5c-4 -20.667 -4 -39.834 0 -57.501s11.333 -33.167 22 -46.5s24.5 -24 41.5 -32s36.5 -12 58.5 -12zM294 360c30.667 0 57 -4.66699 79 -14s39.667 -22.333 53 -39s22.166 -36 26.499 -58s4.16602 -45.667 -0.500977 -71
s-13.167 -49.166 -25.5 -71.499s-28.166 -41.833 -47.499 -58.5s-41.833 -29.667 -67.5 -39s-53.834 -14 -84.501 -14s-57 4.66699 -79 14s-39.667 22.333 -53 39s-22.333 36.167 -27 58.5s-4.66699 46.166 0 71.499s13.334 49 26.001 71s28.667 41.333 48 58
s41.833 29.667 67.5 39s53.834 14 84.501 14z" />
    <glyph glyph-name="onethai" unicode="&#xe51;" horiz-adv-x="456" 
d="M68 176c4.66699 27.333 14.002 52.168 28.002 74.501s31 41.5 51 57.5s42.667 28.5 68 37.5s51.666 13.5 78.999 13.5c28.667 0 53.834 -4.83301 75.501 -14.5s39.167 -23.167 52.5 -40.5s22.166 -38.333 26.499 -63s3.83301 -52 -1.5 -82
c-5.33301 -28.667 -13.666 -54.5 -24.999 -77.5s-25.333 -43.667 -42 -62s-35.334 -34.5 -56.001 -48.5s-42.667 -26.333 -66 -37l-14 29c41.333 21.333 76.166 47.166 104.499 77.499s47.166 70.166 56.499 119.499c4.66699 24.667 5 47 1 67s-11.333 37.167 -22 51.5
s-24.334 25.5 -41.001 33.5s-35 12 -55 12c-19.333 0 -38.666 -3.66699 -57.999 -11s-37 -17.5 -53 -30.5s-29.833 -28.5 -41.5 -46.5s-19.5 -38 -23.5 -60c-16 -83.333 15.333 -125.666 94 -126.999c-0.666992 0 -1.16699 -1.83301 -1.5 -5.5
s-1.16602 -7.83398 -2.49902 -12.501c-1.33301 -5.33301 -2.33301 -11 -3 -17c-29.333 0 -53.5 4 -72.5 12s-33.5 19.333 -43.5 34s-16 31.834 -18 51.501s-1 41.167 3 64.5z" />
    <glyph glyph-name="twothai" unicode="&#xe52;" horiz-adv-x="495" 
d="M170 462l-57.0078 -308c-4 -22 -2.16699 -40.833 5.5 -56.5s18.834 -28.334 33.501 -38.001s31.834 -16.834 51.501 -21.501s39.834 -7 60.501 -7s40.834 2.33301 60.501 7s37.834 11.834 54.501 21.501s30.834 22.334 42.501 38.001s19.5 34.5 23.5 56.5
c-0.666992 -6 -1 -8.33301 -1 -7s0.666992 6.16602 2 14.499s4.33301 23.833 9 46.5c4.66699 25.333 4.16699 47.5 -1.5 66.5s-16.834 31.833 -33.501 38.5l-64 -50c-5.33301 -5.33301 -11.166 -8 -17.499 -8s-11.166 2.66699 -14.499 8l-33 50
c-13.333 -4.66699 -24.666 -12 -33.999 -22s-16.666 -21.667 -21.999 -35l-38 13c11.333 25.333 26.666 45.333 45.999 60s40.666 25 63.999 31l39 -61l73 61c35.333 -10 59 -28 71 -54s15 -56 9 -90l-12 -62c-5.33301 -27.333 -14.666 -51 -27.999 -71
s-30.166 -36.5 -50.499 -49.5s-43.333 -22.5 -69 -28.5s-52.834 -9 -81.501 -9c-29.333 0 -56.5 3 -81.5 9s-46.333 15.333 -64 28s-30.5 28.834 -38.5 48.501s-9.33301 43.5 -4 71.5l57 309h43z" />
    <glyph glyph-name="threethai" unicode="&#xe53;" horiz-adv-x="487" 
d="M303 245c-12.667 -9.33301 -22.668 -9.33203 -30.001 0.000976562l-68 67c-9.33301 -5.33301 -19 -12.5 -29 -21.5s-19.333 -19.5 -28 -31.5s-16.334 -24.833 -23.001 -38.5s-11.334 -27.834 -14.001 -42.501c-3.33301 -20 -4.33301 -38.833 -3 -56.5s5.5 -33 12.5 -46
s16.833 -23.5 29.5 -31.5s28.334 -12 47.001 -12c-0.666992 0 -1.16699 -1.83301 -1.5 -5.5s-0.833008 -7.83398 -1.5 -12.501c-0.666992 -5.33301 -1.66699 -11 -3 -17c-28.667 0 -52 5.33301 -70 16s-31.5 24.667 -40.5 42s-14.333 36.833 -16 58.5s-0.5 43.167 3.5 64.5
c8 43.333 25.833 80.833 53.5 112.5s58.5 55.167 92.5 70.5l81 -78l109 78c29.333 -15.333 52 -38.666 68 -69.999s20 -68.666 12 -111.999c-7.33301 -40.667 -20.666 -76.167 -39.999 -106.5s-39.333 -55.5 -60 -75.5l-31 20c8 8.66699 16.333 18.334 25 29.001
s17 22.5 25 35.5s15.333 27.5 22 43.5s11.667 33.667 15 53c5.33301 29.333 3.83301 56.166 -4.5 80.499s-21.166 42.166 -38.499 53.499z" />
    <glyph glyph-name="fourthai" unicode="&#xe54;" horiz-adv-x="510" 
d="M301 35c-9.33301 8.66699 -16.666 21 -21.999 37s-6.33301 33.667 -3 53c6.66699 37.333 21.834 64.333 45.501 81s55.167 25 94.5 25h11l-6 -35h-7c-25.333 0 -46.333 -4.83301 -63 -14.5s-27.667 -28.167 -33 -55.5c-10.667 -59.333 17.333 -89.666 84 -90.999h40
l-6 -35h-226c-29.333 0 -54 4.5 -74 13.5s-35.833 21.5 -47.5 37.5s-19.167 34.833 -22.5 56.5s-2.66602 45.167 2.00098 70.5s12.667 48.833 24 70.5s25.666 40.334 42.999 56.001s37.666 28 60.999 37s49.666 13.5 78.999 13.5h185l88 74l24 -28l-97 -81h-206
c-41.333 -0.666992 -76 -14.334 -104 -41.001s-46 -60.334 -54 -101.001c-7.33301 -41.333 -2 -75.5 16 -102.5s47.667 -40.5 89 -40.5h85z" />
    <glyph glyph-name="fivethai" unicode="&#xe55;" horiz-adv-x="510" 
d="M460 355l90.001 74l24 -27l-101 -82h-204c-41.333 -0.666992 -76 -14.334 -104 -41.001s-46 -60.334 -54 -101.001c-7.33301 -41.333 -2 -75.5 16 -102.5s47.667 -40.5 89 -40.5h83c-9.33301 8.66699 -16.666 21 -21.999 37s-6.33301 33.667 -3 53
c6.66699 37.333 21.834 64.333 45.501 81s55.167 25 94.5 25h11l-6 -35h-7c-25.333 0 -46.333 -4.83301 -63 -14.5s-27.667 -28.167 -33 -55.5c-10.667 -59.333 17.333 -89.666 84 -90.999h42l-6 -35h-226c-29.333 0 -54 4.5 -74 13.5s-35.833 21.5 -47.5 37.5
s-19.167 34.833 -22.5 56.5s-2.66602 45.167 2.00098 70.5s12.667 48.833 24 70.5s25.666 40.334 42.999 56.001s37.666 28 60.999 37s49.666 13.5 78.999 13.5h36c-4 8.66699 -5 18.667 -3 30c3.33301 18 12.5 33.333 27.5 46s31.5 19 49.5 19
c17.333 0 31.166 -6.33301 41.499 -19s13.833 -28 10.5 -46c-2 -11.333 -7 -21.333 -15 -30h38zM340.001 385c-1.33301 -9.33301 0.5 -17 5.5 -23s12.167 -9 21.5 -9s17.833 3 25.5 9s12.167 13.667 13.5 23s-0.5 17.166 -5.5 23.499s-12.167 9.5 -21.5 9.5
s-17.833 -3.16699 -25.5 -9.5s-12.167 -14.166 -13.5 -23.499z" />
    <glyph glyph-name="sixthai" unicode="&#xe56;" horiz-adv-x="495" 
d="M112 121c1.33301 15.333 4.66992 28.4951 10.0029 39.4951s11.5 20.333 18.5 28s14.167 13.667 21.5 18s13.666 7.5 18.999 9.5l14 -34c-7.33301 -4.66699 -15 -10.5 -23 -17.5s-13.333 -21.167 -16 -42.5c-1.33301 -14 1.16699 -26.333 7.5 -37
s15.166 -19.667 26.499 -27s24.166 -12.833 38.499 -16.5s28.833 -5.5 43.5 -5.5c48.667 0 88.334 13.333 119.001 40s49.667 60.667 57 102c8 40.667 1.66699 75 -19 103s-55 42.333 -103 43c-32.667 0 -59.334 -4.16699 -80.001 -12.5s-40 -18.166 -58 -29.499l-97 120
l34 28l78 -99c14 6.66699 32.5 13.334 55.5 20.001s47.5 10 73.5 10c32.667 0 60.167 -4.83301 82.5 -14.5s40 -22.667 53 -39s21.333 -35.666 25 -57.999s3.16699 -46.166 -1.5 -71.499s-13 -49 -25 -71s-27.5 -41.167 -46.5 -57.5s-41.5 -29.166 -67.5 -38.499
s-55 -14 -87 -14c-52.667 0 -92.167 12 -118.5 36s-37.833 53.333 -34.5 88z" />
    <glyph glyph-name="seventhai" unicode="&#xe57;" horiz-adv-x="506" 
d="M495 169c-4 -22 -10.335 -41.9961 -19.002 -59.9961s-18.167 -34.333 -28.5 -49s-20.833 -27.167 -31.5 -37.5s-20 -18.833 -28 -25.5l-31 20l25.5 24c9.66699 9.33301 19 20 28 32s17.167 25.833 24.5 41.5s13 33.5 17 53.5c2.66699 16 2.83398 31.333 0.500977 46
s-6.33301 28.167 -12 40.5s-12.5 23.333 -20.5 33s-16.333 17.5 -25 23.5l-88 -67c-12.667 -9.33301 -22.667 -9.33301 -30 0l-64 67l-31 -23.5c-10.667 -8.33301 -20.667 -18.333 -30 -30s-17.833 -24.834 -25.5 -39.501s-13.167 -31.334 -16.5 -50.001
c-8 -44 -3.33301 -77.667 14 -101s42.333 -35 75 -35c-0.666992 0 -1.16699 -1.83301 -1.5 -5.5s-0.833008 -7.83398 -1.5 -12.501c-0.666992 -5.33301 -1.66699 -11 -3 -17c-28 0 -51.167 5 -69.5 15s-32.333 23 -42 39s-15.5 34.167 -17.5 54.5s-1 41.166 3 62.499
c4.66699 24.667 12.334 47 23.001 67s23.167 38 37.5 54s29.833 29.833 46.5 41.5s33.334 21.834 50.001 30.501l75 -78l103 78c6 -2.66699 13 -6.83398 21 -12.501s15.5 -12.167 22.5 -19.5s13.167 -15 18.5 -23s8.66602 -15.333 9.99902 -22l27 145h42z" />
    <glyph glyph-name="eightthai" unicode="&#xe58;" horiz-adv-x="493" 
d="M456 125c-5.33301 -28 -17.501 -52.332 -36.501 -72.999s-46.5 -39 -82.5 -55l-78 78l-106 -78c-14 7.33301 -27 17 -39 29s-22 25.833 -30 41.5s-13.5 33 -16.5 52s-2.5 39.167 1.5 60.5s11 42.5 21 63.5s23.167 39.667 39.5 56s35.833 29.666 58.5 39.999
s48.334 15.5 77.001 15.5h185l86 74l24 -28l-95 -81h-206c-19.333 0 -37 -3.66699 -53 -11s-30.333 -17.166 -43 -29.499s-23.334 -27 -32.001 -44s-15 -35.5 -19 -55.5c-2.66699 -14.667 -3 -28.5 -1 -41.5s5.33301 -25 10 -36s10.334 -21.167 17.001 -30.5
s13.667 -17.333 21 -24l93 66c10.667 9.33301 20.667 9.33301 30 0l67 -68c16.667 7.33301 31 17.5 43 30.5s20 29.5 24 49.5c3.33301 16 2 28.833 -4 38.5s-13.667 17.167 -23 22.5l18 36c19.333 -7.33301 33.5 -18.833 42.5 -34.5s11.167 -36.834 6.5 -63.501z" />
    <glyph glyph-name="ninethai" unicode="&#xe59;" horiz-adv-x="549" 
d="M216 -5c-29.333 0 -54.335 4.66895 -75.002 14.002s-37.167 22.333 -49.5 39s-20.5 36.167 -24.5 58.5s-3.66699 46.166 1 71.499s13.167 49 25.5 71s27.666 41.333 45.999 58s39.666 29.667 63.999 39s50.833 14 79.5 14c31.333 0 56.5 -7.33301 75.5 -22
s35.167 -35.334 48.5 -62.001c7.33301 24.667 18.833 44.167 34.5 58.5s39.834 21.5 72.501 21.5h78l-6 -33h-71c-18 0 -32.167 -2.83301 -42.5 -8.5s-18.5 -13 -24.5 -22s-10.333 -19.5 -13 -31.5s-5 -24 -7 -36l72 -208l-40 -17l-80 226
c-11.333 34 -25.666 58.667 -42.999 74s-37.666 23 -60.999 23c-20.667 0 -40.167 -3.83301 -58.5 -11.5s-34.666 -18 -48.999 -31s-26.5 -28.333 -36.5 -46s-17 -36.5 -21 -56.5c-7.33301 -41.333 -1 -76 19 -104s50.667 -42.333 92 -43z" />
    <glyph glyph-name="angkhankhuthai" unicode="&#xe5a;" horiz-adv-x="539" 
d="M509 404h44l-74 -404h-44zM342 203c-6 -7.33301 -13.834 -14 -23.501 -20s-20 -11.167 -31 -15.5s-22.333 -7.66602 -34 -9.99902s-22.5 -3.5 -32.5 -3.5c-46.667 0 -81.667 12.167 -105 36.5s-31 58.5 -23 102.5c5.33301 32 18 58.5 38 79.5s46.333 31.5 79 31.5h37
l-7 -38h-30c-23.333 0 -40.666 -6.66699 -51.999 -20s-19 -31 -23 -53c-6 -32.667 -1 -57.834 15 -75.501s42 -26.5 78 -26.5c74 0 118.667 39 134 117l17 96h44l-74 -404h-44z" />
    <glyph glyph-name="khomutthai" unicode="&#xe5b;" horiz-adv-x="884" 
d="M865 218l-6 -31.999h-151l-24 43c-6 -9.33301 -13.833 -20.833 -23.5 -34.5l-30.5 -42l-31.5 -41.5l-25.5 -32c-3.33301 10 -7.5 21.5 -12.5 34.5l-16 40c-5.66699 13.667 -11.834 27.167 -18.501 40.5s-13.334 25 -20.001 35c-10 -30 -23.333 -57.333 -40 -82
s-35.5 -45.834 -56.5 -63.501s-44 -31.5 -69 -41.5s-50.833 -15 -77.5 -15c-33.333 0 -61.833 4.66699 -85.5 14s-42.334 22 -56.001 38s-22.667 34.833 -27 56.5s-4.16602 45.167 0.500977 70.5c4.66699 28 13.334 52.333 26.001 73s27.334 37.834 44.001 51.501
s34.334 23.834 53.001 30.501s36.667 10 54 10c24 0 41.5 -3.66699 52.5 -11s19.5 -14.333 25.5 -21l-33 -31c-15.333 16 -33.333 24 -54 24c-13.333 0 -26.666 -2.66699 -39.999 -8s-25.833 -13.333 -37.5 -24s-21.834 -23.834 -30.501 -39.501s-15 -33.834 -19 -54.501
c-4.66699 -25.333 -4.33398 -47 0.999023 -65s14.333 -32.667 27 -44s28 -19.666 46 -24.999s37.333 -8 58 -8c22 0 44 5.16699 66 15.5s42.333 24 61 41s34.5 36.5 47.5 58.5s21.5 44.333 25.5 67c3.33301 18.667 4 35.334 2 50.001l33 21
c6.66699 -8.66699 14.167 -19.834 22.5 -33.501s16.5 -28.334 24.5 -44.001l22.5 -46c7 -15 12.833 -28.167 17.5 -39.5l21.5 29l24.5 34.5l22 33c6.66699 10.333 11.667 18.5 15 24.5l21 6l34 -63h137z" />
    <glyph glyph-name="ZWSP" unicode="&#x200b;" 
 />
    <glyph glyph-name="endash" unicode="&#x2013;" horiz-adv-x="405" 
d="M76 189l6 37h322l-6 -37h-322z" />
    <glyph glyph-name="emdash" unicode="&#x2014;" horiz-adv-x="686" 
d="M100 189l6 37h557l-6 -37h-557z" />
    <glyph glyph-name="quoteleft" unicode="&#x2018;" horiz-adv-x="205" 
d="M158 458l12 60l65 51l-21 -111h-56z" />
    <glyph glyph-name="quoteright" unicode="&#x2019;" horiz-adv-x="205" 
d="M152 422l20 110h56l-11 -60z" />
    <glyph glyph-name="quotedblleft" unicode="&#x201c;" horiz-adv-x="328" 
d="M281 458l12 60l65 51l-21 -111h-56zM158 458l12 60l65 51l-21 -111h-56z" />
    <glyph glyph-name="quotedblright" unicode="&#x201d;" horiz-adv-x="328" 
d="M275 422l20 110h56l-11 -60zM152 422l20 110h56l-11 -60z" />
    <glyph glyph-name="bullet" unicode="&#x2022;" horiz-adv-x="449" 
d="M171 204c2.66699 12.667 7.33008 24.5 13.9971 35.5s15 20.667 25 29s20.833 14.833 32.5 19.5s23.834 7 36.501 7s24 -2.33301 34 -7s18.5 -11.167 25.5 -19.5s11.833 -18 14.5 -29s2.66699 -22.833 0 -35.5c-2 -12.667 -6.5 -24.5 -13.5 -35.5s-15.333 -20.667 -25 -29
s-20.5 -14.833 -32.5 -19.5s-24.333 -7 -37 -7c-25.333 0 -45.166 8.83301 -59.499 26.5s-19.166 39.167 -14.499 64.5z" />
    <glyph glyph-name="Euro" unicode="&#x20ac;" horiz-adv-x="452" 
d="M436 144c-16.667 -46 -42.8291 -82.333 -78.4961 -109s-75.834 -40 -120.501 -40c-24 0 -46.333 4.5 -67 13.5s-37.667 21.833 -51 38.5c-8 9.33301 -14 18.666 -18 27.999s-6.66699 19.833 -8 31.5s-1.33301 24.5 0 38.5s3.33301 30.333 6 49h-53l7 36h53l4 23l5.5 30
c1.66699 9.33301 3.5 18.333 5.5 27h-53l7 36h55c6.66699 26 14.667 47.333 24 64s23 32.667 41 48c20 17.333 41.833 30.333 65.5 39s47.5 13 71.5 13c45.333 0 81 -13.167 107 -39.5s38.333 -62.833 37 -109.5h-41c-0.666992 35.333 -10.667 63 -30 83s-46 30 -80 30
c-36.667 0 -70.334 -12.667 -101.001 -38c-14 -11.333 -25 -23.833 -33 -37.5s-14.667 -31.167 -20 -52.5h137l-7 -36h-140l-11 -57l-4 -23h140l-7 -36h-140c-4.66699 -32 -5.83398 -57 -3.50098 -75s9.16602 -34.333 20.499 -49c22 -26 51 -39 87 -39
c34 0 64.833 10.333 92.5 31s48.167 48.334 61.5 83.001h38z" />
    <glyph glyph-name="trademark" unicode="&#x2122;" horiz-adv-x="608" 
d="M565 201l42 230l-109 -152h-33l-53 152l-42 -230h-35l56 304h34l64 -190l133 190h34l-56 -304h-35zM238 476l-51 -275h-34l51 275h-91l5 29h217l-5 -29h-92z" />
    <glyph glyph-name="uni25CC" unicode="&#x25cc;" horiz-adv-x="561" 
d="M244 150l-41.999 -13l20 40c5.33301 -10.667 12.666 -19.667 21.999 -27zM325.001 346l27 38l11 -37c-6 0.666992 -11.667 1 -17 1c-7.33301 0 -14.333 -0.666992 -21 -2zM321.001 131l-22.999 -35l-11 35c5.33301 -1.33301 11.333 -2 18 -2
c5.33301 0 10.666 0.666992 15.999 2zM436.002 257l32 -19l-38 -15c2 4.66699 3.66699 9.66699 5 15c0.666992 6 1 12.333 1 19zM214.002 221l-34 19l42 19c-3.33301 -7.33301 -5.33301 -14.333 -6 -21c-1.33301 -6 -2 -11.667 -2 -17zM249.002 304l-4.00098 38l35 -13
c-11.333 -6.66699 -21.666 -15 -30.999 -25zM399.001 172l4 -35l-32 11c10.667 6.66699 20 14.667 28 24zM403.001 329l45 13l-22 -39c-6 10 -13.667 18.667 -23 26z" />
    <glyph glyph-name="thothannobasethai" unicode="&#xf700;" horiz-adv-x="365" 
d="M403 466l24 -28.002l-95 -79c18.667 -24.667 24 -58.334 16 -101.001l-47 -258h-43l24 134c4.66699 22.667 3.83398 39.667 -2.49902 51s-21.5 17 -45.5 17h-69l6 35h77c14.667 0 25.667 -1.66699 33 -5s13 -7.66602 17 -12.999l5 28c15.333 82.667 -14.667 124 -90 124
c-24 0 -46.833 -5.5 -68.5 -16.5s-38.167 -27.5 -49.5 -49.5l-18 10c-4.66699 2.66699 -8.66699 4.83398 -12 6.50098s-5 2.83398 -5 3.50098c16.667 27.333 38.667 48 66 62s58.666 21 93.999 21c18 0 34 -2 48 -6s27 -10 39 -18z" />
    <glyph glyph-name="saraileftthai" unicode="&#xf701;" 
d="M-311 528h260l-6 -34h-260z" />
    <glyph glyph-name="saraiileftthai" unicode="&#xf702;" 
d="M-311 528h217l13 70h43l-19 -104h-260z" />
    <glyph glyph-name="saraueleftthai" unicode="&#xf703;" 
d="M-335 494l5.99805 34.001h175c-1.33301 2 -2.33301 5.66699 -3 11s-0.666992 10.333 0 15c3.33301 17.333 11.833 31.833 25.5 43.5s28.834 17.5 45.501 17.5c17.333 0 30.833 -5.83301 40.5 -17.5s12.834 -26.167 9.50098 -43.5
c-3.33301 -16.667 -11.833 -30.834 -25.5 -42.501s-29.167 -17.5 -46.5 -17.5h-227zM-126.002 554.001c-1.33301 -8 0.5 -14.833 5.5 -20.5s11.167 -8.5 18.5 -8.5c8.66699 0 16.5 2.83301 23.5 8.5s11.167 12.5 12.5 20.5
c1.33301 8.66699 -0.333984 15.834 -5.00098 21.501s-11.334 8.5 -20.001 8.5c-7.33301 0 -14.666 -2.83301 -21.999 -8.5s-11.666 -12.834 -12.999 -21.501z" />
    <glyph glyph-name="saraueeleftthai" unicode="&#xf704;" 
d="M-331 528h163l13 70h38l-13 -70h41l13 70h38l-19 -104h-280z" />
    <glyph glyph-name="maieklowleftthai" unicode="&#xf705;" 
d="M-115 618h43l-23 -124h-43zM-115 618h43l-23 -124h-43z" />
    <glyph glyph-name="maitholowleftthai" unicode="&#xf706;" 
d="M-36 529l-6.99805 -35h-210l6 32c3.33301 0 6.66602 0.333008 9.99902 1s6.5 1 9.5 1s6.16699 0.666992 9.5 2c5.33301 1.33301 11.5 4.33301 18.5 9s11.5 13 13.5 25c1.33301 9.33301 -0.666992 16.5 -6 21.5s-14.333 6.83301 -27 5.5l7 36
c23.333 0 41.166 -4.5 53.499 -13.5s16.5 -23.833 12.5 -44.5c-1.33301 -7.33301 -4.33301 -14.5 -9 -21.5s-9.66699 -13.167 -15 -18.5h134z" />
    <glyph glyph-name="maitrilowleftthai" unicode="&#xf707;" 
d="M-5 527l-6.00293 -32.9961h-95l12 63c2.66699 14 1.33398 23.833 -3.99902 29.5s-9.66602 9.16699 -12.999 10.5l-36 -33c-4.66699 -4.66699 -10 -7 -16 -7c-4.66699 0 -8.66699 2.33301 -12 7l-30 33c-4.66699 -1.33301 -10.667 -4.5 -18 -9.5s-12.333 -14.5 -15 -28.5
c-1.33301 -8.66699 0.666992 -16.334 6 -23.001s14.333 -10 27 -10l-6 -35h-6c-20 0 -35.667 6.66699 -47 20s-15.333 28.666 -12 45.999c3.33301 20 10.833 35.333 22.5 46s23.167 19 34.5 25c5.33301 2 10.833 3.5 16.5 4.5s11.167 -1.5 16.5 -7.5l30 -31l34 31
c6 5.33301 12.333 7.66602 19 6.99902s11.667 -2 15 -4c9.33301 -6.66699 17.833 -15.334 25.5 -26.001s9.83398 -25.667 6.50098 -45l-6 -30h57z" />
    <glyph glyph-name="maichattawalowleftthai" unicode="&#xf708;" 
d="M-202 542l6 35h59l10 54h39l-10 -54h59l-6 -35h-59l-10 -52h-39l10 52h-59z" />
    <glyph glyph-name="thanthakhatlowleftthai" unicode="&#xf709;" 
d="M-174 494c2.66699 14.667 6.66895 26.5 12.002 35.5s11.5 16 18.5 21s14.167 8.33301 21.5 10s14.666 2.5 21.999 2.5h63l-6 -34h-63c-10 0 -16.833 -2.83301 -20.5 -8.5s-6.83398 -14.5 -9.50098 -26.5h-38z" />
    <glyph glyph-name="maieklowrightthai" unicode="&#xf70a;" 
d="M11 618h43l-23 -124h-42z" />
    <glyph glyph-name="maitholowrightthai" unicode="&#xf70b;" 
d="M73 529l-6.99805 -35h-216l6 32c3.33301 0 6.66602 0.333008 9.99902 1s6.5 1 9.5 1s6.16699 0.666992 9.5 2c5.33301 1.33301 11.5 4.33301 18.5 9s11.5 13 13.5 25c1.33301 9.33301 -0.666992 16.5 -6 21.5s-14.333 6.83301 -27 5.5l7 36
c23.333 0 41.166 -4.5 53.499 -13.5s16.5 -23.833 12.5 -44.5c-1.33301 -7.33301 -4.33301 -14.5 -9 -21.5s-9.66699 -13.167 -15 -18.5h140z" />
    <glyph glyph-name="maitrilowrightthai" unicode="&#xf70c;" 
d="M83 527l-6.00098 -32.9961h-120l12 63c2.66699 14 1.33398 23.833 -3.99902 29.5s-9.66602 9.16699 -12.999 10.5l-36 -33c-4.66699 -4.66699 -10 -7 -16 -7c-4.66699 0 -8.66699 2.33301 -12 7l-30 33c-4.66699 -1.33301 -10.667 -4.5 -18 -9.5s-12.333 -14.5 -15 -28.5
c-1.33301 -8.66699 0.666992 -16.334 6 -23.001s14.333 -10 27 -10l-6 -35h-6c-20 0 -35.667 6.66699 -47 20s-15.333 28.666 -12 45.999c3.33301 20 10.833 35.333 22.5 46s23.167 19 34.5 25c5.33301 2 10.833 3.5 16.5 4.5s11.167 -1.5 16.5 -7.5l30 -31l34 31
c6 5.33301 12.333 7.66602 19 6.99902s11.667 -2 15 -4c9.33301 -6.66699 17.666 -15.334 24.999 -26.001s9.33301 -25.667 6 -45l-6 -30h83z" />
    <glyph glyph-name="maichattawalowrightthai" unicode="&#xf70d;" 
d="M-57 546l6 35h58l10 54h39l-10 -54h59l-6 -35h-59l-10 -52h-38l9 52h-58z" />
    <glyph glyph-name="thanthakhatlowrightthai" unicode="&#xf70e;" 
d="M-77 494c2.66699 14.667 6.66895 26.5 12.002 35.5s11.5 16 18.5 21s14.167 8.33301 21.5 10s14.666 2.5 21.999 2.5h85l-6 -34h-85c-10 0 -16.833 -2.83301 -20.5 -8.5s-6.83398 -14.5 -9.50098 -26.5h-38z" />
    <glyph glyph-name="yoyingnobasethai" unicode="&#xf70f;" horiz-adv-x="672" 
d="M111 250l-27.001 53c52.667 70 118.334 105 197.001 105c56.667 0 96 -13.333 118 -40s28.333 -65 19 -115l-18 -99c-3.33301 -17.333 -5 -33.333 -5 -48s2.66699 -27.5 8 -38.5s13.833 -19.667 25.5 -26s27.5 -9.5 47.5 -9.5s37 3.16699 51 9.5s25.667 15 35 26
s16.666 23.833 21.999 38.5s9.66602 30.667 12.999 48l46 250h43l-48 -259c-9.33301 -49.333 -28.333 -86.666 -57 -111.999s-65.667 -38 -111 -38s-78 12.667 -98 38s-25.333 62.666 -16 111.999l19 101c8.66699 45.333 3.83398 77.5 -14.499 96.5s-47.5 28.5 -87.5 28.5
c-23.333 0 -47.166 -4.5 -71.499 -13.5s-47.166 -27.5 -68.499 -55.5l21 -46l-30 -163c-3.33301 -16.667 -3.33301 -30 0 -40s14.666 -15 33.999 -15h29l-7 -38h-37c-28 0 -46.5 8.16699 -55.5 24.5s-10.833 38.833 -5.5 67.5z" />
    <glyph glyph-name="maihanakatleftthai" unicode="&#xf710;" 
d="M-132 563c-2.66699 -12 -3.16797 -20.833 -1.50098 -26.5s7.83398 -8.5 18.501 -8.5h227l-6 -34h-235c-7.33301 0 -14.333 1 -21 3s-12.5 5.5 -17.5 10.5s-8.5 12 -10.5 21s-1.66699 20.5 1 34.5h45z" />
    <glyph glyph-name="nikhahitleftthai" unicode="&#xf711;" 
d="M-179 534c3.33301 18 12.668 33.333 28.001 46s32 19 50 19c17.333 0 31 -6.33301 41 -19s13.333 -28 10 -46c-3.33301 -17.333 -12.333 -32.333 -27 -45s-30.667 -19 -48 -19c-18 0 -32.333 6.33301 -43 19s-14.334 27.667 -11.001 45zM-146.998 534
c-1.33301 -9.33301 0.669922 -17 6.00293 -23s12.666 -9 21.999 -9s17.666 3 24.999 9s11.666 13.667 12.999 23c2 9.33301 0.5 17.166 -4.5 23.499s-12.167 9.5 -21.5 9.5s-17.833 -3.16699 -25.5 -9.5s-12.5 -14.166 -14.5 -23.499z" />
    <glyph glyph-name="maitaikhuleftthai" unicode="&#xf712;" 
d="M-190 612c-8 0 -15.335 -1.66895 -22.002 -5.00195s-12.5 -7.33301 -17.5 -12s-9.16699 -9.83398 -12.5 -15.501s-5.33301 -10.5 -6 -14.5c-1.33301 -9.33301 -0.5 -18.5 2.5 -27.5s8.83301 -15.833 17.5 -20.5l48 37c9.33301 6 17.333 6 24 0l36 -37
c10.667 4 18.667 9.83301 24 17.5s8 18.834 8 33.501h38c0.666992 -23.333 -6.83301 -43.166 -22.5 -59.499s-35.167 -26.5 -58.5 -30.5l-43 45l-57 -45c-19.333 6 -34.666 15.833 -45.999 29.5s-14.666 32.834 -9.99902 57.501c2 10 5.66699 19.667 11 29
s12.333 17.666 21 24.999s18.5 13.333 29.5 18s22.833 7.33398 35.5 8.00098h178l-6 -33h-172z" />
    <glyph glyph-name="maiekupperleftthai" unicode="&#xf713;" 
d="M-48 775h43l-23 -124h-43z" />
    <glyph glyph-name="maithoupperleftthai" unicode="&#xf714;" 
d="M78 686l-6.99805 -35h-216l6 32c3.33301 0 6.66602 0.333008 9.99902 1s6.5 1 9.5 1s6.16699 0.666992 9.5 2c5.33301 1.33301 11.5 4.33301 18.5 9s11.5 13 13.5 25c1.33301 9.33301 -0.5 16.5 -5.5 21.5s-14.167 6.83301 -27.5 5.5l7 36
c23.333 0 41.166 -4.5 53.499 -13.5s16.5 -23.833 12.5 -44.5c-1.33301 -7.33301 -4.33301 -14.5 -9 -21.5s-9.66699 -13.167 -15 -18.5h140z" />
    <glyph glyph-name="maitriupperleftthai" unicode="&#xf715;" 
d="M67 684l-6.00195 -32.9961h-128l12 63c2.66699 14 1.33398 23.833 -3.99902 29.5s-9.66602 9.16699 -12.999 10.5l-36 -33c-4.66699 -4.66699 -10 -7 -16 -7c-4.66699 0 -8.66699 2.33301 -12 7l-30 33c-4.66699 -1.33301 -10.667 -4.5 -18 -9.5s-12.333 -14.5 -15 -28.5
c-1.33301 -8.66699 0.666992 -16.334 6 -23.001s14.333 -10 27 -10l-6 -35h-6c-20 0 -35.667 6.66699 -47 20s-15.333 28.666 -12 45.999c3.33301 20 10.833 35.333 22.5 46s23.167 19 34.5 25c5.33301 2 10.833 3.5 16.5 4.5s11.167 -1.5 16.5 -7.5l30 -31l34 31
c6 5.33301 12.333 7.66602 19 6.99902s11.667 -2 15 -4c10 -6.66699 18.667 -15.334 26 -26.001s9.33301 -25.667 6 -45l-6 -30h90z" />
    <glyph glyph-name="maichattawaupperleftthai" unicode="&#xf716;" 
d="M-116 702l6 35h59l10 54h39l-10 -54h58l-6 -35h-58l-10 -52h-39l10 52h-59z" />
    <glyph glyph-name="thanthakhatupperleftthai" unicode="&#xf717;" 
d="M-78 601c2.66699 14.667 6.66797 26.5 12.001 35.5s11.5 16 18.5 21s14.167 8.33301 21.5 10s14.666 2.5 21.999 2.5h67l-7 -34h-67c-10 0 -16.833 -2.83301 -20.5 -8.5s-6.5 -14.5 -8.5 -26.5h-38z" />
    <glyph glyph-name="saraulowthai" unicode="&#xf718;" 
d="M-142 -214c3.33301 15.333 3.16699 25 -0.5 29s-11.167 6 -22.5 6h-12l5 37h19c25.333 0 42 -4.33301 50 -13s9.33301 -28 4 -58l-10 -55h-43z" />
    <glyph glyph-name="sarauulowthai" unicode="&#xf719;" 
d="M-248 -199c1.33301 8 0.832031 13.332 -1.50098 15.999s-7.16602 4 -14.499 4h-13l6 36h25c19.333 0 31.666 -3.83301 36.999 -11.5s6.33301 -20.834 3 -39.501c-1.33301 -3.33301 -1.66602 -4.16602 -0.999023 -2.49902s0.666992 0.833984 0 -2.49902
c-1.33301 -7.33301 -0.333008 -15 3 -23s11.666 -12 24.999 -12c14 0 24 4 30 12s9.66699 15.667 11 23l10 56h42l-10 -56c-4 -21.333 -14.333 -38.333 -31 -51s-36 -19 -58 -19c-23.333 0 -40.666 6.33301 -51.999 19s-15 29.667 -11 51z" />
    <glyph glyph-name="phinthulowthai" unicode="&#xf71a;" 
d="M-159 -173c2 9.33301 6.83301 17.166 14.5 23.499s16.167 9.5 25.5 9.5s16.5 -3.16699 21.5 -9.5s6.5 -14.166 4.5 -23.499c-1.33301 -9.33301 -5.83301 -17.166 -13.5 -23.499s-16.167 -9.5 -25.5 -9.5s-16.5 3.16699 -21.5 9.5s-6.83301 14.166 -5.5 23.499z" />
    <glyph glyph-name="lochula.short" unicode="&#xf71d;" horiz-adv-x="537" 
d="M430 0h-43l-60 334l-182 -334h-44l9 404h44l-13 -342l182 342h34l56 -342l83 250c12 36 -3 54.333 -45 55l6 37h34c18.667 0 33.5 4.33301 44.5 13s19.5 20 25.5 34l15 33h44l-21 -46c-8.66699 -18 -19.167 -31.833 -31.5 -41.5s-26.166 -17.167 -41.499 -22.5
c17.333 -16 21.666 -36.333 12.999 -61z" />
    <glyph glyph-name="rulakkhangyao" unicode="&#xf881;" horiz-adv-x="727" 
d="M497 354c13.333 17.333 30.5 30.667 51.5 40s44.833 14 71.5 14c40.667 0 69 -11.167 85 -33.5s20.333 -54.166 13 -95.499l-79 -430h-42l79 428c4.66699 28.667 2.66699 51.5 -6 68.5s-27.667 25.5 -57 25.5c-18.667 0 -35.5 -3.33301 -50.5 -10
s-27.167 -16.334 -36.5 -29.001zM84 92.001c-5.33301 -28.667 -3.5 -51.168 5.5 -67.501s27.5 -24.5 55.5 -24.5h37l7 38h-29c-19.333 0 -30.666 5 -33.999 15s-3.33301 23.333 0 40l30 163l-23 49c22 24.667 45.5 41.834 70.5 51.501s48.833 14.5 71.5 14.5
c40 0 69.167 -9.16699 87.5 -27.5s23.5 -48.5 15.5 -90.5l-74 -404h42l74 404c9.33301 50 3 88.333 -19 115s-61.333 40 -118 40c-78.667 0 -144.334 -35 -197.001 -105l27 -53z" />
    <glyph glyph-name="lulakkhangyao" unicode="&#xf882;" horiz-adv-x="745" 
d="M395 253c8 42.667 2.3291 72.998 -17.0039 90.998s-48 27 -86 27c-22.667 0 -46.167 -4.66699 -70.5 -14s-48.166 -26.333 -71.499 -51l24 -50l-30 -164c-4 -20.667 -10.167 -37.167 -18.5 -49.5s-17.5 -21.666 -27.5 -27.999s-20.167 -10.333 -30.5 -12
s-19.166 -2.5 -26.499 -2.5v38c12.667 -0.666992 22.834 1 30.501 5s13.5 9.33301 17.5 16s6.83301 13.834 8.5 21.501l4.5 21.5l28 148l-27 53c52.667 70 118.334 105 197.001 105c56.667 0 96.167 -13.333 118.5 -40s28.833 -65 19.5 -115l-74 -403h-43zM514.996 353.998
c13.333 17.333 30.5 30.667 51.5 40s44.833 14 71.5 14c40.667 0 69 -11.167 85 -33.5s20.333 -54.166 13 -95.499l-79 -430h-42l79 428c4.66699 28.667 2.66699 51.5 -6 68.5s-27.667 25.5 -57 25.5c-18.667 0 -35.5 -3.33301 -50.5 -10s-27.167 -16.334 -36.5 -29.001z
" />
    <glyph glyph-name=".null" 
 />
    <glyph glyph-name="nonmarkingreturn" horiz-adv-x="237" 
 />
    <glyph glyph-name="yamakkanleftthai" 
d="M-112 530c-6 0 -10.332 -3.49902 -12.999 -10.499s-5 -15.5 -7 -25.5h-42c5.33301 26 12.666 43.5 21.999 52.5s20 13.5 32 13.5c2 9.33301 5.33301 16.5 10 21.5s10 8.66699 16 11s12.333 3.66602 19 3.99902s13 0.5 19 0.5h29l-6 -34h-24c-11.333 0 -18.5 -2 -21.5 -6
s-5.83301 -13 -8.5 -27h-25z" />
    <glyph glyph-name="saraamleft" horiz-adv-x="299" 
d="M-170 548c3.33301 18 12.501 33.333 27.501 46s31.5 19 49.5 19c17.333 0 31.166 -6.33301 41.499 -19s13.833 -28 10.5 -46c-3.33301 -17.333 -12.5 -32.333 -27.5 -45s-31.167 -19 -48.5 -19c-18 0 -32.167 6.33301 -42.5 19s-13.833 27.667 -10.5 45zM-137.999 548
c-1.33301 -9.33301 0.498047 -17 5.49805 -23s12.167 -9 21.5 -9s17.833 3 25.5 9s12.167 13.667 13.5 23c2 9.33301 0.333008 17.166 -5 23.499s-12.666 9.5 -21.999 9.5s-17.666 -3.16699 -24.999 -9.5s-12 -14.166 -14 -23.499zM68.999 354
c13.333 17.333 30.5 30.667 51.5 40s44.833 14 71.5 14c40.667 0 69 -11.167 85 -33.5s20.333 -54.166 13 -95.499l-51 -279h-42l51 277c4.66699 28.667 2.66699 51.5 -6 68.5s-27.667 25.5 -57 25.5c-18.667 0 -35.5 -3.33301 -50.5 -10s-27.167 -16.334 -36.5 -29.001z
" />
    <glyph glyph-name="uni0E33.alt1" horiz-adv-x="299" 
d="M-170 548c3.33301 18 12.501 33.333 27.501 46s31.5 19 49.5 19c17.333 0 31.166 -6.33301 41.499 -19s13.833 -28 10.5 -46c-3.33301 -17.333 -12.5 -32.333 -27.5 -45s-31.167 -19 -48.5 -19c-18 0 -32.167 6.33301 -42.5 19s-13.833 27.667 -10.5 45zM-137.999 548
c-1.33301 -9.33301 0.498047 -17 5.49805 -23s12.167 -9 21.5 -9s17.833 3 25.5 9s12.167 13.667 13.5 23c2 9.33301 0.333008 17.166 -5 23.499s-12.666 9.5 -21.999 9.5s-17.666 -3.16699 -24.999 -9.5s-12 -14.166 -14 -23.499zM68.999 354
c13.333 17.333 30.5 30.667 51.5 40s44.833 14 71.5 14c40.667 0 69 -11.167 85 -33.5s20.333 -54.166 13 -95.499l-51 -279h-42l51 277c4.66699 28.667 2.66699 51.5 -6 68.5s-27.667 25.5 -57 25.5c-18.667 0 -35.5 -3.33301 -50.5 -10s-27.167 -16.334 -36.5 -29.001z
" />
    <glyph glyph-name="saraithai.alt1" 
d="M-232 528h269l-6 -34h-269z" />
    <glyph glyph-name="saraiithai.alt1" 
d="M-232 528h227l12 70h43l-19 -104h-269z" />
    <glyph glyph-name="sarauethai.alt1" 
d="M-238 494l5.99805 34.001h161c-1.33301 2.66699 -2.33301 6.5 -3 11.5s-0.666992 9.83301 0 14.5c3.33301 17.333 11.833 31.833 25.5 43.5s28.834 17.5 45.501 17.5s29.834 -5.83301 39.501 -17.5s12.834 -26.167 9.50098 -43.5
c-3.33301 -16.667 -11.833 -30.834 -25.5 -42.501s-28.834 -17.5 -45.501 -17.5h-213zM-43.002 554.001c-1.33301 -8 0.498047 -14.833 5.49805 -20.5s11.167 -8.5 18.5 -8.5c8.66699 0 16.334 2.83301 23.001 8.5s10.667 12.5 12 20.5
c1.33301 8.66699 -0.333984 15.834 -5.00098 21.501s-11 8.5 -19 8.5c-7.33301 0 -14.666 -2.83301 -21.999 -8.5s-11.666 -12.834 -12.999 -21.501z" />
    <glyph glyph-name="saraueethai.alt1" 
d="M-232 528h153l13 70h38l-13 -70h41l12 70h38l-19 -104h-269z" />
    <glyph glyph-name="saraithai.alt2" 
d="M-390 528h373l-6 -34h-373z" />
    <glyph glyph-name="saraiithai.alt2" 
d="M-390 528h330l13 70h43l-19 -104h-373z" />
    <glyph glyph-name="sarauethai.alt2" 
d="M-396 494l5.99805 34.001h263c-1.33301 2 -2.33301 5.66699 -3 11s-0.666992 10.333 0 15c3.33301 17.333 11.833 31.833 25.5 43.5s28.834 17.5 45.501 17.5c17.333 0 30.833 -5.83301 40.5 -17.5s12.834 -26.167 9.50098 -43.5
c-3.33301 -16.667 -11.833 -30.834 -25.5 -42.501s-29.167 -17.5 -46.5 -17.5h-315zM-99.002 554.001c-1.33301 -8 0.5 -14.833 5.5 -20.5s11.167 -8.5 18.5 -8.5c8.66699 0 16.5 2.83301 23.5 8.5s11.167 12.5 12.5 20.5c1.33301 8.66699 -0.333984 15.834 -5.00098 21.501
s-11.334 8.5 -20.001 8.5c-7.33301 0 -14.666 -2.83301 -21.999 -8.5s-11.666 -12.834 -12.999 -21.501z" />
    <glyph glyph-name="saraueethai.alt2" 
d="M-390 528h256l13 70h38l-13 -70h41l13 70h38l-19 -104h-373z" />
    <glyph glyph-name="maiekthai.alt2" 
d="M-12 774h40l-23 -124h-40z" />
    <glyph glyph-name="maithothai.alt2" 
d="M95 685l-6.00098 -35.001h-200l6 32c3.33301 0 6.66602 0.333008 9.99902 1s6.5 1 9.5 1s6.16699 0.666992 9.5 2c5.33301 1.33301 11.333 4.33301 18 9s11.334 13 14.001 25c1.33301 9.33301 -0.666992 16.5 -6 21.5s-14.333 6.83301 -27 5.5l7 36
c23.333 0 41 -4.5 53 -13.5s16.333 -23.833 13 -44.5c-3.33301 -15.333 -11.666 -28.666 -24.999 -39.999h124z" />
    <glyph glyph-name="maitrithai.alt2" 
d="M102 683l-6.00098 -32.998h-120l12 63c2.66699 14 1.33398 23.833 -3.99902 29.5s-9.66602 9.16699 -12.999 10.5l-36 -33c-4.66699 -4.66699 -10 -7 -16 -7c-4.66699 0 -8.66699 2.33301 -12 7l-30 33c-4.66699 -1.33301 -10.5 -4.66602 -17.5 -9.99902
s-11.833 -15.333 -14.5 -30c-2 -8.66699 0 -15.667 6 -21s14.667 -8.33301 26 -9l-7 -36h-6c-20 0 -35.5 6.66699 -46.5 20s-14.833 28.666 -11.5 45.999c3.33301 20 10.833 35.333 22.5 46s23.167 19 34.5 25c5.33301 2 10.833 3.5 16.5 4.5s11.167 -1.5 16.5 -7.5l30 -31
l34 31c6 5.33301 12.333 7.66602 19 6.99902s11.667 -2 15 -4c9.33301 -6.66699 17.666 -15.334 24.999 -26.001s9.33301 -25.667 6 -45l-6 -30h83z" />
    <glyph glyph-name="maichattawathai.alt2" 
d="M-83 702l6 35h59l10 54h38l-10 -54h59l-6 -35h-59l-10 -52h-38l10 52h-59z" />
    <glyph glyph-name="saraithai.alt3" 
d="M-384 528h421l-6 -34h-421z" />
    <glyph glyph-name="saraiithai.alt3" 
d="M-384 528h379l12 70h43l-19 -104h-421z" />
    <glyph glyph-name="sarauethai.alt3" 
d="M-390 494l5.99805 34.001h313c-1.33301 2.66699 -2.33301 6.5 -3 11.5s-0.666992 9.83301 0 14.5c3.33301 17.333 11.833 31.833 25.5 43.5s28.834 17.5 45.501 17.5s29.834 -5.83301 39.501 -17.5s12.834 -26.167 9.50098 -43.5
c-3.33301 -16.667 -11.833 -30.834 -25.5 -42.501s-28.834 -17.5 -45.501 -17.5h-365zM-43.002 554.001c-1.33301 -8 0.498047 -14.833 5.49805 -20.5s11.167 -8.5 18.5 -8.5c8.66699 0 16.334 2.83301 23.001 8.5s10.667 12.5 12 20.5
c1.33301 8.66699 -0.333984 15.834 -5.00098 21.501s-11 8.5 -19 8.5c-7.33301 0 -14.666 -2.83301 -21.999 -8.5s-11.666 -12.834 -12.999 -21.501z" />
    <glyph glyph-name="saraueethai.alt3" 
d="M-384 528h305l13 70h38l-13 -70h41l12 70h38l-19 -104h-421z" />
    <glyph glyph-name="maiekthai.alt3" 
d="M42 774h41l-23 -124h-41z" />
    <glyph glyph-name="maithothai.alt3" 
d="M150 685l-6 -35.001h-200l6 32c3.33301 0 6.66602 0.333008 9.99902 1s6.5 1 9.5 1s6.16699 0.666992 9.5 2c5.33301 1.33301 11.166 4.33301 17.499 9s10.833 13 13.5 25c1.33301 9.33301 -0.666992 16.5 -6 21.5s-14 6.83301 -26 5.5l7 36
c23.333 0 40.833 -4.5 52.5 -13.5s15.834 -23.833 12.501 -44.5c-3.33301 -15.333 -11.666 -28.666 -24.999 -39.999h125z" />
    <glyph glyph-name="maitrithai.alt3" 
d="M158 683l-6.00391 -32.998h-121l12 63c2.66699 14 1.33398 23.833 -3.99902 29.5s-9.66602 9.16699 -12.999 10.5l-35 -33c-4.66699 -4.66699 -10 -7 -16 -7c-4.66699 0 -8.66699 2.33301 -12 7l-30 33c-4.66699 -1.33301 -10.5 -4.66602 -17.5 -9.99902
s-11.833 -15.333 -14.5 -30c-2 -8.66699 0 -15.667 6 -21s14.667 -8.33301 26 -9l-7 -36c-23.333 0 -40.666 6.66699 -51.999 20s-15.333 28.666 -12 45.999c3.33301 20 10.833 35.333 22.5 46s23.167 19 34.5 25c5.33301 2 10.833 3.5 16.5 4.5s11.167 -1.5 16.5 -7.5
l30 -31l33 31c6 5.33301 12.333 7.66602 19 6.99902s11.667 -2 15 -4c9.33301 -6.66699 17.833 -15.334 25.5 -26.001s9.83398 -25.667 6.50098 -45l-6 -30h83z" />
    <glyph glyph-name="maichattawathai.alt3" 
d="M-27 702l6 35h58l10 54h39l-10 -54h59l-6 -35h-59l-10 -52h-39l10 52h-58z" />
    <glyph glyph-name="saraithai.alt4" 
d="M-284 528h309l-6 -34h-309z" />
    <glyph glyph-name="saraiithai.alt4" 
d="M-284 528h267l13 70h42l-19 -104h-309z" />
    <glyph glyph-name="thanthakhatthai.alt4" 
d="M-81 474c2.66699 14.667 6.66699 26.5 12 35.5s11.5 16 18.5 21s14.167 8.33301 21.5 10s14.666 2.5 21.999 2.5h73l-6 -34h-68c-11.333 0 -18.666 -2.83301 -21.999 -8.5s-6.33301 -14.5 -9 -26.5h-42z" />
    <glyph glyph-name="zero.alt1" horiz-adv-x="363" 
d="M332 125c-3.33301 -19.333 -9.66699 -36.833 -19 -52.5s-20.666 -29.334 -33.999 -41.001s-28.5 -20.667 -45.5 -27s-34.833 -9.5 -53.5 -9.5c-19.333 0 -36.166 3.16699 -50.499 9.5s-26 15.333 -35 27s-15.167 25.334 -18.5 41.001s-3.33301 33.167 0 52.5l28 154
c3.33301 18.667 9.66602 36 18.999 52s20.666 29.833 33.999 41.5s28.333 20.667 45 27s34.667 9.5 54 9.5c38 0 66.5 -12.167 85.5 -36.5s25.167 -55.5 18.5 -93.5zM318.999 275c5.33301 28 2.49902 51.333 -8.50098 70s-31.167 28 -60.5 28
c-28.667 0 -52.334 -9.33301 -71.001 -28s-30.667 -42 -36 -70l-27 -146c-5.33301 -28 -2.16602 -51.333 9.50098 -70s31.834 -28 60.501 -28c29.333 0 53 9.33301 71 28s29.667 42 35 70z" />
    <glyph glyph-name="one.alt1" horiz-adv-x="313" 
d="M156 0l66 358l-101 -76l9 48l103 76h38l-75 -406h-40z" />
    <glyph glyph-name="two.alt1" horiz-adv-x="363" 
d="M48 0l5.99902 34.002l206 174c16 13.333 29.5 28 40.5 44s18.167 32.667 21.5 50c4.66699 23.333 -0.166016 43.5 -14.499 60.5s-34.166 25.5 -59.499 25.5c-12 0 -23.667 -2.33301 -35 -7s-21.833 -11 -31.5 -19s-17.834 -17.5 -24.501 -28.5s-11 -22.833 -13 -35.5h-40
c3.33301 17.333 9.5 33.5 18.5 48.5s20.167 28.167 33.5 39.5s28.5 20.333 45.5 27s34.833 10 53.5 10c20 0 37.333 -3.16699 52 -9.5s26.5 -15 35.5 -26s15.167 -23.833 18.5 -38.5s3.33301 -30.334 0 -47.001c-4 -24 -12.833 -45.333 -26.5 -64
s-30.167 -36.334 -49.5 -53.001l-177 -149h217l-6 -36h-271z" />
    <glyph glyph-name="three.alt1" horiz-adv-x="363" 
d="M330 52c-4 -22 -11.1699 -41.3281 -21.5029 -57.9951s-22.666 -30.834 -36.999 -42.501s-30.5 -20.334 -48.5 -26.001s-36.667 -8.5 -56 -8.5c-38.667 0 -69 10.167 -91 30.5s-30.333 52.166 -25 95.499h40c-2 -16 -1 -29.833 3 -41.5s10 -21 18 -28
s17.333 -12.167 28 -15.5s22 -5 34 -5c27.333 0 52.166 8.66699 74.499 26s36.166 41.666 41.499 72.999c6 31.333 2.66699 55.5 -10 72.5s-37 25.5 -73 25.5h-11l7 37h11c31.333 0 56 7.83301 74 23.5s29.667 38.5 35 68.5c6 30.667 1.83301 54 -12.5 70
s-34.166 24 -59.499 24c-27.333 0 -50.333 -7.83301 -69 -23.5s-31.667 -36.834 -39 -63.501h-40c11.333 39.333 31 69.666 59 90.999s59.667 32 95 32c38.667 0 67.834 -11.667 87.501 -35s25.834 -55 18.501 -95c-4.66699 -24 -13.667 -45.167 -27 -63.5
s-31.666 -33.166 -54.999 -44.499c44 -20 60.333 -59.667 49 -119z" />
    <glyph glyph-name="four.alt1" horiz-adv-x="363" 
d="M273 0l-19 -102h-40l19 102h-203l6 34l253 371h42l-251 -369h159l28 152h40l-28 -152h64l-6 -36h-64z" />
    <glyph glyph-name="five.alt1" horiz-adv-x="363" 
d="M326 80c-4 -23.333 -10.0059 -46.1689 -18.0059 -68.502s-22.667 -42.5 -44 -60.5c-27.333 -23.333 -60.666 -35 -99.999 -35c-40.667 0 -70 11 -88 33c-14.667 20 -20.667 47.667 -18 83h40c-1.33301 -25.333 3.83398 -45 15.501 -59s30.834 -21 57.501 -21
c26 0 48.667 8 68 24c16 13.333 27 29.666 33 48.999s10.667 37.666 14 54.999c2.66699 14.667 4.5 29.334 5.5 44.001s-0.5 28 -4.5 40s-11 21.667 -21 29s-24.333 11 -43 11c-21.333 0 -40.333 -4.33301 -57 -13s-29 -21 -37 -37h-35l46 250h235l-6 -36h-199l-30 -158
c12.667 11.333 26.834 19.333 42.501 24s32.834 7 51.501 7c17.333 0 32.333 -2.66699 45 -8s23.334 -12.666 32.001 -21.999c13.333 -17.333 20.333 -37.666 21 -60.999s-1.33301 -46.666 -6 -69.999z" />
    <glyph glyph-name="six.alt1" horiz-adv-x="363" 
d="M358 149c-4 -21.333 -10.999 -41.332 -20.999 -59.999s-22.667 -35 -38 -49s-33 -25 -53 -33s-42 -12 -66 -12s-44.5 3.66699 -61.5 11s-30.667 17.666 -41 30.999s-17.166 29.166 -20.499 47.499s-3 38.5 1 60.5c3.33301 17.333 8.83301 34.666 16.5 51.999
s19.5 37 35.5 59l178 249h42l-156 -216c9.33301 2.66699 19.666 5 30.999 7s22.666 3 33.999 3c23.333 0 43.333 -3.83301 60 -11.5s30 -18.167 40 -31.5s16.667 -29.166 20 -47.499s3 -38.166 -1 -59.499zM316.001 147.001c2.66699 16 3.1709 31 1.50391 45
s-6 26.333 -13 37s-16.5 19.167 -28.5 25.5s-27 9.5 -45 9.5c-33.333 0 -61.833 -10.5 -85.5 -31.5s-38.834 -49.5 -45.501 -85.5c-6.66699 -34 -2.33398 -62.333 12.999 -85s39.666 -34 72.999 -34s61.666 11.333 84.999 34s38.333 51 45 85z" />
    <glyph glyph-name="seven.alt1" horiz-adv-x="363" 
d="M117 -101h-42l276 472h-200l-14 -79h-40l20 112h283l-6 -32z" />
    <glyph glyph-name="eight.alt1" horiz-adv-x="363" 
d="M360 137c-4 -20 -11.5 -38.665 -22.5 -55.998s-24.5 -32.333 -40.5 -45s-34.167 -22.5 -54.5 -29.5s-41.5 -10.5 -63.5 -10.5c-21.333 0 -40.666 3.5 -57.999 10.5s-31.833 16.833 -43.5 29.5s-19.834 27.667 -24.501 45s-5 36 -1 56c5.33301 30 17.833 55.5 37.5 76.5
s42.834 37.5 69.501 49.5c-21.333 13.333 -36.333 29.166 -45 47.499s-10.334 40.833 -5.00098 67.5c3.33301 18.667 9.83301 36.167 19.5 52.5s21.834 30.166 36.501 41.499s31.167 20.333 49.5 27s38.166 10 59.499 10c42.667 0 75 -12.333 97 -37s29.667 -56 23 -94
c-5.33301 -25.333 -16 -47.5 -32 -66.5s-36.667 -35.167 -62 -48.5c23.333 -12 40.5 -28.5 51.5 -49.5s13.833 -46.5 8.5 -76.5zM353 378.002c5.33301 28.667 0.333984 52.334 -14.999 71.001s-38.666 28 -69.999 28c-30 0 -56 -9.33301 -78 -28
s-35.667 -42.334 -41 -71.001c-5.33301 -29.333 -0.5 -53 14.5 -71s37.5 -27 67.5 -27c31.333 0 58.166 9 80.499 27s36.166 41.667 41.499 71zM319.001 139.002c6 30.667 0.00292969 56.334 -17.9971 77.001s-43.333 31 -76 31c-16 0 -31.167 -2.83301 -45.5 -8.5
s-27.5 -13.334 -39.5 -23.001s-22.167 -21 -30.5 -34s-13.833 -27.167 -16.5 -42.5c-2.66699 -14.667 -2.33398 -28.5 0.999023 -41.5s9.16602 -24.5 17.499 -34.5s18.666 -17.833 30.999 -23.5s26.5 -8.5 42.5 -8.5s31.5 2.83301 46.5 8.5s28.5 13.5 40.5 23.5
s22.167 21.5 30.5 34.5s13.833 26.833 16.5 41.5z" />
    <glyph glyph-name="nine.alt1" horiz-adv-x="363" 
d="M79 255c4 21.333 10.998 41.333 20.998 60s22.667 35 38 49s32.833 25 52.5 33s41.5 12 65.5 12c48 0 82.5 -14 103.5 -42s27.5 -63.667 19.5 -107c-3.33301 -17.333 -9 -34.833 -17 -52.5s-19.667 -37.167 -35 -58.5l-179 -249h-41l156 216
c-9.33301 -2.66699 -19.666 -5 -30.999 -7s-22.666 -3 -33.999 -3c-23.333 0 -43.333 3.83301 -60 11.5s-30 18.167 -40 31.5s-16.667 29 -20 47s-3 37.667 1 59zM119.998 258c-2.66699 -16 -2.99707 -31 -0.99707 -45s6.5 -26.333 13.5 -37s16.5 -19.167 28.5 -25.5
s27 -9.5 45 -9.5c33.333 0 61.666 10.5 84.999 31.5s38.333 49.5 45 85.5c6.66699 34 2.5 62.333 -12.5 85s-39.5 34 -73.5 34c-32.667 0 -60.834 -11.333 -84.501 -34s-38.834 -51 -45.501 -85z" />
    <glyph glyph-name="maitaikhuthai.alt1" 
d="M-107 620c-8 0 -15.333 -1.66895 -22 -5.00195s-12.5 -7.5 -17.5 -12.5s-9 -10.333 -12 -16s-4.83301 -10.5 -5.5 -14.5c-2 -9.33301 -1.5 -18.5 1.5 -27.5s9.16699 -15.833 18.5 -20.5l47 33c9.33301 6 17.333 6 24 0l36 -34c10.667 4 18.834 10 24.501 18
s8.16699 19.333 7.5 34h37c1.33301 -23.333 -5.83398 -43.166 -21.501 -59.499s-35.167 -26.5 -58.5 -30.5l-43 41l-57 -41c-19.333 6 -34.666 15.833 -45.999 29.5s-14.333 32.834 -9 57.501c2 10 5.66699 19.667 11 29s12.166 17.666 20.499 24.999s18 13.333 29 18
s22.833 7.33398 35.5 8.00098h174l-6 -32h-168z" />
    <glyph glyph-name="saraithai.alt5" 
d="M-272 528h309l-6 -34h-309z" />
    <glyph glyph-name="maiekthai.alt5" 
d="M35 734h41l-23 -124h-41z" />
    <glyph glyph-name="maithothai.alt5" 
d="M141 635l-6 -35.001h-200l6 32c3.33301 0 6.66602 0.333008 9.99902 1s6.33301 1 9 1s5.66699 0.666992 9 2c6 1.33301 12.333 4.33301 19 9s11 13 13 25c1.33301 9.33301 -0.5 16.5 -5.5 21.5s-13.833 6.83301 -26.5 5.5l6 36c23.333 0 41 -4.5 53 -13.5
s16.333 -23.833 13 -44.5c-3.33301 -15.333 -11.666 -28.666 -24.999 -39.999h125z" />
    <glyph glyph-name="maitrithai.alt5" 
d="M149 633l-6 -32.9971h-121l11 63c1.33301 6.66699 1.5 12.5 0.5 17.5s-2.5 9 -4.5 12s-4.16699 5.33301 -6.5 7s-4.16602 2.83398 -5.49902 3.50098l-35 -33c-4.66699 -4.66699 -10.334 -7 -17.001 -7c-4 0 -7.66699 2.33301 -11 7l-30 33
c-5.33301 -1.33301 -11.5 -4.5 -18.5 -9.5s-11.833 -14.5 -14.5 -28.5c-1.33301 -8.66699 0.666992 -16.334 6 -23.001s14.333 -10 27 -10l-7 -35h-6c-20 0 -35.667 6.66699 -47 20s-15.333 28.666 -12 45.999c4 20 11.833 35.333 23.5 46s23.167 19 34.5 25
c4.66699 2 10 3.5 16 4.5s11.667 -1.5 17 -7.5l29 -31l34 31c6 5.33301 12.333 7.66602 19 6.99902s11.667 -2 15 -4c9.33301 -6.66699 17.833 -15.334 25.5 -26.001s9.5 -25.667 5.5 -45l-5 -30h83z" />
    <glyph glyph-name="maichattawathai.alt5" 
d="M-37 652l7 35h58l10 54h39l-10 -54h59l-7 -35h-59l-9 -52h-39l9 52h-58z" />
    <glyph glyph-name="maihanakatthai.alt2" 
d="M-132 563c-2.66699 -12 -3.16797 -20.833 -1.50098 -26.5s7.83398 -8.5 18.501 -8.5h257l-6 -34h-265c-7.33301 0 -14.333 1 -21 3s-12.5 5.5 -17.5 10.5s-8.5 12 -10.5 21s-1.66699 20.5 1 34.5h45z" />
    <glyph glyph-name="saraithai.alt7" 
d="M-311 528h260l-6 -34h-260z" />
    <glyph glyph-name="maiekthai.alt7" 
d="M-57 725h43l-23 -124h-43z" />
    <glyph glyph-name="maithothai.alt7" 
d="M-29 646l-6 -35.001h-207l6 32c3.33301 0 6.66602 0.333008 9.99902 1s6.33301 1 9 1s5.66699 0.666992 9 2c6 1.33301 12.333 4.33301 19 9s11.334 13 14.001 25c1.33301 9.33301 -0.666992 16.5 -6 21.5s-14.333 6.83301 -27 5.5l6 36
c23.333 0 41.166 -4.5 53.499 -13.5s16.833 -23.833 13.5 -44.5c-3.33301 -15.333 -11.666 -28.666 -24.999 -39.999h131z" />
    <glyph glyph-name="maitrithai.alt7" 
d="M-29 634l-6.00293 -32.9961h-76l12 63c2.66699 14 1.33398 23.833 -3.99902 29.5s-9.66602 9.16699 -12.999 10.5l-36 -33c-4.66699 -4.66699 -10 -7 -16 -7c-4.66699 0 -8.66699 2.33301 -12 7l-30 33c-4.66699 -1.33301 -10.667 -4.5 -18 -9.5s-12.333 -14.5 -15 -28.5
c-1.33301 -8.66699 0.666992 -16.334 6 -23.001s14.333 -10 27 -10l-7 -35h-6c-20 0 -35.5 6.66699 -46.5 20s-14.833 28.666 -11.5 45.999c3.33301 20 10.833 35.333 22.5 46s23.167 19 34.5 25c4.66699 2 10 3.5 16 4.5s11.667 -1.5 17 -7.5l29 -31l35 31
c6 5.33301 12.333 7.66602 19 6.99902s11.667 -2 15 -4c9.33301 -6.66699 17.833 -15.334 25.5 -26.001s9.83398 -25.667 6.50098 -45l-6 -30h38z" />
    <glyph glyph-name="maichattawathai.alt7" 
d="M-131 652l7 35h59l10 54h39l-10 -54h58l-7 -35h-58l-9 -52h-39l9 52h-59z" />
    </font>
</defs>
</svg>
